%TF.GenerationSoftware,KiCad,Pcbnew,(6.0.7)*%
%TF.CreationDate,2023-01-13T16:37:56+02:00*%
%TF.ProjectId,Design,44657369-676e-42e6-9b69-6361645f7063,rev?*%
%TF.SameCoordinates,Original*%
%TF.FileFunction,Copper,L1,Top*%
%TF.FilePolarity,Positive*%
%FSLAX46Y46*%
G04 Gerber Fmt 4.6, Leading zero omitted, Abs format (unit mm)*
G04 Created by KiCad (PCBNEW (6.0.7)) date 2023-01-13 16:37:56*
%MOMM*%
%LPD*%
G01*
G04 APERTURE LIST*
%TA.AperFunction,ComponentPad*%
%ADD10R,1.700000X1.700000*%
%TD*%
%TA.AperFunction,ComponentPad*%
%ADD11O,1.700000X1.700000*%
%TD*%
%TA.AperFunction,ComponentPad*%
%ADD12R,1.050000X1.500000*%
%TD*%
%TA.AperFunction,ComponentPad*%
%ADD13O,1.050000X1.500000*%
%TD*%
%TA.AperFunction,ComponentPad*%
%ADD14R,2.200000X2.200000*%
%TD*%
%TA.AperFunction,ComponentPad*%
%ADD15O,2.200000X2.200000*%
%TD*%
%TA.AperFunction,ComponentPad*%
%ADD16C,1.400000*%
%TD*%
%TA.AperFunction,ComponentPad*%
%ADD17O,1.400000X1.400000*%
%TD*%
%TA.AperFunction,ViaPad*%
%ADD18C,0.800000*%
%TD*%
%TA.AperFunction,Conductor*%
%ADD19C,0.250000*%
%TD*%
G04 APERTURE END LIST*
D10*
%TO.P,J5,1,Pin_1*%
%TO.N,G*%
X81280000Y-50800000D03*
D11*
%TO.P,J5,2,Pin_2*%
%TO.N,3V*%
X83820000Y-50800000D03*
%TO.P,J5,3,Pin_3*%
%TO.N,Xaxis*%
X86360000Y-50800000D03*
%TO.P,J5,4,Pin_4*%
%TO.N,Yaxis*%
X88900000Y-50800000D03*
%TO.P,J5,5,Pin_5*%
%TO.N,unconnected-(J5-Pad5)*%
X91440000Y-50800000D03*
%TD*%
D10*
%TO.P,J1,1,Pin_1*%
%TO.N,3V*%
X78740000Y-100012500D03*
D11*
%TO.P,J1,2,Pin_2*%
%TO.N,G*%
X81280000Y-100012500D03*
%TO.P,J1,3,Pin_3*%
%TO.N,D1*%
X83820000Y-100012500D03*
%TO.P,J1,4,Pin_4*%
%TO.N,D2*%
X86360000Y-100012500D03*
%TO.P,J1,5,Pin_5*%
%TO.N,unconnected-(J1-Pad5)*%
X88900000Y-100012500D03*
%TO.P,J1,6,Pin_6*%
%TO.N,unconnected-(J1-Pad6)*%
X91440000Y-100012500D03*
%TO.P,J1,7,Pin_7*%
%TO.N,Net-(J1-Pad7)*%
X93980000Y-100012500D03*
%TO.P,J1,8,Pin_8*%
%TO.N,unconnected-(J1-Pad8)*%
X96520000Y-100012500D03*
%TD*%
D12*
%TO.P,Q2,1,C*%
%TO.N,Yaxis*%
X95250000Y-72390000D03*
D13*
%TO.P,Q2,2,B*%
%TO.N,Net-(Q2-Pad2)*%
X96520000Y-72390000D03*
%TO.P,Q2,3,E*%
%TO.N,Net-(D2-Pad2)*%
X97790000Y-72390000D03*
%TD*%
D14*
%TO.P,D1,1,K*%
%TO.N,A0*%
X92710000Y-58420000D03*
D15*
%TO.P,D1,2,A*%
%TO.N,Net-(D1-Pad2)*%
X92710000Y-68580000D03*
%TD*%
D14*
%TO.P,D2,1,K*%
%TO.N,A0*%
X97790000Y-58420000D03*
D15*
%TO.P,D2,2,A*%
%TO.N,Net-(D2-Pad2)*%
X97790000Y-68580000D03*
%TD*%
D16*
%TO.P,R2,1*%
%TO.N,D6*%
X91440000Y-88900000D03*
D17*
%TO.P,R2,2*%
%TO.N,Net-(J4-Pad7)*%
X91440000Y-96520000D03*
%TD*%
D16*
%TO.P,R5,1*%
%TO.N,D0*%
X76200000Y-58420000D03*
D17*
%TO.P,R5,2*%
%TO.N,G*%
X83820000Y-58420000D03*
%TD*%
D16*
%TO.P,R1,1*%
%TO.N,D5*%
X93980000Y-88900000D03*
D17*
%TO.P,R1,2*%
%TO.N,Net-(J1-Pad7)*%
X93980000Y-96520000D03*
%TD*%
D16*
%TO.P,R7,1*%
%TO.N,D4*%
X76200000Y-68580000D03*
D17*
%TO.P,R7,2*%
%TO.N,G*%
X83820000Y-68580000D03*
%TD*%
D16*
%TO.P,R3,1*%
%TO.N,Net-(Q1-Pad2)*%
X87630000Y-81280000D03*
D17*
%TO.P,R3,2*%
%TO.N,D7*%
X80010000Y-81280000D03*
%TD*%
D10*
%TO.P,J3,1,Pin_1*%
%TO.N,3V*%
X73660000Y-93980000D03*
D11*
%TO.P,J3,2,Pin_2*%
%TO.N,G*%
X73660000Y-91440000D03*
%TO.P,J3,3,Pin_3*%
%TO.N,TX*%
X73660000Y-88900000D03*
%TO.P,J3,4,Pin_4*%
%TO.N,RT*%
X73660000Y-86360000D03*
%TO.P,J3,5,Pin_5*%
%TO.N,D8*%
X73660000Y-83820000D03*
%TO.P,J3,6,Pin_6*%
%TO.N,D7*%
X73660000Y-81280000D03*
%TO.P,J3,7,Pin_7*%
%TO.N,D6*%
X73660000Y-78740000D03*
%TO.P,J3,8,Pin_8*%
%TO.N,D5*%
X73660000Y-76200000D03*
%TO.P,J3,9,Pin_9*%
%TO.N,G*%
X73660000Y-73660000D03*
%TO.P,J3,10,Pin_10*%
%TO.N,3V*%
X73660000Y-71120000D03*
%TO.P,J3,11,Pin_11*%
%TO.N,D4*%
X73660000Y-68580000D03*
%TO.P,J3,12,Pin_12*%
%TO.N,D3*%
X73660000Y-66040000D03*
%TO.P,J3,13,Pin_13*%
%TO.N,D2*%
X73660000Y-63500000D03*
%TO.P,J3,14,Pin_14*%
%TO.N,D1*%
X73660000Y-60960000D03*
%TO.P,J3,15,Pin_15*%
%TO.N,D0*%
X73660000Y-58420000D03*
%TD*%
D16*
%TO.P,R8,1*%
%TO.N,Net-(Q2-Pad2)*%
X87630000Y-83820000D03*
D17*
%TO.P,R8,2*%
%TO.N,D8*%
X80010000Y-83820000D03*
%TD*%
D10*
%TO.P,J7,1,Pin_1*%
%TO.N,3V*%
X81280000Y-53340000D03*
D11*
%TO.P,J7,2,Pin_2*%
%TO.N,D0*%
X83820000Y-53340000D03*
%TO.P,J7,3,Pin_3*%
%TO.N,D3*%
X86360000Y-53340000D03*
%TO.P,J7,4,Pin_4*%
%TO.N,D4*%
X88900000Y-53340000D03*
%TO.P,J7,5,Pin_5*%
%TO.N,unconnected-(J7-Pad5)*%
X91440000Y-53340000D03*
%TD*%
D16*
%TO.P,R6,1*%
%TO.N,D3*%
X76200000Y-66040000D03*
D17*
%TO.P,R6,2*%
%TO.N,G*%
X83820000Y-66040000D03*
%TD*%
D16*
%TO.P,R4,1*%
%TO.N,Net-(D1-Pad2)*%
X92710000Y-77470000D03*
D17*
%TO.P,R4,2*%
%TO.N,G*%
X92710000Y-85090000D03*
%TD*%
D10*
%TO.P,J6,1,Pin_1*%
%TO.N,G*%
X97790000Y-53340000D03*
D11*
%TO.P,J6,2,Pin_2*%
%TO.N,3V*%
X97790000Y-50800000D03*
%TD*%
D16*
%TO.P,R9,1*%
%TO.N,Net-(D2-Pad2)*%
X97790000Y-77470000D03*
D17*
%TO.P,R9,2*%
%TO.N,G*%
X97790000Y-85090000D03*
%TD*%
D10*
%TO.P,J2,1,Pin_1*%
%TO.N,A0*%
X101600000Y-58420000D03*
D11*
%TO.P,J2,2,Pin_2*%
%TO.N,G*%
X101600000Y-60960000D03*
%TO.P,J2,3,Pin_3*%
%TO.N,VV*%
X101600000Y-63500000D03*
%TO.P,J2,4,Pin_4*%
%TO.N,S3*%
X101600000Y-66040000D03*
%TO.P,J2,5,Pin_5*%
%TO.N,S2*%
X101600000Y-68580000D03*
%TO.P,J2,6,Pin_6*%
%TO.N,S1*%
X101600000Y-71120000D03*
%TO.P,J2,7,Pin_7*%
%TO.N,Sc*%
X101600000Y-73660000D03*
%TO.P,J2,8,Pin_8*%
%TO.N,S0*%
X101600000Y-76200000D03*
%TO.P,J2,9,Pin_9*%
%TO.N,SK*%
X101600000Y-78740000D03*
%TO.P,J2,10,Pin_10*%
%TO.N,G*%
X101600000Y-81280000D03*
%TO.P,J2,11,Pin_11*%
%TO.N,3V*%
X101600000Y-83820000D03*
%TO.P,J2,12,Pin_12*%
%TO.N,EN*%
X101600000Y-86360000D03*
%TO.P,J2,13,Pin_13*%
%TO.N,RST*%
X101600000Y-88900000D03*
%TO.P,J2,14,Pin_14*%
%TO.N,G*%
X101600000Y-91440000D03*
%TO.P,J2,15,Pin_15*%
%TO.N,Vin*%
X101600000Y-93980000D03*
%TD*%
D12*
%TO.P,Q1,1,C*%
%TO.N,Xaxis*%
X90170000Y-72390000D03*
D13*
%TO.P,Q1,2,B*%
%TO.N,Net-(Q1-Pad2)*%
X91440000Y-72390000D03*
%TO.P,Q1,3,E*%
%TO.N,Net-(D1-Pad2)*%
X92710000Y-72390000D03*
%TD*%
D10*
%TO.P,J4,1,Pin_1*%
%TO.N,3V*%
X78740000Y-104140000D03*
D11*
%TO.P,J4,2,Pin_2*%
%TO.N,G*%
X81280000Y-104140000D03*
%TO.P,J4,3,Pin_3*%
%TO.N,D1*%
X83820000Y-104140000D03*
%TO.P,J4,4,Pin_4*%
%TO.N,D2*%
X86360000Y-104140000D03*
%TO.P,J4,5,Pin_5*%
%TO.N,unconnected-(J4-Pad5)*%
X88900000Y-104140000D03*
%TO.P,J4,6,Pin_6*%
%TO.N,unconnected-(J4-Pad6)*%
X91440000Y-104140000D03*
%TO.P,J4,7,Pin_7*%
%TO.N,Net-(J4-Pad7)*%
X93980000Y-104140000D03*
%TO.P,J4,8,Pin_8*%
%TO.N,unconnected-(J4-Pad8)*%
X96520000Y-104140000D03*
%TD*%
D18*
%TO.N,3V*%
X81280000Y-62230000D03*
%TO.N,D2*%
X78740000Y-72390000D03*
X83820000Y-76200000D03*
%TD*%
D19*
%TO.N,Net-(Q1-Pad2)*%
X91440000Y-72390000D02*
X91440000Y-73390000D01*
X91440000Y-73390000D02*
X87630000Y-77200000D01*
X87630000Y-77200000D02*
X87630000Y-81280000D01*
%TO.N,D8*%
X80010000Y-83820000D02*
X73660000Y-83820000D01*
%TO.N,Net-(D1-Pad2)*%
X92710000Y-68580000D02*
X92710000Y-72390000D01*
X92710000Y-77470000D02*
X92710000Y-72390000D01*
%TO.N,G*%
X97790000Y-85090000D02*
X92710000Y-85090000D01*
X83820000Y-68580000D02*
X83820000Y-66040000D01*
X81280000Y-104140000D02*
X81280000Y-100012500D01*
X83820000Y-66040000D02*
X83820000Y-58420000D01*
%TO.N,Net-(Q2-Pad2)*%
X96520000Y-81280000D02*
X93980000Y-83820000D01*
X96520000Y-72390000D02*
X96520000Y-81280000D01*
X93980000Y-83820000D02*
X87630000Y-83820000D01*
%TO.N,D7*%
X73660000Y-81280000D02*
X80010000Y-81280000D01*
%TO.N,Net-(D2-Pad2)*%
X97790000Y-72390000D02*
X97790000Y-68580000D01*
X97790000Y-77470000D02*
X97790000Y-72390000D01*
%TO.N,Xaxis*%
X87630000Y-52070000D02*
X86360000Y-50800000D01*
X89428558Y-52070000D02*
X87630000Y-52070000D01*
X90170000Y-52811442D02*
X89428558Y-52070000D01*
X90170000Y-72390000D02*
X90170000Y-52811442D01*
%TO.N,Yaxis*%
X91373567Y-57083567D02*
X91196433Y-57083567D01*
X90620000Y-57660000D02*
X90620000Y-58420000D01*
X93980000Y-53340000D02*
X93980000Y-55880000D01*
X90174278Y-52074278D02*
X92714278Y-52074278D01*
X90620000Y-57660000D02*
X90620000Y-62680000D01*
X90620000Y-58420000D02*
X90620000Y-57837134D01*
X93980000Y-55880000D02*
X92400000Y-55880000D01*
X88900000Y-50800000D02*
X90174278Y-52074278D01*
X90620000Y-57837134D02*
X91373567Y-57083567D01*
X95250000Y-67310000D02*
X95250000Y-72390000D01*
X91196433Y-57083567D02*
X90620000Y-57660000D01*
X92400000Y-55880000D02*
X90620000Y-57660000D01*
X92714278Y-52074278D02*
X93980000Y-53340000D01*
X90620000Y-62680000D02*
X95250000Y-67310000D01*
%TO.N,A0*%
X101600000Y-58420000D02*
X97790000Y-58420000D01*
X97790000Y-58420000D02*
X92710000Y-58420000D01*
%TO.N,3V*%
X73660000Y-71120000D02*
X75767180Y-71120000D01*
X78740000Y-100012500D02*
X78740000Y-99060000D01*
X78740000Y-104140000D02*
X78740000Y-100012500D01*
X81280000Y-65607180D02*
X81280000Y-62230000D01*
X75767180Y-71120000D02*
X81280000Y-65607180D01*
X78740000Y-99060000D02*
X73660000Y-93980000D01*
%TO.N,D6*%
X90450051Y-88900000D02*
X80290051Y-78740000D01*
X80290051Y-78740000D02*
X73660000Y-78740000D01*
X91440000Y-88900000D02*
X90450051Y-88900000D01*
%TO.N,D5*%
X90061447Y-87875000D02*
X78386447Y-76200000D01*
X92955000Y-87875000D02*
X90061447Y-87875000D01*
X78386447Y-76200000D02*
X73660000Y-76200000D01*
X93980000Y-88900000D02*
X92955000Y-87875000D01*
%TO.N,D4*%
X77470000Y-62866396D02*
X77470000Y-67310000D01*
X73660000Y-68580000D02*
X76200000Y-68580000D01*
X85090000Y-57150000D02*
X83186396Y-57150000D01*
X77470000Y-67310000D02*
X76200000Y-68580000D01*
X83186396Y-57150000D02*
X77470000Y-62866396D01*
X88900000Y-53340000D02*
X85090000Y-57150000D01*
%TO.N,D3*%
X76200000Y-63500000D02*
X86360000Y-53340000D01*
X76200000Y-66040000D02*
X76200000Y-63500000D01*
X76200000Y-66040000D02*
X73660000Y-66040000D01*
%TO.N,D2*%
X80010000Y-72390000D02*
X78740000Y-72390000D01*
X83820000Y-76200000D02*
X80010000Y-72390000D01*
X86360000Y-104140000D02*
X86360000Y-100012500D01*
%TO.N,D1*%
X83820000Y-104140000D02*
X83820000Y-100012500D01*
%TO.N,D0*%
X73660000Y-58420000D02*
X76200000Y-58420000D01*
X76200000Y-58420000D02*
X78740000Y-58420000D01*
X78740000Y-58420000D02*
X83820000Y-53340000D01*
%TO.N,Net-(J1-Pad7)*%
X93980000Y-100012500D02*
X93980000Y-96520000D01*
%TO.N,Net-(J4-Pad7)*%
X93980000Y-104140000D02*
X92805000Y-102965000D01*
X92805000Y-102965000D02*
X92805000Y-97885000D01*
X92805000Y-97885000D02*
X91440000Y-96520000D01*
%TD*%
%TA.AperFunction,Conductor*%
%TO.N,G*%
G36*
X96123621Y-59073502D02*
G01*
X96170114Y-59127158D01*
X96181500Y-59179500D01*
X96181500Y-59568134D01*
X96188255Y-59630316D01*
X96239385Y-59766705D01*
X96326739Y-59883261D01*
X96443295Y-59970615D01*
X96579684Y-60021745D01*
X96641866Y-60028500D01*
X98938134Y-60028500D01*
X99000316Y-60021745D01*
X99136705Y-59970615D01*
X99253261Y-59883261D01*
X99340615Y-59766705D01*
X99391745Y-59630316D01*
X99398500Y-59568134D01*
X99398500Y-59179500D01*
X99418502Y-59111379D01*
X99472158Y-59064886D01*
X99524500Y-59053500D01*
X100115500Y-59053500D01*
X100183621Y-59073502D01*
X100230114Y-59127158D01*
X100241500Y-59179500D01*
X100241500Y-59318134D01*
X100248255Y-59380316D01*
X100299385Y-59516705D01*
X100386739Y-59633261D01*
X100503295Y-59720615D01*
X100511704Y-59723767D01*
X100511705Y-59723768D01*
X100620960Y-59764726D01*
X100677725Y-59807367D01*
X100702425Y-59873929D01*
X100687218Y-59943278D01*
X100667825Y-59969759D01*
X100544590Y-60098717D01*
X100538104Y-60106727D01*
X100418098Y-60282649D01*
X100413000Y-60291623D01*
X100323338Y-60484783D01*
X100319775Y-60494470D01*
X100264389Y-60694183D01*
X100265912Y-60702607D01*
X100278292Y-60706000D01*
X101728000Y-60706000D01*
X101796121Y-60726002D01*
X101842614Y-60779658D01*
X101854000Y-60832000D01*
X101854000Y-61088000D01*
X101833998Y-61156121D01*
X101780342Y-61202614D01*
X101728000Y-61214000D01*
X100283225Y-61214000D01*
X100269694Y-61217973D01*
X100268257Y-61227966D01*
X100298565Y-61362446D01*
X100301645Y-61372275D01*
X100381770Y-61569603D01*
X100386413Y-61578794D01*
X100497694Y-61760388D01*
X100503777Y-61768699D01*
X100643213Y-61929667D01*
X100650580Y-61936883D01*
X100814434Y-62072916D01*
X100822881Y-62078831D01*
X100891969Y-62119203D01*
X100940693Y-62170842D01*
X100953764Y-62240625D01*
X100927033Y-62306396D01*
X100886584Y-62339752D01*
X100873607Y-62346507D01*
X100869474Y-62349610D01*
X100869471Y-62349612D01*
X100699100Y-62477530D01*
X100694965Y-62480635D01*
X100540629Y-62642138D01*
X100414743Y-62826680D01*
X100399003Y-62860590D01*
X100332278Y-63004337D01*
X100320688Y-63029305D01*
X100260989Y-63244570D01*
X100237251Y-63466695D01*
X100237548Y-63471848D01*
X100237548Y-63471851D01*
X100243011Y-63566590D01*
X100250110Y-63689715D01*
X100251247Y-63694761D01*
X100251248Y-63694767D01*
X100265815Y-63759404D01*
X100299222Y-63907639D01*
X100383266Y-64114616D01*
X100499987Y-64305088D01*
X100646250Y-64473938D01*
X100818126Y-64616632D01*
X100833470Y-64625598D01*
X100891445Y-64659476D01*
X100940169Y-64711114D01*
X100953240Y-64780897D01*
X100926509Y-64846669D01*
X100886055Y-64880027D01*
X100873607Y-64886507D01*
X100869474Y-64889610D01*
X100869471Y-64889612D01*
X100708627Y-65010377D01*
X100694965Y-65020635D01*
X100540629Y-65182138D01*
X100414743Y-65366680D01*
X100320688Y-65569305D01*
X100260989Y-65784570D01*
X100237251Y-66006695D01*
X100237548Y-66011848D01*
X100237548Y-66011851D01*
X100242795Y-66102843D01*
X100250110Y-66229715D01*
X100251247Y-66234761D01*
X100251248Y-66234767D01*
X100275304Y-66341508D01*
X100299222Y-66447639D01*
X100383266Y-66654616D01*
X100385965Y-66659020D01*
X100486863Y-66823671D01*
X100499987Y-66845088D01*
X100646250Y-67013938D01*
X100818126Y-67156632D01*
X100888595Y-67197811D01*
X100891445Y-67199476D01*
X100940169Y-67251114D01*
X100953240Y-67320897D01*
X100926509Y-67386669D01*
X100886055Y-67420027D01*
X100873607Y-67426507D01*
X100869474Y-67429610D01*
X100869471Y-67429612D01*
X100725940Y-67537378D01*
X100694965Y-67560635D01*
X100540629Y-67722138D01*
X100414743Y-67906680D01*
X100381323Y-67978677D01*
X100335760Y-68076836D01*
X100320688Y-68109305D01*
X100260989Y-68324570D01*
X100237251Y-68546695D01*
X100237548Y-68551848D01*
X100237548Y-68551851D01*
X100249812Y-68764547D01*
X100250110Y-68769715D01*
X100251247Y-68774761D01*
X100251248Y-68774767D01*
X100268680Y-68852115D01*
X100299222Y-68987639D01*
X100383266Y-69194616D01*
X100385965Y-69199020D01*
X100486863Y-69363671D01*
X100499987Y-69385088D01*
X100646250Y-69553938D01*
X100818126Y-69696632D01*
X100859670Y-69720908D01*
X100891445Y-69739476D01*
X100940169Y-69791114D01*
X100953240Y-69860897D01*
X100926509Y-69926669D01*
X100886055Y-69960027D01*
X100873607Y-69966507D01*
X100869474Y-69969610D01*
X100869471Y-69969612D01*
X100729515Y-70074694D01*
X100694965Y-70100635D01*
X100540629Y-70262138D01*
X100414743Y-70446680D01*
X100320688Y-70649305D01*
X100260989Y-70864570D01*
X100237251Y-71086695D01*
X100237548Y-71091848D01*
X100237548Y-71091851D01*
X100243906Y-71202119D01*
X100250110Y-71309715D01*
X100251247Y-71314761D01*
X100251248Y-71314767D01*
X100267189Y-71385500D01*
X100299222Y-71527639D01*
X100359014Y-71674890D01*
X100376662Y-71718351D01*
X100383266Y-71734616D01*
X100417982Y-71791267D01*
X100493110Y-71913865D01*
X100499987Y-71925088D01*
X100646250Y-72093938D01*
X100818126Y-72236632D01*
X100833470Y-72245598D01*
X100891445Y-72279476D01*
X100940169Y-72331114D01*
X100953240Y-72400897D01*
X100926509Y-72466669D01*
X100886055Y-72500027D01*
X100873607Y-72506507D01*
X100869474Y-72509610D01*
X100869471Y-72509612D01*
X100699100Y-72637530D01*
X100694965Y-72640635D01*
X100540629Y-72802138D01*
X100414743Y-72986680D01*
X100412564Y-72991375D01*
X100326290Y-73177237D01*
X100320688Y-73189305D01*
X100260989Y-73404570D01*
X100237251Y-73626695D01*
X100237548Y-73631848D01*
X100237548Y-73631851D01*
X100239691Y-73669014D01*
X100250110Y-73849715D01*
X100251247Y-73854761D01*
X100251248Y-73854767D01*
X100275304Y-73961508D01*
X100299222Y-74067639D01*
X100383266Y-74274616D01*
X100499987Y-74465088D01*
X100646250Y-74633938D01*
X100818126Y-74776632D01*
X100833470Y-74785598D01*
X100891445Y-74819476D01*
X100940169Y-74871114D01*
X100953240Y-74940897D01*
X100926509Y-75006669D01*
X100886055Y-75040027D01*
X100873607Y-75046507D01*
X100869474Y-75049610D01*
X100869471Y-75049612D01*
X100845247Y-75067800D01*
X100694965Y-75180635D01*
X100540629Y-75342138D01*
X100414743Y-75526680D01*
X100376011Y-75610121D01*
X100339471Y-75688841D01*
X100320688Y-75729305D01*
X100260989Y-75944570D01*
X100237251Y-76166695D01*
X100250110Y-76389715D01*
X100251247Y-76394761D01*
X100251248Y-76394767D01*
X100261054Y-76438276D01*
X100299222Y-76607639D01*
X100383266Y-76814616D01*
X100419629Y-76873955D01*
X100493072Y-76993803D01*
X100499987Y-77005088D01*
X100646250Y-77173938D01*
X100818126Y-77316632D01*
X100833470Y-77325598D01*
X100891445Y-77359476D01*
X100940169Y-77411114D01*
X100953240Y-77480897D01*
X100926509Y-77546669D01*
X100886055Y-77580027D01*
X100873607Y-77586507D01*
X100869474Y-77589610D01*
X100869471Y-77589612D01*
X100699100Y-77717530D01*
X100694965Y-77720635D01*
X100540629Y-77882138D01*
X100537715Y-77886410D01*
X100537714Y-77886411D01*
X100534307Y-77891405D01*
X100414743Y-78066680D01*
X100320688Y-78269305D01*
X100260989Y-78484570D01*
X100237251Y-78706695D01*
X100250110Y-78929715D01*
X100251247Y-78934761D01*
X100251248Y-78934767D01*
X100275304Y-79041508D01*
X100299222Y-79147639D01*
X100383266Y-79354616D01*
X100499987Y-79545088D01*
X100646250Y-79713938D01*
X100818126Y-79856632D01*
X100833470Y-79865598D01*
X100891955Y-79899774D01*
X100940679Y-79951412D01*
X100953750Y-80021195D01*
X100927019Y-80086967D01*
X100886562Y-80120327D01*
X100878457Y-80124546D01*
X100869738Y-80130036D01*
X100699433Y-80257905D01*
X100691726Y-80264748D01*
X100544590Y-80418717D01*
X100538104Y-80426727D01*
X100418098Y-80602649D01*
X100413000Y-80611623D01*
X100323338Y-80804783D01*
X100319775Y-80814470D01*
X100264389Y-81014183D01*
X100265912Y-81022607D01*
X100278292Y-81026000D01*
X101728000Y-81026000D01*
X101796121Y-81046002D01*
X101842614Y-81099658D01*
X101854000Y-81152000D01*
X101854000Y-81408000D01*
X101833998Y-81476121D01*
X101780342Y-81522614D01*
X101728000Y-81534000D01*
X100283225Y-81534000D01*
X100269694Y-81537973D01*
X100268257Y-81547966D01*
X100298565Y-81682446D01*
X100301645Y-81692275D01*
X100381770Y-81889603D01*
X100386413Y-81898794D01*
X100497694Y-82080388D01*
X100503777Y-82088699D01*
X100643213Y-82249667D01*
X100650580Y-82256883D01*
X100814434Y-82392916D01*
X100822881Y-82398831D01*
X100891969Y-82439203D01*
X100940693Y-82490842D01*
X100953764Y-82560625D01*
X100927033Y-82626396D01*
X100886584Y-82659752D01*
X100873607Y-82666507D01*
X100869474Y-82669610D01*
X100869471Y-82669612D01*
X100732349Y-82772566D01*
X100694965Y-82800635D01*
X100540629Y-82962138D01*
X100414743Y-83146680D01*
X100383753Y-83213442D01*
X100345440Y-83295982D01*
X100320688Y-83349305D01*
X100260989Y-83564570D01*
X100237251Y-83786695D01*
X100237548Y-83791848D01*
X100237548Y-83791851D01*
X100246831Y-83952842D01*
X100250110Y-84009715D01*
X100251247Y-84014761D01*
X100251248Y-84014767D01*
X100275304Y-84121508D01*
X100299222Y-84227639D01*
X100359014Y-84374890D01*
X100376662Y-84418351D01*
X100383266Y-84434616D01*
X100399054Y-84460379D01*
X100486863Y-84603671D01*
X100499987Y-84625088D01*
X100646250Y-84793938D01*
X100818126Y-84936632D01*
X100858982Y-84960506D01*
X100891445Y-84979476D01*
X100940169Y-85031114D01*
X100953240Y-85100897D01*
X100926509Y-85166669D01*
X100886055Y-85200027D01*
X100873607Y-85206507D01*
X100869474Y-85209610D01*
X100869471Y-85209612D01*
X100845247Y-85227800D01*
X100694965Y-85340635D01*
X100540629Y-85502138D01*
X100414743Y-85686680D01*
X100320688Y-85889305D01*
X100260989Y-86104570D01*
X100237251Y-86326695D01*
X100237548Y-86331848D01*
X100237548Y-86331851D01*
X100243011Y-86426590D01*
X100250110Y-86549715D01*
X100251247Y-86554761D01*
X100251248Y-86554767D01*
X100271119Y-86642939D01*
X100299222Y-86767639D01*
X100383266Y-86974616D01*
X100499987Y-87165088D01*
X100646250Y-87333938D01*
X100818126Y-87476632D01*
X100828591Y-87482747D01*
X100891445Y-87519476D01*
X100940169Y-87571114D01*
X100953240Y-87640897D01*
X100926509Y-87706669D01*
X100886055Y-87740027D01*
X100873607Y-87746507D01*
X100869474Y-87749610D01*
X100869471Y-87749612D01*
X100732349Y-87852566D01*
X100694965Y-87880635D01*
X100540629Y-88042138D01*
X100414743Y-88226680D01*
X100320688Y-88429305D01*
X100260989Y-88644570D01*
X100237251Y-88866695D01*
X100237548Y-88871848D01*
X100237548Y-88871851D01*
X100243011Y-88966590D01*
X100250110Y-89089715D01*
X100251247Y-89094761D01*
X100251248Y-89094767D01*
X100273392Y-89193023D01*
X100299222Y-89307639D01*
X100354900Y-89444758D01*
X100376817Y-89498733D01*
X100383266Y-89514616D01*
X100434019Y-89597438D01*
X100486863Y-89683671D01*
X100499987Y-89705088D01*
X100646250Y-89873938D01*
X100818126Y-90016632D01*
X100860476Y-90041379D01*
X100891955Y-90059774D01*
X100940679Y-90111412D01*
X100953750Y-90181195D01*
X100927019Y-90246967D01*
X100886562Y-90280327D01*
X100878457Y-90284546D01*
X100869738Y-90290036D01*
X100699433Y-90417905D01*
X100691726Y-90424748D01*
X100544590Y-90578717D01*
X100538104Y-90586727D01*
X100418098Y-90762649D01*
X100413000Y-90771623D01*
X100323338Y-90964783D01*
X100319775Y-90974470D01*
X100264389Y-91174183D01*
X100265912Y-91182607D01*
X100278292Y-91186000D01*
X101728000Y-91186000D01*
X101796121Y-91206002D01*
X101842614Y-91259658D01*
X101854000Y-91312000D01*
X101854000Y-91568000D01*
X101833998Y-91636121D01*
X101780342Y-91682614D01*
X101728000Y-91694000D01*
X100283225Y-91694000D01*
X100269694Y-91697973D01*
X100268257Y-91707966D01*
X100298565Y-91842446D01*
X100301645Y-91852275D01*
X100381770Y-92049603D01*
X100386413Y-92058794D01*
X100497694Y-92240388D01*
X100503777Y-92248699D01*
X100643213Y-92409667D01*
X100650580Y-92416883D01*
X100814434Y-92552916D01*
X100822881Y-92558831D01*
X100891969Y-92599203D01*
X100940693Y-92650842D01*
X100953764Y-92720625D01*
X100927033Y-92786396D01*
X100886584Y-92819752D01*
X100873607Y-92826507D01*
X100869474Y-92829610D01*
X100869471Y-92829612D01*
X100699100Y-92957530D01*
X100694965Y-92960635D01*
X100540629Y-93122138D01*
X100414743Y-93306680D01*
X100320688Y-93509305D01*
X100260989Y-93724570D01*
X100237251Y-93946695D01*
X100250110Y-94169715D01*
X100251247Y-94174761D01*
X100251248Y-94174767D01*
X100275304Y-94281508D01*
X100299222Y-94387639D01*
X100383266Y-94594616D01*
X100499987Y-94785088D01*
X100646250Y-94953938D01*
X100818126Y-95096632D01*
X101011000Y-95209338D01*
X101219692Y-95289030D01*
X101224760Y-95290061D01*
X101224763Y-95290062D01*
X101309801Y-95307363D01*
X101438597Y-95333567D01*
X101443772Y-95333757D01*
X101443774Y-95333757D01*
X101656673Y-95341564D01*
X101656677Y-95341564D01*
X101661837Y-95341753D01*
X101666957Y-95341097D01*
X101666959Y-95341097D01*
X101878288Y-95314025D01*
X101878289Y-95314025D01*
X101883416Y-95313368D01*
X101905028Y-95306884D01*
X102092429Y-95250661D01*
X102092434Y-95250659D01*
X102097384Y-95249174D01*
X102180070Y-95208666D01*
X102250041Y-95196660D01*
X102315398Y-95224390D01*
X102355388Y-95283052D01*
X102361500Y-95321818D01*
X102361500Y-105360633D01*
X102360000Y-105380018D01*
X102357690Y-105394851D01*
X102357690Y-105394855D01*
X102356309Y-105403724D01*
X102357473Y-105412626D01*
X102357473Y-105412629D01*
X102358439Y-105420012D01*
X102359233Y-105444591D01*
X102344660Y-105666922D01*
X102342509Y-105683262D01*
X102293889Y-105927693D01*
X102289625Y-105943606D01*
X102255312Y-106044689D01*
X102209516Y-106179600D01*
X102203209Y-106194826D01*
X102092984Y-106418342D01*
X102084743Y-106432616D01*
X101946287Y-106639829D01*
X101936254Y-106652905D01*
X101771932Y-106840278D01*
X101760278Y-106851932D01*
X101572905Y-107016254D01*
X101559829Y-107026287D01*
X101352616Y-107164743D01*
X101338342Y-107172984D01*
X101114826Y-107283209D01*
X101099602Y-107289515D01*
X100863606Y-107369625D01*
X100847696Y-107373888D01*
X100725478Y-107398199D01*
X100603262Y-107422509D01*
X100586922Y-107424660D01*
X100438134Y-107434413D01*
X100371763Y-107438763D01*
X100348650Y-107437733D01*
X100345146Y-107437690D01*
X100336276Y-107436309D01*
X100327374Y-107437473D01*
X100327372Y-107437473D01*
X100313915Y-107439233D01*
X100304714Y-107440436D01*
X100288379Y-107441500D01*
X74979367Y-107441500D01*
X74959982Y-107440000D01*
X74945149Y-107437690D01*
X74945145Y-107437690D01*
X74936276Y-107436309D01*
X74927374Y-107437473D01*
X74927371Y-107437473D01*
X74919988Y-107438439D01*
X74895409Y-107439233D01*
X74850799Y-107436309D01*
X74673078Y-107424660D01*
X74656738Y-107422509D01*
X74534522Y-107398199D01*
X74412304Y-107373888D01*
X74396394Y-107369625D01*
X74160398Y-107289515D01*
X74145174Y-107283209D01*
X73921658Y-107172984D01*
X73907384Y-107164743D01*
X73700171Y-107026287D01*
X73687095Y-107016254D01*
X73499722Y-106851932D01*
X73488068Y-106840278D01*
X73323746Y-106652905D01*
X73313713Y-106639829D01*
X73175257Y-106432616D01*
X73167016Y-106418342D01*
X73056791Y-106194826D01*
X73050484Y-106179600D01*
X73004688Y-106044689D01*
X72970375Y-105943606D01*
X72966111Y-105927693D01*
X72917491Y-105683262D01*
X72915340Y-105666922D01*
X72901476Y-105455407D01*
X72902650Y-105432232D01*
X72902334Y-105432204D01*
X72902770Y-105427344D01*
X72903576Y-105422552D01*
X72903729Y-105410000D01*
X72899773Y-105382376D01*
X72898500Y-105364514D01*
X72898500Y-95464500D01*
X72918502Y-95396379D01*
X72972158Y-95349886D01*
X73024500Y-95338500D01*
X74070406Y-95338500D01*
X74138527Y-95358502D01*
X74159501Y-95375405D01*
X77473739Y-98689644D01*
X77507765Y-98751956D01*
X77502700Y-98822772D01*
X77485470Y-98854304D01*
X77439385Y-98915795D01*
X77388255Y-99052184D01*
X77381500Y-99114366D01*
X77381500Y-100910634D01*
X77388255Y-100972816D01*
X77439385Y-101109205D01*
X77526739Y-101225761D01*
X77643295Y-101313115D01*
X77779684Y-101364245D01*
X77841866Y-101371000D01*
X77980500Y-101371000D01*
X78048621Y-101391002D01*
X78095114Y-101444658D01*
X78106500Y-101497000D01*
X78106500Y-102655500D01*
X78086498Y-102723621D01*
X78032842Y-102770114D01*
X77980500Y-102781500D01*
X77841866Y-102781500D01*
X77779684Y-102788255D01*
X77643295Y-102839385D01*
X77526739Y-102926739D01*
X77439385Y-103043295D01*
X77388255Y-103179684D01*
X77381500Y-103241866D01*
X77381500Y-105038134D01*
X77388255Y-105100316D01*
X77439385Y-105236705D01*
X77526739Y-105353261D01*
X77643295Y-105440615D01*
X77779684Y-105491745D01*
X77841866Y-105498500D01*
X79638134Y-105498500D01*
X79700316Y-105491745D01*
X79836705Y-105440615D01*
X79953261Y-105353261D01*
X80040615Y-105236705D01*
X80084798Y-105118848D01*
X80127440Y-105062084D01*
X80194001Y-105037384D01*
X80263350Y-105052592D01*
X80298017Y-105080580D01*
X80323218Y-105109673D01*
X80330580Y-105116883D01*
X80494434Y-105252916D01*
X80502881Y-105258831D01*
X80686756Y-105366279D01*
X80696042Y-105370729D01*
X80895001Y-105446703D01*
X80904899Y-105449579D01*
X81008250Y-105470606D01*
X81022299Y-105469410D01*
X81026000Y-105459065D01*
X81026000Y-105458517D01*
X81534000Y-105458517D01*
X81538064Y-105472359D01*
X81551478Y-105474393D01*
X81558184Y-105473534D01*
X81568262Y-105471392D01*
X81772255Y-105410191D01*
X81781842Y-105406433D01*
X81973095Y-105312739D01*
X81981945Y-105307464D01*
X82155328Y-105183792D01*
X82163200Y-105177139D01*
X82314052Y-105026812D01*
X82320730Y-105018965D01*
X82448022Y-104841819D01*
X82449279Y-104842722D01*
X82496373Y-104799362D01*
X82566311Y-104787145D01*
X82631751Y-104814678D01*
X82659579Y-104846511D01*
X82719987Y-104945088D01*
X82866250Y-105113938D01*
X83038126Y-105256632D01*
X83231000Y-105369338D01*
X83439692Y-105449030D01*
X83444760Y-105450061D01*
X83444763Y-105450062D01*
X83539862Y-105469410D01*
X83658597Y-105493567D01*
X83663772Y-105493757D01*
X83663774Y-105493757D01*
X83876673Y-105501564D01*
X83876677Y-105501564D01*
X83881837Y-105501753D01*
X83886957Y-105501097D01*
X83886959Y-105501097D01*
X84098288Y-105474025D01*
X84098289Y-105474025D01*
X84103416Y-105473368D01*
X84108366Y-105471883D01*
X84312429Y-105410661D01*
X84312434Y-105410659D01*
X84317384Y-105409174D01*
X84517994Y-105310896D01*
X84699860Y-105181173D01*
X84858096Y-105023489D01*
X84988453Y-104842077D01*
X84989776Y-104843028D01*
X85036645Y-104799857D01*
X85106580Y-104787625D01*
X85172026Y-104815144D01*
X85199875Y-104846994D01*
X85259987Y-104945088D01*
X85406250Y-105113938D01*
X85578126Y-105256632D01*
X85771000Y-105369338D01*
X85979692Y-105449030D01*
X85984760Y-105450061D01*
X85984763Y-105450062D01*
X86079862Y-105469410D01*
X86198597Y-105493567D01*
X86203772Y-105493757D01*
X86203774Y-105493757D01*
X86416673Y-105501564D01*
X86416677Y-105501564D01*
X86421837Y-105501753D01*
X86426957Y-105501097D01*
X86426959Y-105501097D01*
X86638288Y-105474025D01*
X86638289Y-105474025D01*
X86643416Y-105473368D01*
X86648366Y-105471883D01*
X86852429Y-105410661D01*
X86852434Y-105410659D01*
X86857384Y-105409174D01*
X87057994Y-105310896D01*
X87239860Y-105181173D01*
X87398096Y-105023489D01*
X87528453Y-104842077D01*
X87529776Y-104843028D01*
X87576645Y-104799857D01*
X87646580Y-104787625D01*
X87712026Y-104815144D01*
X87739875Y-104846994D01*
X87799987Y-104945088D01*
X87946250Y-105113938D01*
X88118126Y-105256632D01*
X88311000Y-105369338D01*
X88519692Y-105449030D01*
X88524760Y-105450061D01*
X88524763Y-105450062D01*
X88619862Y-105469410D01*
X88738597Y-105493567D01*
X88743772Y-105493757D01*
X88743774Y-105493757D01*
X88956673Y-105501564D01*
X88956677Y-105501564D01*
X88961837Y-105501753D01*
X88966957Y-105501097D01*
X88966959Y-105501097D01*
X89178288Y-105474025D01*
X89178289Y-105474025D01*
X89183416Y-105473368D01*
X89188366Y-105471883D01*
X89392429Y-105410661D01*
X89392434Y-105410659D01*
X89397384Y-105409174D01*
X89597994Y-105310896D01*
X89779860Y-105181173D01*
X89938096Y-105023489D01*
X90068453Y-104842077D01*
X90069776Y-104843028D01*
X90116645Y-104799857D01*
X90186580Y-104787625D01*
X90252026Y-104815144D01*
X90279875Y-104846994D01*
X90339987Y-104945088D01*
X90486250Y-105113938D01*
X90658126Y-105256632D01*
X90851000Y-105369338D01*
X91059692Y-105449030D01*
X91064760Y-105450061D01*
X91064763Y-105450062D01*
X91159862Y-105469410D01*
X91278597Y-105493567D01*
X91283772Y-105493757D01*
X91283774Y-105493757D01*
X91496673Y-105501564D01*
X91496677Y-105501564D01*
X91501837Y-105501753D01*
X91506957Y-105501097D01*
X91506959Y-105501097D01*
X91718288Y-105474025D01*
X91718289Y-105474025D01*
X91723416Y-105473368D01*
X91728366Y-105471883D01*
X91932429Y-105410661D01*
X91932434Y-105410659D01*
X91937384Y-105409174D01*
X92137994Y-105310896D01*
X92319860Y-105181173D01*
X92478096Y-105023489D01*
X92608453Y-104842077D01*
X92609776Y-104843028D01*
X92656645Y-104799857D01*
X92726580Y-104787625D01*
X92792026Y-104815144D01*
X92819875Y-104846994D01*
X92879987Y-104945088D01*
X93026250Y-105113938D01*
X93198126Y-105256632D01*
X93391000Y-105369338D01*
X93599692Y-105449030D01*
X93604760Y-105450061D01*
X93604763Y-105450062D01*
X93699862Y-105469410D01*
X93818597Y-105493567D01*
X93823772Y-105493757D01*
X93823774Y-105493757D01*
X94036673Y-105501564D01*
X94036677Y-105501564D01*
X94041837Y-105501753D01*
X94046957Y-105501097D01*
X94046959Y-105501097D01*
X94258288Y-105474025D01*
X94258289Y-105474025D01*
X94263416Y-105473368D01*
X94268366Y-105471883D01*
X94472429Y-105410661D01*
X94472434Y-105410659D01*
X94477384Y-105409174D01*
X94677994Y-105310896D01*
X94859860Y-105181173D01*
X95018096Y-105023489D01*
X95148453Y-104842077D01*
X95149776Y-104843028D01*
X95196645Y-104799857D01*
X95266580Y-104787625D01*
X95332026Y-104815144D01*
X95359875Y-104846994D01*
X95419987Y-104945088D01*
X95566250Y-105113938D01*
X95738126Y-105256632D01*
X95931000Y-105369338D01*
X96139692Y-105449030D01*
X96144760Y-105450061D01*
X96144763Y-105450062D01*
X96239862Y-105469410D01*
X96358597Y-105493567D01*
X96363772Y-105493757D01*
X96363774Y-105493757D01*
X96576673Y-105501564D01*
X96576677Y-105501564D01*
X96581837Y-105501753D01*
X96586957Y-105501097D01*
X96586959Y-105501097D01*
X96798288Y-105474025D01*
X96798289Y-105474025D01*
X96803416Y-105473368D01*
X96808366Y-105471883D01*
X97012429Y-105410661D01*
X97012434Y-105410659D01*
X97017384Y-105409174D01*
X97217994Y-105310896D01*
X97399860Y-105181173D01*
X97558096Y-105023489D01*
X97688453Y-104842077D01*
X97701995Y-104814678D01*
X97785136Y-104646453D01*
X97785137Y-104646451D01*
X97787430Y-104641811D01*
X97852370Y-104428069D01*
X97881529Y-104206590D01*
X97883156Y-104140000D01*
X97864852Y-103917361D01*
X97810431Y-103700702D01*
X97721354Y-103495840D01*
X97600014Y-103308277D01*
X97449670Y-103143051D01*
X97445619Y-103139852D01*
X97445615Y-103139848D01*
X97278414Y-103007800D01*
X97278410Y-103007798D01*
X97274359Y-103004598D01*
X97269831Y-103002098D01*
X97153988Y-102938150D01*
X97078789Y-102896638D01*
X97073920Y-102894914D01*
X97073916Y-102894912D01*
X96873087Y-102823795D01*
X96873083Y-102823794D01*
X96868212Y-102822069D01*
X96863119Y-102821162D01*
X96863116Y-102821161D01*
X96653373Y-102783800D01*
X96653367Y-102783799D01*
X96648284Y-102782894D01*
X96574452Y-102781992D01*
X96430081Y-102780228D01*
X96430079Y-102780228D01*
X96424911Y-102780165D01*
X96204091Y-102813955D01*
X95991756Y-102883357D01*
X95950808Y-102904673D01*
X95817975Y-102973822D01*
X95793607Y-102986507D01*
X95789474Y-102989610D01*
X95789471Y-102989612D01*
X95619100Y-103117530D01*
X95614965Y-103120635D01*
X95460629Y-103282138D01*
X95353201Y-103439621D01*
X95298293Y-103484621D01*
X95227768Y-103492792D01*
X95164021Y-103461538D01*
X95143324Y-103437054D01*
X95062822Y-103312617D01*
X95062820Y-103312614D01*
X95060014Y-103308277D01*
X94909670Y-103143051D01*
X94905619Y-103139852D01*
X94905615Y-103139848D01*
X94738414Y-103007800D01*
X94738410Y-103007798D01*
X94734359Y-103004598D01*
X94729831Y-103002098D01*
X94613988Y-102938150D01*
X94538789Y-102896638D01*
X94533920Y-102894914D01*
X94533916Y-102894912D01*
X94333087Y-102823795D01*
X94333083Y-102823794D01*
X94328212Y-102822069D01*
X94323119Y-102821162D01*
X94323116Y-102821161D01*
X94113373Y-102783800D01*
X94113367Y-102783799D01*
X94108284Y-102782894D01*
X94034452Y-102781992D01*
X93890081Y-102780228D01*
X93890079Y-102780228D01*
X93884911Y-102780165D01*
X93664091Y-102813955D01*
X93651532Y-102818060D01*
X93580568Y-102820210D01*
X93523294Y-102787389D01*
X93475405Y-102739500D01*
X93441379Y-102677188D01*
X93438500Y-102650405D01*
X93438500Y-101442074D01*
X93458502Y-101373953D01*
X93512158Y-101327460D01*
X93582432Y-101317356D01*
X93597009Y-101320506D01*
X93599692Y-101321530D01*
X93604762Y-101322561D01*
X93604767Y-101322563D01*
X93724354Y-101346893D01*
X93818597Y-101366067D01*
X93823772Y-101366257D01*
X93823774Y-101366257D01*
X94036673Y-101374064D01*
X94036677Y-101374064D01*
X94041837Y-101374253D01*
X94046957Y-101373597D01*
X94046959Y-101373597D01*
X94258288Y-101346525D01*
X94258289Y-101346525D01*
X94263416Y-101345868D01*
X94268366Y-101344383D01*
X94472429Y-101283161D01*
X94472434Y-101283159D01*
X94477384Y-101281674D01*
X94677994Y-101183396D01*
X94859860Y-101053673D01*
X95018096Y-100895989D01*
X95148453Y-100714577D01*
X95149776Y-100715528D01*
X95196645Y-100672357D01*
X95266580Y-100660125D01*
X95332026Y-100687644D01*
X95359875Y-100719494D01*
X95419987Y-100817588D01*
X95566250Y-100986438D01*
X95738126Y-101129132D01*
X95931000Y-101241838D01*
X96139692Y-101321530D01*
X96144760Y-101322561D01*
X96144763Y-101322562D01*
X96239862Y-101341910D01*
X96358597Y-101366067D01*
X96363772Y-101366257D01*
X96363774Y-101366257D01*
X96576673Y-101374064D01*
X96576677Y-101374064D01*
X96581837Y-101374253D01*
X96586957Y-101373597D01*
X96586959Y-101373597D01*
X96798288Y-101346525D01*
X96798289Y-101346525D01*
X96803416Y-101345868D01*
X96808366Y-101344383D01*
X97012429Y-101283161D01*
X97012434Y-101283159D01*
X97017384Y-101281674D01*
X97217994Y-101183396D01*
X97399860Y-101053673D01*
X97558096Y-100895989D01*
X97688453Y-100714577D01*
X97701995Y-100687178D01*
X97785136Y-100518953D01*
X97785137Y-100518951D01*
X97787430Y-100514311D01*
X97852370Y-100300569D01*
X97881529Y-100079090D01*
X97883156Y-100012500D01*
X97864852Y-99789861D01*
X97810431Y-99573202D01*
X97721354Y-99368340D01*
X97600014Y-99180777D01*
X97449670Y-99015551D01*
X97445619Y-99012352D01*
X97445615Y-99012348D01*
X97278414Y-98880300D01*
X97278410Y-98880298D01*
X97274359Y-98877098D01*
X97269831Y-98874598D01*
X97175947Y-98822772D01*
X97078789Y-98769138D01*
X97073920Y-98767414D01*
X97073916Y-98767412D01*
X96873087Y-98696295D01*
X96873083Y-98696294D01*
X96868212Y-98694569D01*
X96863119Y-98693662D01*
X96863116Y-98693661D01*
X96653373Y-98656300D01*
X96653367Y-98656299D01*
X96648284Y-98655394D01*
X96574452Y-98654492D01*
X96430081Y-98652728D01*
X96430079Y-98652728D01*
X96424911Y-98652665D01*
X96204091Y-98686455D01*
X95991756Y-98755857D01*
X95954994Y-98774994D01*
X95817975Y-98846322D01*
X95793607Y-98859007D01*
X95789474Y-98862110D01*
X95789471Y-98862112D01*
X95619100Y-98990030D01*
X95614965Y-98993135D01*
X95460629Y-99154638D01*
X95353201Y-99312121D01*
X95298293Y-99357121D01*
X95227768Y-99365292D01*
X95164021Y-99334038D01*
X95143324Y-99309554D01*
X95062822Y-99185117D01*
X95062820Y-99185114D01*
X95060014Y-99180777D01*
X94909670Y-99015551D01*
X94905619Y-99012352D01*
X94905615Y-99012348D01*
X94738414Y-98880300D01*
X94738410Y-98880298D01*
X94734359Y-98877098D01*
X94729835Y-98874601D01*
X94729831Y-98874598D01*
X94678608Y-98846322D01*
X94628636Y-98795890D01*
X94613500Y-98736013D01*
X94613500Y-97617315D01*
X94633502Y-97549194D01*
X94667230Y-97514102D01*
X94755264Y-97452460D01*
X94759776Y-97449301D01*
X94909301Y-97299776D01*
X95030589Y-97126558D01*
X95119956Y-96934910D01*
X95174686Y-96730655D01*
X95193116Y-96520000D01*
X95174686Y-96309345D01*
X95119956Y-96105090D01*
X95030589Y-95913442D01*
X94909301Y-95740224D01*
X94759776Y-95590699D01*
X94586558Y-95469411D01*
X94581580Y-95467090D01*
X94581577Y-95467088D01*
X94399892Y-95382367D01*
X94399891Y-95382366D01*
X94394910Y-95380044D01*
X94389602Y-95378622D01*
X94389600Y-95378621D01*
X94195970Y-95326738D01*
X94195968Y-95326738D01*
X94190655Y-95325314D01*
X93980000Y-95306884D01*
X93769345Y-95325314D01*
X93764032Y-95326738D01*
X93764030Y-95326738D01*
X93570400Y-95378621D01*
X93570398Y-95378622D01*
X93565090Y-95380044D01*
X93560109Y-95382366D01*
X93560108Y-95382367D01*
X93378423Y-95467088D01*
X93378420Y-95467090D01*
X93373442Y-95469411D01*
X93200224Y-95590699D01*
X93050699Y-95740224D01*
X92929411Y-95913442D01*
X92840044Y-96105090D01*
X92838622Y-96110398D01*
X92838621Y-96110400D01*
X92831707Y-96136204D01*
X92794755Y-96196827D01*
X92730894Y-96227848D01*
X92660400Y-96219420D01*
X92605653Y-96174217D01*
X92588293Y-96136204D01*
X92581379Y-96110400D01*
X92581378Y-96110398D01*
X92579956Y-96105090D01*
X92490589Y-95913442D01*
X92369301Y-95740224D01*
X92219776Y-95590699D01*
X92046558Y-95469411D01*
X92041580Y-95467090D01*
X92041577Y-95467088D01*
X91859892Y-95382367D01*
X91859891Y-95382366D01*
X91854910Y-95380044D01*
X91849602Y-95378622D01*
X91849600Y-95378621D01*
X91655970Y-95326738D01*
X91655968Y-95326738D01*
X91650655Y-95325314D01*
X91440000Y-95306884D01*
X91229345Y-95325314D01*
X91224032Y-95326738D01*
X91224030Y-95326738D01*
X91030400Y-95378621D01*
X91030398Y-95378622D01*
X91025090Y-95380044D01*
X91020109Y-95382366D01*
X91020108Y-95382367D01*
X90838423Y-95467088D01*
X90838420Y-95467090D01*
X90833442Y-95469411D01*
X90660224Y-95590699D01*
X90510699Y-95740224D01*
X90389411Y-95913442D01*
X90300044Y-96105090D01*
X90245314Y-96309345D01*
X90226884Y-96520000D01*
X90245314Y-96730655D01*
X90300044Y-96934910D01*
X90389411Y-97126558D01*
X90510699Y-97299776D01*
X90660224Y-97449301D01*
X90833442Y-97570589D01*
X90838420Y-97572910D01*
X90838423Y-97572912D01*
X90933646Y-97617315D01*
X91025090Y-97659956D01*
X91030398Y-97661378D01*
X91030400Y-97661379D01*
X91224030Y-97713262D01*
X91224032Y-97713262D01*
X91229345Y-97714686D01*
X91440000Y-97733116D01*
X91650655Y-97714686D01*
X91655971Y-97713262D01*
X91660563Y-97712452D01*
X91731123Y-97720321D01*
X91771539Y-97747443D01*
X92134595Y-98110499D01*
X92168621Y-98172811D01*
X92171500Y-98199594D01*
X92171500Y-98652455D01*
X92151498Y-98720576D01*
X92097842Y-98767069D01*
X92027568Y-98777173D01*
X91998892Y-98768847D01*
X91998789Y-98769138D01*
X91793087Y-98696295D01*
X91793083Y-98696294D01*
X91788212Y-98694569D01*
X91783119Y-98693662D01*
X91783116Y-98693661D01*
X91573373Y-98656300D01*
X91573367Y-98656299D01*
X91568284Y-98655394D01*
X91494452Y-98654492D01*
X91350081Y-98652728D01*
X91350079Y-98652728D01*
X91344911Y-98652665D01*
X91124091Y-98686455D01*
X90911756Y-98755857D01*
X90874994Y-98774994D01*
X90737975Y-98846322D01*
X90713607Y-98859007D01*
X90709474Y-98862110D01*
X90709471Y-98862112D01*
X90539100Y-98990030D01*
X90534965Y-98993135D01*
X90380629Y-99154638D01*
X90273201Y-99312121D01*
X90218293Y-99357121D01*
X90147768Y-99365292D01*
X90084021Y-99334038D01*
X90063324Y-99309554D01*
X89982822Y-99185117D01*
X89982820Y-99185114D01*
X89980014Y-99180777D01*
X89829670Y-99015551D01*
X89825619Y-99012352D01*
X89825615Y-99012348D01*
X89658414Y-98880300D01*
X89658410Y-98880298D01*
X89654359Y-98877098D01*
X89649831Y-98874598D01*
X89555947Y-98822772D01*
X89458789Y-98769138D01*
X89453920Y-98767414D01*
X89453916Y-98767412D01*
X89253087Y-98696295D01*
X89253083Y-98696294D01*
X89248212Y-98694569D01*
X89243119Y-98693662D01*
X89243116Y-98693661D01*
X89033373Y-98656300D01*
X89033367Y-98656299D01*
X89028284Y-98655394D01*
X88954452Y-98654492D01*
X88810081Y-98652728D01*
X88810079Y-98652728D01*
X88804911Y-98652665D01*
X88584091Y-98686455D01*
X88371756Y-98755857D01*
X88334994Y-98774994D01*
X88197975Y-98846322D01*
X88173607Y-98859007D01*
X88169474Y-98862110D01*
X88169471Y-98862112D01*
X87999100Y-98990030D01*
X87994965Y-98993135D01*
X87840629Y-99154638D01*
X87733201Y-99312121D01*
X87678293Y-99357121D01*
X87607768Y-99365292D01*
X87544021Y-99334038D01*
X87523324Y-99309554D01*
X87442822Y-99185117D01*
X87442820Y-99185114D01*
X87440014Y-99180777D01*
X87289670Y-99015551D01*
X87285619Y-99012352D01*
X87285615Y-99012348D01*
X87118414Y-98880300D01*
X87118410Y-98880298D01*
X87114359Y-98877098D01*
X87109831Y-98874598D01*
X87015947Y-98822772D01*
X86918789Y-98769138D01*
X86913920Y-98767414D01*
X86913916Y-98767412D01*
X86713087Y-98696295D01*
X86713083Y-98696294D01*
X86708212Y-98694569D01*
X86703119Y-98693662D01*
X86703116Y-98693661D01*
X86493373Y-98656300D01*
X86493367Y-98656299D01*
X86488284Y-98655394D01*
X86414452Y-98654492D01*
X86270081Y-98652728D01*
X86270079Y-98652728D01*
X86264911Y-98652665D01*
X86044091Y-98686455D01*
X85831756Y-98755857D01*
X85794994Y-98774994D01*
X85657975Y-98846322D01*
X85633607Y-98859007D01*
X85629474Y-98862110D01*
X85629471Y-98862112D01*
X85459100Y-98990030D01*
X85454965Y-98993135D01*
X85300629Y-99154638D01*
X85193201Y-99312121D01*
X85138293Y-99357121D01*
X85067768Y-99365292D01*
X85004021Y-99334038D01*
X84983324Y-99309554D01*
X84902822Y-99185117D01*
X84902820Y-99185114D01*
X84900014Y-99180777D01*
X84749670Y-99015551D01*
X84745619Y-99012352D01*
X84745615Y-99012348D01*
X84578414Y-98880300D01*
X84578410Y-98880298D01*
X84574359Y-98877098D01*
X84569831Y-98874598D01*
X84475947Y-98822772D01*
X84378789Y-98769138D01*
X84373920Y-98767414D01*
X84373916Y-98767412D01*
X84173087Y-98696295D01*
X84173083Y-98696294D01*
X84168212Y-98694569D01*
X84163119Y-98693662D01*
X84163116Y-98693661D01*
X83953373Y-98656300D01*
X83953367Y-98656299D01*
X83948284Y-98655394D01*
X83874452Y-98654492D01*
X83730081Y-98652728D01*
X83730079Y-98652728D01*
X83724911Y-98652665D01*
X83504091Y-98686455D01*
X83291756Y-98755857D01*
X83254994Y-98774994D01*
X83117975Y-98846322D01*
X83093607Y-98859007D01*
X83089474Y-98862110D01*
X83089471Y-98862112D01*
X82919100Y-98990030D01*
X82914965Y-98993135D01*
X82760629Y-99154638D01*
X82653204Y-99312118D01*
X82652898Y-99312566D01*
X82597987Y-99357569D01*
X82527462Y-99365740D01*
X82463715Y-99334486D01*
X82443018Y-99310002D01*
X82362426Y-99185426D01*
X82356136Y-99177257D01*
X82212806Y-99019740D01*
X82205273Y-99012715D01*
X82038139Y-98880722D01*
X82029552Y-98875017D01*
X81843117Y-98772099D01*
X81833705Y-98767869D01*
X81632959Y-98696780D01*
X81622988Y-98694146D01*
X81551837Y-98681472D01*
X81538540Y-98682932D01*
X81534000Y-98697489D01*
X81534000Y-101331017D01*
X81538064Y-101344859D01*
X81551478Y-101346893D01*
X81558184Y-101346034D01*
X81568262Y-101343892D01*
X81772255Y-101282691D01*
X81781842Y-101278933D01*
X81973095Y-101185239D01*
X81981945Y-101179964D01*
X82155328Y-101056292D01*
X82163200Y-101049639D01*
X82314052Y-100899312D01*
X82320730Y-100891465D01*
X82448022Y-100714319D01*
X82449279Y-100715222D01*
X82496373Y-100671862D01*
X82566311Y-100659645D01*
X82631751Y-100687178D01*
X82659579Y-100719011D01*
X82719987Y-100817588D01*
X82866250Y-100986438D01*
X83038126Y-101129132D01*
X83042593Y-101131742D01*
X83124070Y-101179353D01*
X83172794Y-101230991D01*
X83186500Y-101288141D01*
X83186500Y-102861692D01*
X83166498Y-102929813D01*
X83118683Y-102973453D01*
X83093607Y-102986507D01*
X83089474Y-102989610D01*
X83089471Y-102989612D01*
X82919100Y-103117530D01*
X82914965Y-103120635D01*
X82760629Y-103282138D01*
X82653204Y-103439618D01*
X82652898Y-103440066D01*
X82597987Y-103485069D01*
X82527462Y-103493240D01*
X82463715Y-103461986D01*
X82443018Y-103437502D01*
X82362426Y-103312926D01*
X82356136Y-103304757D01*
X82212806Y-103147240D01*
X82205273Y-103140215D01*
X82038139Y-103008222D01*
X82029552Y-103002517D01*
X81843117Y-102899599D01*
X81833705Y-102895369D01*
X81632959Y-102824280D01*
X81622988Y-102821646D01*
X81551837Y-102808972D01*
X81538540Y-102810432D01*
X81534000Y-102824989D01*
X81534000Y-105458517D01*
X81026000Y-105458517D01*
X81026000Y-102823102D01*
X81022082Y-102809758D01*
X81007806Y-102807771D01*
X80969324Y-102813660D01*
X80959288Y-102816051D01*
X80756868Y-102882212D01*
X80747359Y-102886209D01*
X80558463Y-102984542D01*
X80549738Y-102990036D01*
X80379433Y-103117905D01*
X80371726Y-103124748D01*
X80294478Y-103205584D01*
X80232954Y-103241014D01*
X80162042Y-103237557D01*
X80104255Y-103196311D01*
X80085402Y-103162763D01*
X80043767Y-103051703D01*
X80040615Y-103043295D01*
X79953261Y-102926739D01*
X79836705Y-102839385D01*
X79700316Y-102788255D01*
X79638134Y-102781500D01*
X79499500Y-102781500D01*
X79431379Y-102761498D01*
X79384886Y-102707842D01*
X79373500Y-102655500D01*
X79373500Y-101497000D01*
X79393502Y-101428879D01*
X79447158Y-101382386D01*
X79499500Y-101371000D01*
X79638134Y-101371000D01*
X79700316Y-101364245D01*
X79836705Y-101313115D01*
X79953261Y-101225761D01*
X80040615Y-101109205D01*
X80084798Y-100991348D01*
X80127440Y-100934584D01*
X80194001Y-100909884D01*
X80263350Y-100925092D01*
X80298017Y-100953080D01*
X80323218Y-100982173D01*
X80330580Y-100989383D01*
X80494434Y-101125416D01*
X80502881Y-101131331D01*
X80686756Y-101238779D01*
X80696042Y-101243229D01*
X80895001Y-101319203D01*
X80904899Y-101322079D01*
X81008250Y-101343106D01*
X81022299Y-101341910D01*
X81026000Y-101331565D01*
X81026000Y-98695602D01*
X81022082Y-98682258D01*
X81007806Y-98680271D01*
X80969324Y-98686160D01*
X80959288Y-98688551D01*
X80756868Y-98754712D01*
X80747359Y-98758709D01*
X80558463Y-98857042D01*
X80549738Y-98862536D01*
X80379433Y-98990405D01*
X80371726Y-98997248D01*
X80294478Y-99078084D01*
X80232954Y-99113514D01*
X80162042Y-99110057D01*
X80104255Y-99068811D01*
X80085402Y-99035263D01*
X80043767Y-98924203D01*
X80040615Y-98915795D01*
X79953261Y-98799239D01*
X79836705Y-98711885D01*
X79700316Y-98660755D01*
X79638134Y-98654000D01*
X79287846Y-98654000D01*
X79219725Y-98633998D01*
X79205843Y-98622445D01*
X79205472Y-98622893D01*
X79171395Y-98594702D01*
X79162616Y-98586712D01*
X75055405Y-94479500D01*
X75021379Y-94417188D01*
X75018500Y-94390405D01*
X75018500Y-93081866D01*
X75011745Y-93019684D01*
X74960615Y-92883295D01*
X74873261Y-92766739D01*
X74756705Y-92679385D01*
X74637687Y-92634767D01*
X74580923Y-92592125D01*
X74556223Y-92525564D01*
X74571430Y-92456215D01*
X74592977Y-92427535D01*
X74694052Y-92326812D01*
X74700730Y-92318965D01*
X74825003Y-92146020D01*
X74830313Y-92137183D01*
X74924670Y-91946267D01*
X74928469Y-91936672D01*
X74990377Y-91732910D01*
X74992555Y-91722837D01*
X74993986Y-91711962D01*
X74991775Y-91697778D01*
X74978617Y-91694000D01*
X73532000Y-91694000D01*
X73463879Y-91673998D01*
X73417386Y-91620342D01*
X73406000Y-91568000D01*
X73406000Y-91312000D01*
X73426002Y-91243879D01*
X73479658Y-91197386D01*
X73532000Y-91186000D01*
X74978344Y-91186000D01*
X74991875Y-91182027D01*
X74993180Y-91172947D01*
X74951214Y-91005875D01*
X74947894Y-90996124D01*
X74862972Y-90800814D01*
X74858105Y-90791739D01*
X74742426Y-90612926D01*
X74736136Y-90604757D01*
X74592806Y-90447240D01*
X74585273Y-90440215D01*
X74418139Y-90308222D01*
X74409556Y-90302520D01*
X74372602Y-90282120D01*
X74322631Y-90231687D01*
X74307859Y-90162245D01*
X74332975Y-90095839D01*
X74360327Y-90069232D01*
X74383797Y-90052491D01*
X74539860Y-89941173D01*
X74698096Y-89783489D01*
X74757594Y-89700689D01*
X74825435Y-89606277D01*
X74828453Y-89602077D01*
X74860837Y-89536554D01*
X74925136Y-89406453D01*
X74925137Y-89406451D01*
X74927430Y-89401811D01*
X74992370Y-89188069D01*
X75021529Y-88966590D01*
X75023156Y-88900000D01*
X75004852Y-88677361D01*
X74950431Y-88460702D01*
X74861354Y-88255840D01*
X74740014Y-88068277D01*
X74589670Y-87903051D01*
X74585619Y-87899852D01*
X74585615Y-87899848D01*
X74418414Y-87767800D01*
X74418410Y-87767798D01*
X74414359Y-87764598D01*
X74373053Y-87741796D01*
X74323084Y-87691364D01*
X74308312Y-87621921D01*
X74333428Y-87555516D01*
X74360780Y-87528909D01*
X74425497Y-87482747D01*
X74539860Y-87401173D01*
X74698096Y-87243489D01*
X74757594Y-87160689D01*
X74825435Y-87066277D01*
X74828453Y-87062077D01*
X74927430Y-86861811D01*
X74992370Y-86648069D01*
X75021529Y-86426590D01*
X75023156Y-86360000D01*
X75004852Y-86137361D01*
X74950431Y-85920702D01*
X74861354Y-85715840D01*
X74740014Y-85528277D01*
X74589670Y-85363051D01*
X74585619Y-85359852D01*
X74585615Y-85359848D01*
X74418414Y-85227800D01*
X74418410Y-85227798D01*
X74414359Y-85224598D01*
X74373053Y-85201796D01*
X74323084Y-85151364D01*
X74308312Y-85081921D01*
X74333428Y-85015516D01*
X74360780Y-84988909D01*
X74421500Y-84945598D01*
X74539860Y-84861173D01*
X74698096Y-84703489D01*
X74721961Y-84670278D01*
X74825435Y-84526277D01*
X74828453Y-84522077D01*
X74830746Y-84517437D01*
X74832446Y-84514608D01*
X74884674Y-84466518D01*
X74940451Y-84453500D01*
X78912685Y-84453500D01*
X78980806Y-84473502D01*
X79015898Y-84507230D01*
X79080699Y-84599776D01*
X79230224Y-84749301D01*
X79403442Y-84870589D01*
X79408420Y-84872910D01*
X79408423Y-84872912D01*
X79564299Y-84945598D01*
X79595090Y-84959956D01*
X79600398Y-84961378D01*
X79600400Y-84961379D01*
X79794030Y-85013262D01*
X79794032Y-85013262D01*
X79799345Y-85014686D01*
X80010000Y-85033116D01*
X80220655Y-85014686D01*
X80225968Y-85013262D01*
X80225970Y-85013262D01*
X80419600Y-84961379D01*
X80419602Y-84961378D01*
X80424910Y-84959956D01*
X80455701Y-84945598D01*
X80611577Y-84872912D01*
X80611580Y-84872910D01*
X80616558Y-84870589D01*
X80789776Y-84749301D01*
X80939301Y-84599776D01*
X81060589Y-84426558D01*
X81063643Y-84420010D01*
X81147633Y-84239892D01*
X81147634Y-84239891D01*
X81149956Y-84234910D01*
X81168694Y-84164981D01*
X81203262Y-84035970D01*
X81203262Y-84035968D01*
X81204686Y-84030655D01*
X81223116Y-83820000D01*
X81204686Y-83609345D01*
X81149956Y-83405090D01*
X81060589Y-83213442D01*
X80939301Y-83040224D01*
X80789776Y-82890699D01*
X80616558Y-82769411D01*
X80611580Y-82767090D01*
X80611577Y-82767088D01*
X80429892Y-82682367D01*
X80429891Y-82682366D01*
X80424910Y-82680044D01*
X80419602Y-82678622D01*
X80419600Y-82678621D01*
X80393796Y-82671707D01*
X80333173Y-82634755D01*
X80302152Y-82570894D01*
X80310580Y-82500400D01*
X80355783Y-82445653D01*
X80393796Y-82428293D01*
X80419600Y-82421379D01*
X80419602Y-82421378D01*
X80424910Y-82419956D01*
X80470213Y-82398831D01*
X80611577Y-82332912D01*
X80611580Y-82332910D01*
X80616558Y-82330589D01*
X80789776Y-82209301D01*
X80939301Y-82059776D01*
X81060589Y-81886558D01*
X81114009Y-81772000D01*
X81147633Y-81699892D01*
X81147634Y-81699891D01*
X81149956Y-81694910D01*
X81174037Y-81605041D01*
X81203262Y-81495970D01*
X81203262Y-81495968D01*
X81204686Y-81490655D01*
X81223116Y-81280000D01*
X81204686Y-81069345D01*
X81190820Y-81017595D01*
X81151379Y-80870400D01*
X81151378Y-80870398D01*
X81149956Y-80865090D01*
X81147631Y-80860103D01*
X81129296Y-80820783D01*
X81118635Y-80750592D01*
X81147615Y-80685779D01*
X81207035Y-80646923D01*
X81278030Y-80646360D01*
X81332586Y-80678439D01*
X85643055Y-84988909D01*
X89946399Y-89292253D01*
X89953939Y-89300539D01*
X89958051Y-89307018D01*
X89963828Y-89312443D01*
X90007702Y-89353643D01*
X90010544Y-89356398D01*
X90030281Y-89376135D01*
X90033478Y-89378615D01*
X90042498Y-89386318D01*
X90074730Y-89416586D01*
X90081676Y-89420405D01*
X90081679Y-89420407D01*
X90092485Y-89426348D01*
X90109004Y-89437199D01*
X90125010Y-89449614D01*
X90132279Y-89452759D01*
X90132283Y-89452762D01*
X90165588Y-89467174D01*
X90176238Y-89472391D01*
X90214991Y-89493695D01*
X90222666Y-89495666D01*
X90222667Y-89495666D01*
X90234613Y-89498733D01*
X90253318Y-89505137D01*
X90271906Y-89513181D01*
X90279729Y-89514420D01*
X90279739Y-89514423D01*
X90315575Y-89520099D01*
X90327195Y-89522505D01*
X90370020Y-89533500D01*
X90369236Y-89536554D01*
X90420907Y-89559093D01*
X90443245Y-89583442D01*
X90507536Y-89675260D01*
X90507541Y-89675266D01*
X90510699Y-89679776D01*
X90660224Y-89829301D01*
X90833442Y-89950589D01*
X90838420Y-89952910D01*
X90838423Y-89952912D01*
X90994299Y-90025598D01*
X91025090Y-90039956D01*
X91030398Y-90041378D01*
X91030400Y-90041379D01*
X91224030Y-90093262D01*
X91224032Y-90093262D01*
X91229345Y-90094686D01*
X91440000Y-90113116D01*
X91650655Y-90094686D01*
X91655968Y-90093262D01*
X91655970Y-90093262D01*
X91849600Y-90041379D01*
X91849602Y-90041378D01*
X91854910Y-90039956D01*
X91885701Y-90025598D01*
X92041577Y-89952912D01*
X92041580Y-89952910D01*
X92046558Y-89950589D01*
X92219776Y-89829301D01*
X92369301Y-89679776D01*
X92490589Y-89506558D01*
X92517143Y-89449614D01*
X92577633Y-89319892D01*
X92577634Y-89319891D01*
X92579956Y-89314910D01*
X92588293Y-89283796D01*
X92625245Y-89223173D01*
X92689106Y-89192152D01*
X92759600Y-89200580D01*
X92814347Y-89245783D01*
X92831707Y-89283796D01*
X92840044Y-89314910D01*
X92842366Y-89319891D01*
X92842367Y-89319892D01*
X92902858Y-89449614D01*
X92929411Y-89506558D01*
X93050699Y-89679776D01*
X93200224Y-89829301D01*
X93373442Y-89950589D01*
X93378420Y-89952910D01*
X93378423Y-89952912D01*
X93534299Y-90025598D01*
X93565090Y-90039956D01*
X93570398Y-90041378D01*
X93570400Y-90041379D01*
X93764030Y-90093262D01*
X93764032Y-90093262D01*
X93769345Y-90094686D01*
X93980000Y-90113116D01*
X94190655Y-90094686D01*
X94195968Y-90093262D01*
X94195970Y-90093262D01*
X94389600Y-90041379D01*
X94389602Y-90041378D01*
X94394910Y-90039956D01*
X94425701Y-90025598D01*
X94581577Y-89952912D01*
X94581580Y-89952910D01*
X94586558Y-89950589D01*
X94759776Y-89829301D01*
X94909301Y-89679776D01*
X95030589Y-89506558D01*
X95057143Y-89449614D01*
X95117633Y-89319892D01*
X95117634Y-89319891D01*
X95119956Y-89314910D01*
X95174686Y-89110655D01*
X95193116Y-88900000D01*
X95174686Y-88689345D01*
X95119956Y-88485090D01*
X95030589Y-88293442D01*
X94909301Y-88120224D01*
X94759776Y-87970699D01*
X94586558Y-87849411D01*
X94581580Y-87847090D01*
X94581577Y-87847088D01*
X94399892Y-87762367D01*
X94399891Y-87762366D01*
X94394910Y-87760044D01*
X94389602Y-87758622D01*
X94389600Y-87758621D01*
X94195970Y-87706738D01*
X94195968Y-87706738D01*
X94190655Y-87705314D01*
X93980000Y-87686884D01*
X93974525Y-87687363D01*
X93774816Y-87704835D01*
X93774812Y-87704836D01*
X93769345Y-87705314D01*
X93764039Y-87706736D01*
X93759439Y-87707547D01*
X93688879Y-87699679D01*
X93648462Y-87672557D01*
X93458652Y-87482747D01*
X93451112Y-87474461D01*
X93447000Y-87467982D01*
X93397348Y-87421356D01*
X93394507Y-87418602D01*
X93374770Y-87398865D01*
X93371573Y-87396385D01*
X93362551Y-87388680D01*
X93336100Y-87363841D01*
X93330321Y-87358414D01*
X93323375Y-87354595D01*
X93323372Y-87354593D01*
X93312566Y-87348652D01*
X93296047Y-87337801D01*
X93295324Y-87337240D01*
X93280041Y-87325386D01*
X93272772Y-87322241D01*
X93272768Y-87322238D01*
X93239463Y-87307826D01*
X93228813Y-87302609D01*
X93190060Y-87281305D01*
X93170437Y-87276267D01*
X93151734Y-87269863D01*
X93140420Y-87264967D01*
X93140419Y-87264967D01*
X93133145Y-87261819D01*
X93125322Y-87260580D01*
X93125312Y-87260577D01*
X93089476Y-87254901D01*
X93077856Y-87252495D01*
X93042711Y-87243472D01*
X93042710Y-87243472D01*
X93035030Y-87241500D01*
X93014776Y-87241500D01*
X92995065Y-87239949D01*
X92982886Y-87238020D01*
X92975057Y-87236780D01*
X92967165Y-87237526D01*
X92931039Y-87240941D01*
X92919181Y-87241500D01*
X90376042Y-87241500D01*
X90307921Y-87221498D01*
X90286947Y-87204595D01*
X88438874Y-85356522D01*
X91530801Y-85356522D01*
X91569092Y-85499423D01*
X91572842Y-85509727D01*
X91657521Y-85691323D01*
X91662998Y-85700811D01*
X91777925Y-85864942D01*
X91784981Y-85873350D01*
X91926650Y-86015019D01*
X91935058Y-86022075D01*
X92099189Y-86137002D01*
X92108677Y-86142479D01*
X92290273Y-86227158D01*
X92300577Y-86230908D01*
X92438503Y-86267866D01*
X92452599Y-86267530D01*
X92456000Y-86259588D01*
X92456000Y-86254439D01*
X92964000Y-86254439D01*
X92967973Y-86267970D01*
X92976522Y-86269199D01*
X93119423Y-86230908D01*
X93129727Y-86227158D01*
X93311323Y-86142479D01*
X93320811Y-86137002D01*
X93484942Y-86022075D01*
X93493350Y-86015019D01*
X93635019Y-85873350D01*
X93642075Y-85864942D01*
X93757002Y-85700811D01*
X93762479Y-85691323D01*
X93847158Y-85509727D01*
X93850908Y-85499423D01*
X93887866Y-85361497D01*
X93887747Y-85356522D01*
X96610801Y-85356522D01*
X96649092Y-85499423D01*
X96652842Y-85509727D01*
X96737521Y-85691323D01*
X96742998Y-85700811D01*
X96857925Y-85864942D01*
X96864981Y-85873350D01*
X97006650Y-86015019D01*
X97015058Y-86022075D01*
X97179189Y-86137002D01*
X97188677Y-86142479D01*
X97370273Y-86227158D01*
X97380577Y-86230908D01*
X97518503Y-86267866D01*
X97532599Y-86267530D01*
X97536000Y-86259588D01*
X97536000Y-86254439D01*
X98044000Y-86254439D01*
X98047973Y-86267970D01*
X98056522Y-86269199D01*
X98199423Y-86230908D01*
X98209727Y-86227158D01*
X98391323Y-86142479D01*
X98400811Y-86137002D01*
X98564942Y-86022075D01*
X98573350Y-86015019D01*
X98715019Y-85873350D01*
X98722075Y-85864942D01*
X98837002Y-85700811D01*
X98842479Y-85691323D01*
X98927158Y-85509727D01*
X98930908Y-85499423D01*
X98967866Y-85361497D01*
X98967530Y-85347401D01*
X98959588Y-85344000D01*
X98062115Y-85344000D01*
X98046876Y-85348475D01*
X98045671Y-85349865D01*
X98044000Y-85357548D01*
X98044000Y-86254439D01*
X97536000Y-86254439D01*
X97536000Y-85362115D01*
X97531525Y-85346876D01*
X97530135Y-85345671D01*
X97522452Y-85344000D01*
X96625561Y-85344000D01*
X96612030Y-85347973D01*
X96610801Y-85356522D01*
X93887747Y-85356522D01*
X93887530Y-85347401D01*
X93879588Y-85344000D01*
X92982115Y-85344000D01*
X92966876Y-85348475D01*
X92965671Y-85349865D01*
X92964000Y-85357548D01*
X92964000Y-86254439D01*
X92456000Y-86254439D01*
X92456000Y-85362115D01*
X92451525Y-85346876D01*
X92450135Y-85345671D01*
X92442452Y-85344000D01*
X91545561Y-85344000D01*
X91532030Y-85347973D01*
X91530801Y-85356522D01*
X88438874Y-85356522D01*
X88170377Y-85088025D01*
X88136351Y-85025713D01*
X88141416Y-84954898D01*
X88183963Y-84898062D01*
X88206222Y-84884735D01*
X88231577Y-84872912D01*
X88231580Y-84872910D01*
X88236558Y-84870589D01*
X88409776Y-84749301D01*
X88559301Y-84599776D01*
X88624102Y-84507230D01*
X88679559Y-84462901D01*
X88727315Y-84453500D01*
X91476145Y-84453500D01*
X91544266Y-84473502D01*
X91590759Y-84527158D01*
X91600863Y-84597432D01*
X91590340Y-84632750D01*
X91572841Y-84670278D01*
X91569092Y-84680577D01*
X91532134Y-84818503D01*
X91532470Y-84832599D01*
X91540412Y-84836000D01*
X93874439Y-84836000D01*
X93887970Y-84832027D01*
X93889199Y-84823478D01*
X93887866Y-84818503D01*
X96612134Y-84818503D01*
X96612470Y-84832599D01*
X96620412Y-84836000D01*
X97517885Y-84836000D01*
X97533124Y-84831525D01*
X97534329Y-84830135D01*
X97536000Y-84822452D01*
X97536000Y-84817885D01*
X98044000Y-84817885D01*
X98048475Y-84833124D01*
X98049865Y-84834329D01*
X98057548Y-84836000D01*
X98954439Y-84836000D01*
X98967970Y-84832027D01*
X98969199Y-84823478D01*
X98930908Y-84680577D01*
X98927158Y-84670273D01*
X98842479Y-84488677D01*
X98837002Y-84479189D01*
X98722075Y-84315058D01*
X98715019Y-84306650D01*
X98573350Y-84164981D01*
X98564942Y-84157925D01*
X98400811Y-84042998D01*
X98391323Y-84037521D01*
X98209727Y-83952842D01*
X98199423Y-83949092D01*
X98061497Y-83912134D01*
X98047401Y-83912470D01*
X98044000Y-83920412D01*
X98044000Y-84817885D01*
X97536000Y-84817885D01*
X97536000Y-83925561D01*
X97532027Y-83912030D01*
X97523478Y-83910801D01*
X97380577Y-83949092D01*
X97370273Y-83952842D01*
X97188677Y-84037521D01*
X97179189Y-84042998D01*
X97015058Y-84157925D01*
X97006650Y-84164981D01*
X96864981Y-84306650D01*
X96857925Y-84315058D01*
X96742998Y-84479189D01*
X96737521Y-84488677D01*
X96652842Y-84670273D01*
X96649092Y-84680577D01*
X96612134Y-84818503D01*
X93887866Y-84818503D01*
X93850908Y-84680577D01*
X93847158Y-84670273D01*
X93830355Y-84634239D01*
X93819694Y-84564047D01*
X93848675Y-84499235D01*
X93908095Y-84460379D01*
X93940591Y-84455052D01*
X93987986Y-84453562D01*
X93991945Y-84453500D01*
X94019856Y-84453500D01*
X94023791Y-84453003D01*
X94023856Y-84452995D01*
X94035693Y-84452062D01*
X94067951Y-84451048D01*
X94071970Y-84450922D01*
X94079889Y-84450673D01*
X94099343Y-84445021D01*
X94118700Y-84441013D01*
X94130930Y-84439468D01*
X94130931Y-84439468D01*
X94138797Y-84438474D01*
X94146168Y-84435555D01*
X94146170Y-84435555D01*
X94179912Y-84422196D01*
X94191142Y-84418351D01*
X94225983Y-84408229D01*
X94225984Y-84408229D01*
X94233593Y-84406018D01*
X94240412Y-84401985D01*
X94240417Y-84401983D01*
X94251028Y-84395707D01*
X94268776Y-84387012D01*
X94287617Y-84379552D01*
X94323387Y-84353564D01*
X94333307Y-84347048D01*
X94364535Y-84328580D01*
X94364538Y-84328578D01*
X94371362Y-84324542D01*
X94385683Y-84310221D01*
X94400717Y-84297380D01*
X94410694Y-84290131D01*
X94417107Y-84285472D01*
X94445298Y-84251395D01*
X94453288Y-84242616D01*
X96912247Y-81783657D01*
X96920537Y-81776113D01*
X96927018Y-81772000D01*
X96973659Y-81722332D01*
X96976413Y-81719491D01*
X96996134Y-81699770D01*
X96998612Y-81696575D01*
X97006318Y-81687553D01*
X97031158Y-81661101D01*
X97036586Y-81655321D01*
X97046346Y-81637568D01*
X97057199Y-81621045D01*
X97064753Y-81611306D01*
X97069613Y-81605041D01*
X97087176Y-81564457D01*
X97092383Y-81553827D01*
X97113695Y-81515060D01*
X97115666Y-81507383D01*
X97115668Y-81507378D01*
X97118732Y-81495442D01*
X97125138Y-81476730D01*
X97130034Y-81465417D01*
X97133181Y-81458145D01*
X97140097Y-81414481D01*
X97142504Y-81402860D01*
X97151528Y-81367711D01*
X97151528Y-81367710D01*
X97153500Y-81360030D01*
X97153500Y-81339769D01*
X97155051Y-81320058D01*
X97156979Y-81307885D01*
X97158219Y-81300057D01*
X97154059Y-81256046D01*
X97153500Y-81244189D01*
X97153500Y-78704408D01*
X97173502Y-78636287D01*
X97227158Y-78589794D01*
X97297432Y-78579690D01*
X97332749Y-78590213D01*
X97370103Y-78607631D01*
X97370108Y-78607633D01*
X97375090Y-78609956D01*
X97380398Y-78611378D01*
X97380400Y-78611379D01*
X97574030Y-78663262D01*
X97574032Y-78663262D01*
X97579345Y-78664686D01*
X97790000Y-78683116D01*
X98000655Y-78664686D01*
X98005968Y-78663262D01*
X98005970Y-78663262D01*
X98199600Y-78611379D01*
X98199602Y-78611378D01*
X98204910Y-78609956D01*
X98269816Y-78579690D01*
X98391577Y-78522912D01*
X98391580Y-78522910D01*
X98396558Y-78520589D01*
X98569776Y-78399301D01*
X98719301Y-78249776D01*
X98840589Y-78076558D01*
X98845196Y-78066680D01*
X98927633Y-77889892D01*
X98927634Y-77889891D01*
X98929956Y-77884910D01*
X98973974Y-77720635D01*
X98983262Y-77685970D01*
X98983262Y-77685968D01*
X98984686Y-77680655D01*
X99003116Y-77470000D01*
X98984686Y-77259345D01*
X98979817Y-77241173D01*
X98931379Y-77060400D01*
X98931378Y-77060398D01*
X98929956Y-77055090D01*
X98905790Y-77003266D01*
X98842912Y-76868423D01*
X98842910Y-76868420D01*
X98840589Y-76863442D01*
X98719301Y-76690224D01*
X98569776Y-76540699D01*
X98477230Y-76475898D01*
X98432901Y-76420441D01*
X98423500Y-76372685D01*
X98423500Y-73492206D01*
X98443502Y-73424085D01*
X98470547Y-73394010D01*
X98511800Y-73360842D01*
X98511805Y-73360837D01*
X98516601Y-73356981D01*
X98646881Y-73201719D01*
X98649845Y-73196327D01*
X98649848Y-73196323D01*
X98741556Y-73029506D01*
X98744523Y-73024109D01*
X98805807Y-72830916D01*
X98823500Y-72673183D01*
X98823500Y-72113996D01*
X98808723Y-71963287D01*
X98750142Y-71769258D01*
X98654990Y-71590302D01*
X98619533Y-71546827D01*
X98530785Y-71438013D01*
X98526890Y-71433237D01*
X98469184Y-71385499D01*
X98429447Y-71326667D01*
X98423500Y-71288415D01*
X98423500Y-70142815D01*
X98443502Y-70074694D01*
X98501280Y-70026407D01*
X98517925Y-70019512D01*
X98517927Y-70019511D01*
X98522502Y-70017616D01*
X98738376Y-69885328D01*
X98930898Y-69720898D01*
X98941455Y-69708538D01*
X99013511Y-69624171D01*
X99095328Y-69528376D01*
X99227616Y-69312502D01*
X99240219Y-69282077D01*
X99322611Y-69083164D01*
X99322612Y-69083162D01*
X99324505Y-69078591D01*
X99379973Y-68847548D01*
X99382454Y-68837216D01*
X99382455Y-68837210D01*
X99383609Y-68832403D01*
X99403474Y-68580000D01*
X99383609Y-68327597D01*
X99382410Y-68322599D01*
X99343438Y-68160273D01*
X99324505Y-68081409D01*
X99264730Y-67937099D01*
X99229511Y-67852072D01*
X99229509Y-67852068D01*
X99227616Y-67847498D01*
X99095328Y-67631624D01*
X98930898Y-67439102D01*
X98738376Y-67274672D01*
X98522502Y-67142384D01*
X98517932Y-67140491D01*
X98517928Y-67140489D01*
X98293164Y-67047389D01*
X98293162Y-67047388D01*
X98288591Y-67045495D01*
X98203968Y-67025179D01*
X98047216Y-66987546D01*
X98047210Y-66987545D01*
X98042403Y-66986391D01*
X97790000Y-66966526D01*
X97537597Y-66986391D01*
X97532790Y-66987545D01*
X97532784Y-66987546D01*
X97376032Y-67025179D01*
X97291409Y-67045495D01*
X97286838Y-67047388D01*
X97286836Y-67047389D01*
X97062072Y-67140489D01*
X97062068Y-67140491D01*
X97057498Y-67142384D01*
X96841624Y-67274672D01*
X96649102Y-67439102D01*
X96484672Y-67631624D01*
X96352384Y-67847498D01*
X96350491Y-67852068D01*
X96350489Y-67852072D01*
X96315270Y-67937099D01*
X96255495Y-68081409D01*
X96236562Y-68160273D01*
X96197591Y-68322599D01*
X96196391Y-68327597D01*
X96176526Y-68580000D01*
X96196391Y-68832403D01*
X96197545Y-68837210D01*
X96197546Y-68837216D01*
X96200027Y-68847548D01*
X96255495Y-69078591D01*
X96257388Y-69083162D01*
X96257389Y-69083164D01*
X96339782Y-69282077D01*
X96352384Y-69312502D01*
X96484672Y-69528376D01*
X96566489Y-69624171D01*
X96638546Y-69708538D01*
X96649102Y-69720898D01*
X96841624Y-69885328D01*
X97057498Y-70017616D01*
X97062073Y-70019511D01*
X97062075Y-70019512D01*
X97078720Y-70026407D01*
X97134000Y-70070956D01*
X97156500Y-70142815D01*
X97156500Y-71122835D01*
X97136498Y-71190956D01*
X97082842Y-71237449D01*
X97012568Y-71247553D01*
X96970571Y-71233671D01*
X96958273Y-71227022D01*
X96922435Y-71207644D01*
X96784223Y-71164860D01*
X96734707Y-71149532D01*
X96734704Y-71149531D01*
X96728820Y-71147710D01*
X96722695Y-71147066D01*
X96722694Y-71147066D01*
X96533378Y-71127168D01*
X96533377Y-71127168D01*
X96527250Y-71126524D01*
X96443986Y-71134102D01*
X96331543Y-71144335D01*
X96331540Y-71144336D01*
X96325404Y-71144894D01*
X96319498Y-71146632D01*
X96319494Y-71146633D01*
X96136879Y-71200380D01*
X96136877Y-71200381D01*
X96135493Y-71200788D01*
X96130971Y-71202119D01*
X96130718Y-71201260D01*
X96065338Y-71207714D01*
X96028594Y-71194548D01*
X96021705Y-71189385D01*
X96013297Y-71186233D01*
X95965270Y-71168228D01*
X95908505Y-71125586D01*
X95883806Y-71059024D01*
X95883500Y-71050246D01*
X95883500Y-67388767D01*
X95884027Y-67377584D01*
X95885702Y-67370091D01*
X95885381Y-67359858D01*
X95883562Y-67302001D01*
X95883500Y-67298043D01*
X95883500Y-67270144D01*
X95882996Y-67266153D01*
X95882063Y-67254311D01*
X95882026Y-67253116D01*
X95880674Y-67210111D01*
X95878462Y-67202497D01*
X95878461Y-67202492D01*
X95875023Y-67190659D01*
X95871012Y-67171295D01*
X95869490Y-67159242D01*
X95868474Y-67151203D01*
X95865557Y-67143836D01*
X95865556Y-67143831D01*
X95852198Y-67110092D01*
X95848354Y-67098865D01*
X95844085Y-67084171D01*
X95836018Y-67056407D01*
X95830685Y-67047389D01*
X95825707Y-67038972D01*
X95817012Y-67021224D01*
X95809552Y-67002383D01*
X95798773Y-66987546D01*
X95783564Y-66966613D01*
X95777048Y-66956693D01*
X95758580Y-66925465D01*
X95758578Y-66925462D01*
X95754542Y-66918638D01*
X95740221Y-66904317D01*
X95727380Y-66889283D01*
X95720131Y-66879306D01*
X95715472Y-66872893D01*
X95681395Y-66844702D01*
X95672616Y-66836712D01*
X91290405Y-62454500D01*
X91256379Y-62392188D01*
X91253500Y-62365405D01*
X91253500Y-60111253D01*
X91273502Y-60043132D01*
X91327158Y-59996639D01*
X91397432Y-59986535D01*
X91423729Y-59993271D01*
X91499684Y-60021745D01*
X91561866Y-60028500D01*
X93858134Y-60028500D01*
X93920316Y-60021745D01*
X94056705Y-59970615D01*
X94173261Y-59883261D01*
X94260615Y-59766705D01*
X94311745Y-59630316D01*
X94318500Y-59568134D01*
X94318500Y-59179500D01*
X94338502Y-59111379D01*
X94392158Y-59064886D01*
X94444500Y-59053500D01*
X96055500Y-59053500D01*
X96123621Y-59073502D01*
G37*
%TD.AperFunction*%
%TA.AperFunction,Conductor*%
G36*
X89505238Y-54653718D02*
G01*
X89535110Y-54718124D01*
X89536500Y-54736788D01*
X89536500Y-71050246D01*
X89516498Y-71118367D01*
X89462842Y-71164860D01*
X89454730Y-71168228D01*
X89408908Y-71185406D01*
X89398295Y-71189385D01*
X89281739Y-71276739D01*
X89194385Y-71393295D01*
X89143255Y-71529684D01*
X89136500Y-71591866D01*
X89136500Y-73188134D01*
X89143255Y-73250316D01*
X89194385Y-73386705D01*
X89281739Y-73503261D01*
X89398295Y-73590615D01*
X89534684Y-73641745D01*
X89596866Y-73648500D01*
X89981406Y-73648500D01*
X90049527Y-73668502D01*
X90096020Y-73722158D01*
X90106124Y-73792432D01*
X90076630Y-73857012D01*
X90070502Y-73863594D01*
X88642595Y-75291500D01*
X87237747Y-76696348D01*
X87229461Y-76703888D01*
X87222982Y-76708000D01*
X87217557Y-76713777D01*
X87176357Y-76757651D01*
X87173602Y-76760493D01*
X87153865Y-76780230D01*
X87151385Y-76783427D01*
X87143682Y-76792447D01*
X87113414Y-76824679D01*
X87109595Y-76831625D01*
X87109593Y-76831628D01*
X87103652Y-76842434D01*
X87092801Y-76858953D01*
X87080386Y-76874959D01*
X87077241Y-76882228D01*
X87077238Y-76882232D01*
X87062826Y-76915537D01*
X87057609Y-76926187D01*
X87036305Y-76964940D01*
X87034334Y-76972615D01*
X87034334Y-76972616D01*
X87031267Y-76984562D01*
X87024863Y-77003266D01*
X87016819Y-77021855D01*
X87015580Y-77029678D01*
X87015577Y-77029688D01*
X87009901Y-77065524D01*
X87007495Y-77077144D01*
X86999797Y-77107128D01*
X86996500Y-77119970D01*
X86996500Y-77140224D01*
X86994949Y-77159934D01*
X86991780Y-77179943D01*
X86992526Y-77187835D01*
X86995941Y-77223961D01*
X86996500Y-77235819D01*
X86996500Y-80182685D01*
X86976498Y-80250806D01*
X86942770Y-80285898D01*
X86850224Y-80350699D01*
X86700699Y-80500224D01*
X86579411Y-80673442D01*
X86577090Y-80678420D01*
X86577088Y-80678423D01*
X86510705Y-80820783D01*
X86490044Y-80865090D01*
X86488622Y-80870398D01*
X86488621Y-80870400D01*
X86449180Y-81017595D01*
X86435314Y-81069345D01*
X86416884Y-81280000D01*
X86435314Y-81490655D01*
X86436738Y-81495968D01*
X86436738Y-81495970D01*
X86465964Y-81605041D01*
X86490044Y-81694910D01*
X86492366Y-81699891D01*
X86492367Y-81699892D01*
X86525992Y-81772000D01*
X86579411Y-81886558D01*
X86700699Y-82059776D01*
X86850224Y-82209301D01*
X87023442Y-82330589D01*
X87028420Y-82332910D01*
X87028423Y-82332912D01*
X87169787Y-82398831D01*
X87215090Y-82419956D01*
X87220398Y-82421378D01*
X87220400Y-82421379D01*
X87246204Y-82428293D01*
X87306827Y-82465245D01*
X87337848Y-82529106D01*
X87329420Y-82599600D01*
X87284217Y-82654347D01*
X87246204Y-82671707D01*
X87220400Y-82678621D01*
X87220398Y-82678622D01*
X87215090Y-82680044D01*
X87210109Y-82682366D01*
X87210108Y-82682367D01*
X87028423Y-82767088D01*
X87028420Y-82767090D01*
X87023442Y-82769411D01*
X86850224Y-82890699D01*
X86700699Y-83040224D01*
X86579411Y-83213442D01*
X86577090Y-83218420D01*
X86577088Y-83218423D01*
X86565265Y-83243778D01*
X86518347Y-83297063D01*
X86450070Y-83316524D01*
X86382110Y-83295982D01*
X86361975Y-83279623D01*
X78890099Y-75807747D01*
X78882559Y-75799461D01*
X78878447Y-75792982D01*
X78828795Y-75746356D01*
X78825954Y-75743602D01*
X78806217Y-75723865D01*
X78803020Y-75721385D01*
X78793998Y-75713680D01*
X78767547Y-75688841D01*
X78761768Y-75683414D01*
X78754822Y-75679595D01*
X78754819Y-75679593D01*
X78744013Y-75673652D01*
X78727494Y-75662801D01*
X78721495Y-75658148D01*
X78711488Y-75650386D01*
X78704219Y-75647241D01*
X78704215Y-75647238D01*
X78670910Y-75632826D01*
X78660260Y-75627609D01*
X78621507Y-75606305D01*
X78601884Y-75601267D01*
X78583181Y-75594863D01*
X78571867Y-75589967D01*
X78571866Y-75589967D01*
X78564592Y-75586819D01*
X78556769Y-75585580D01*
X78556759Y-75585577D01*
X78520923Y-75579901D01*
X78509303Y-75577495D01*
X78474158Y-75568472D01*
X78474157Y-75568472D01*
X78466477Y-75566500D01*
X78446223Y-75566500D01*
X78426512Y-75564949D01*
X78414333Y-75563020D01*
X78406504Y-75561780D01*
X78398612Y-75562526D01*
X78362486Y-75565941D01*
X78350628Y-75566500D01*
X74936805Y-75566500D01*
X74868684Y-75546498D01*
X74831013Y-75508940D01*
X74742822Y-75372617D01*
X74742820Y-75372614D01*
X74740014Y-75368277D01*
X74589670Y-75203051D01*
X74585619Y-75199852D01*
X74585615Y-75199848D01*
X74418414Y-75067800D01*
X74418410Y-75067798D01*
X74414359Y-75064598D01*
X74372569Y-75041529D01*
X74322598Y-74991097D01*
X74307826Y-74921654D01*
X74332942Y-74855248D01*
X74360294Y-74828641D01*
X74535328Y-74703792D01*
X74543200Y-74697139D01*
X74694052Y-74546812D01*
X74700730Y-74538965D01*
X74825003Y-74366020D01*
X74830313Y-74357183D01*
X74924670Y-74166267D01*
X74928469Y-74156672D01*
X74990377Y-73952910D01*
X74992555Y-73942837D01*
X74993986Y-73931962D01*
X74991775Y-73917778D01*
X74978617Y-73914000D01*
X73532000Y-73914000D01*
X73463879Y-73893998D01*
X73417386Y-73840342D01*
X73406000Y-73788000D01*
X73406000Y-73532000D01*
X73426002Y-73463879D01*
X73479658Y-73417386D01*
X73532000Y-73406000D01*
X74978344Y-73406000D01*
X74991875Y-73402027D01*
X74993180Y-73392947D01*
X74951214Y-73225875D01*
X74947894Y-73216124D01*
X74862972Y-73020814D01*
X74858105Y-73011739D01*
X74742426Y-72832926D01*
X74736136Y-72824757D01*
X74592806Y-72667240D01*
X74585273Y-72660215D01*
X74418139Y-72528222D01*
X74409556Y-72522520D01*
X74372602Y-72502120D01*
X74322631Y-72451687D01*
X74309509Y-72390000D01*
X77826496Y-72390000D01*
X77827186Y-72396565D01*
X77841024Y-72528222D01*
X77846458Y-72579928D01*
X77905473Y-72761556D01*
X77908776Y-72767278D01*
X77908777Y-72767279D01*
X77928903Y-72802138D01*
X78000960Y-72926944D01*
X78005378Y-72931851D01*
X78005379Y-72931852D01*
X78085481Y-73020814D01*
X78128747Y-73068866D01*
X78283248Y-73181118D01*
X78289276Y-73183802D01*
X78289278Y-73183803D01*
X78361873Y-73216124D01*
X78457712Y-73258794D01*
X78551113Y-73278647D01*
X78638056Y-73297128D01*
X78638061Y-73297128D01*
X78644513Y-73298500D01*
X78835487Y-73298500D01*
X78841939Y-73297128D01*
X78841944Y-73297128D01*
X78928887Y-73278647D01*
X79022288Y-73258794D01*
X79118127Y-73216124D01*
X79190722Y-73183803D01*
X79190724Y-73183802D01*
X79196752Y-73181118D01*
X79351253Y-73068866D01*
X79355668Y-73063963D01*
X79360580Y-73059540D01*
X79361705Y-73060789D01*
X79415014Y-73027949D01*
X79448200Y-73023500D01*
X79695406Y-73023500D01*
X79763527Y-73043502D01*
X79784501Y-73060405D01*
X82872878Y-76148782D01*
X82906904Y-76211094D01*
X82909092Y-76224703D01*
X82926458Y-76389928D01*
X82985473Y-76571556D01*
X82988776Y-76577278D01*
X82988777Y-76577279D01*
X83009069Y-76612425D01*
X83080960Y-76736944D01*
X83085378Y-76741851D01*
X83085379Y-76741852D01*
X83201129Y-76870405D01*
X83208747Y-76878866D01*
X83363248Y-76991118D01*
X83369276Y-76993802D01*
X83369278Y-76993803D01*
X83530367Y-77065524D01*
X83537712Y-77068794D01*
X83624009Y-77087137D01*
X83718056Y-77107128D01*
X83718061Y-77107128D01*
X83724513Y-77108500D01*
X83915487Y-77108500D01*
X83921939Y-77107128D01*
X83921944Y-77107128D01*
X84015991Y-77087137D01*
X84102288Y-77068794D01*
X84109633Y-77065524D01*
X84270722Y-76993803D01*
X84270724Y-76993802D01*
X84276752Y-76991118D01*
X84431253Y-76878866D01*
X84438871Y-76870405D01*
X84554621Y-76741852D01*
X84554622Y-76741851D01*
X84559040Y-76736944D01*
X84630931Y-76612425D01*
X84651223Y-76577279D01*
X84651224Y-76577278D01*
X84654527Y-76571556D01*
X84713542Y-76389928D01*
X84733504Y-76200000D01*
X84713542Y-76010072D01*
X84654527Y-75828444D01*
X84559040Y-75663056D01*
X84544798Y-75647238D01*
X84435675Y-75526045D01*
X84435674Y-75526044D01*
X84431253Y-75521134D01*
X84276752Y-75408882D01*
X84270724Y-75406198D01*
X84270722Y-75406197D01*
X84108319Y-75333891D01*
X84108318Y-75333891D01*
X84102288Y-75331206D01*
X84008887Y-75311353D01*
X83921944Y-75292872D01*
X83921939Y-75292872D01*
X83915487Y-75291500D01*
X83859594Y-75291500D01*
X83791473Y-75271498D01*
X83770499Y-75254595D01*
X82157206Y-73641301D01*
X80513652Y-71997747D01*
X80506112Y-71989461D01*
X80502000Y-71982982D01*
X80452348Y-71936356D01*
X80449507Y-71933602D01*
X80429770Y-71913865D01*
X80426573Y-71911385D01*
X80417551Y-71903680D01*
X80391100Y-71878841D01*
X80385321Y-71873414D01*
X80378375Y-71869595D01*
X80378372Y-71869593D01*
X80367566Y-71863652D01*
X80351047Y-71852801D01*
X80345048Y-71848148D01*
X80335041Y-71840386D01*
X80327772Y-71837241D01*
X80327768Y-71837238D01*
X80294463Y-71822826D01*
X80283813Y-71817609D01*
X80245060Y-71796305D01*
X80225437Y-71791267D01*
X80206734Y-71784863D01*
X80195420Y-71779967D01*
X80195419Y-71779967D01*
X80188145Y-71776819D01*
X80180322Y-71775580D01*
X80180312Y-71775577D01*
X80144476Y-71769901D01*
X80132856Y-71767495D01*
X80097711Y-71758472D01*
X80097710Y-71758472D01*
X80090030Y-71756500D01*
X80069776Y-71756500D01*
X80050065Y-71754949D01*
X80037886Y-71753020D01*
X80030057Y-71751780D01*
X80022165Y-71752526D01*
X79986039Y-71755941D01*
X79974181Y-71756500D01*
X79448200Y-71756500D01*
X79380079Y-71736498D01*
X79360853Y-71720157D01*
X79360580Y-71720460D01*
X79355668Y-71716037D01*
X79351253Y-71711134D01*
X79196752Y-71598882D01*
X79190724Y-71596198D01*
X79190722Y-71596197D01*
X79028319Y-71523891D01*
X79028318Y-71523891D01*
X79022288Y-71521206D01*
X78928887Y-71501353D01*
X78841944Y-71482872D01*
X78841939Y-71482872D01*
X78835487Y-71481500D01*
X78644513Y-71481500D01*
X78638061Y-71482872D01*
X78638056Y-71482872D01*
X78551113Y-71501353D01*
X78457712Y-71521206D01*
X78451682Y-71523891D01*
X78451681Y-71523891D01*
X78289278Y-71596197D01*
X78289276Y-71596198D01*
X78283248Y-71598882D01*
X78128747Y-71711134D01*
X78124326Y-71716044D01*
X78124325Y-71716045D01*
X78015203Y-71837238D01*
X78000960Y-71853056D01*
X77986073Y-71878841D01*
X77940726Y-71957385D01*
X77905473Y-72018444D01*
X77846458Y-72200072D01*
X77845768Y-72206633D01*
X77845768Y-72206635D01*
X77832685Y-72331114D01*
X77826496Y-72390000D01*
X74309509Y-72390000D01*
X74307859Y-72382245D01*
X74332975Y-72315839D01*
X74360327Y-72289232D01*
X74421500Y-72245598D01*
X74539860Y-72161173D01*
X74698096Y-72003489D01*
X74706710Y-71991502D01*
X74825435Y-71826277D01*
X74828453Y-71822077D01*
X74830746Y-71817437D01*
X74832446Y-71814608D01*
X74884674Y-71766518D01*
X74940451Y-71753500D01*
X75688413Y-71753500D01*
X75699596Y-71754027D01*
X75707089Y-71755702D01*
X75715015Y-71755453D01*
X75715016Y-71755453D01*
X75775166Y-71753562D01*
X75779125Y-71753500D01*
X75807036Y-71753500D01*
X75810971Y-71753003D01*
X75811036Y-71752995D01*
X75822873Y-71752062D01*
X75855131Y-71751048D01*
X75859150Y-71750922D01*
X75867069Y-71750673D01*
X75886523Y-71745021D01*
X75905880Y-71741013D01*
X75918110Y-71739468D01*
X75918111Y-71739468D01*
X75925977Y-71738474D01*
X75933348Y-71735555D01*
X75933350Y-71735555D01*
X75967092Y-71722196D01*
X75978322Y-71718351D01*
X76013163Y-71708229D01*
X76013164Y-71708229D01*
X76020773Y-71706018D01*
X76027592Y-71701985D01*
X76027597Y-71701983D01*
X76038208Y-71695707D01*
X76055956Y-71687012D01*
X76074797Y-71679552D01*
X76110567Y-71653564D01*
X76120487Y-71647048D01*
X76151715Y-71628580D01*
X76151718Y-71628578D01*
X76158542Y-71624542D01*
X76172863Y-71610221D01*
X76187897Y-71597380D01*
X76197874Y-71590131D01*
X76204287Y-71585472D01*
X76232478Y-71551395D01*
X76240468Y-71542616D01*
X78936563Y-68846522D01*
X82640801Y-68846522D01*
X82679092Y-68989423D01*
X82682842Y-68999727D01*
X82767521Y-69181323D01*
X82772998Y-69190811D01*
X82887925Y-69354942D01*
X82894981Y-69363350D01*
X83036650Y-69505019D01*
X83045058Y-69512075D01*
X83209189Y-69627002D01*
X83218677Y-69632479D01*
X83400273Y-69717158D01*
X83410577Y-69720908D01*
X83548503Y-69757866D01*
X83562599Y-69757530D01*
X83566000Y-69749588D01*
X83566000Y-69744439D01*
X84074000Y-69744439D01*
X84077973Y-69757970D01*
X84086522Y-69759199D01*
X84229423Y-69720908D01*
X84239727Y-69717158D01*
X84421323Y-69632479D01*
X84430811Y-69627002D01*
X84594942Y-69512075D01*
X84603350Y-69505019D01*
X84745019Y-69363350D01*
X84752075Y-69354942D01*
X84867002Y-69190811D01*
X84872479Y-69181323D01*
X84957158Y-68999727D01*
X84960908Y-68989423D01*
X84997866Y-68851497D01*
X84997530Y-68837401D01*
X84989588Y-68834000D01*
X84092115Y-68834000D01*
X84076876Y-68838475D01*
X84075671Y-68839865D01*
X84074000Y-68847548D01*
X84074000Y-69744439D01*
X83566000Y-69744439D01*
X83566000Y-68852115D01*
X83561525Y-68836876D01*
X83560135Y-68835671D01*
X83552452Y-68834000D01*
X82655561Y-68834000D01*
X82642030Y-68837973D01*
X82640801Y-68846522D01*
X78936563Y-68846522D01*
X81476563Y-66306522D01*
X82640801Y-66306522D01*
X82679092Y-66449423D01*
X82682842Y-66459727D01*
X82767521Y-66641323D01*
X82772998Y-66650811D01*
X82887925Y-66814942D01*
X82894981Y-66823350D01*
X83036650Y-66965019D01*
X83045058Y-66972075D01*
X83209189Y-67087002D01*
X83218677Y-67092479D01*
X83400277Y-67177159D01*
X83410582Y-67180910D01*
X83438137Y-67188294D01*
X83498759Y-67225245D01*
X83529781Y-67289106D01*
X83521352Y-67359600D01*
X83476148Y-67414347D01*
X83438137Y-67431706D01*
X83410582Y-67439090D01*
X83400277Y-67442841D01*
X83218677Y-67527521D01*
X83209189Y-67532998D01*
X83045058Y-67647925D01*
X83036650Y-67654981D01*
X82894981Y-67796650D01*
X82887925Y-67805058D01*
X82772998Y-67969189D01*
X82767521Y-67978677D01*
X82682842Y-68160273D01*
X82679092Y-68170577D01*
X82642134Y-68308503D01*
X82642470Y-68322599D01*
X82650412Y-68326000D01*
X84984439Y-68326000D01*
X84997970Y-68322027D01*
X84999199Y-68313478D01*
X84960908Y-68170577D01*
X84957158Y-68160273D01*
X84872479Y-67978677D01*
X84867002Y-67969189D01*
X84752075Y-67805058D01*
X84745019Y-67796650D01*
X84603350Y-67654981D01*
X84594942Y-67647925D01*
X84430811Y-67532998D01*
X84421323Y-67527521D01*
X84239723Y-67442841D01*
X84229418Y-67439090D01*
X84201863Y-67431706D01*
X84141241Y-67394755D01*
X84110219Y-67330894D01*
X84118648Y-67260400D01*
X84163852Y-67205653D01*
X84201863Y-67188294D01*
X84229418Y-67180910D01*
X84239723Y-67177159D01*
X84421323Y-67092479D01*
X84430811Y-67087002D01*
X84594942Y-66972075D01*
X84603350Y-66965019D01*
X84745019Y-66823350D01*
X84752075Y-66814942D01*
X84867002Y-66650811D01*
X84872479Y-66641323D01*
X84957158Y-66459727D01*
X84960908Y-66449423D01*
X84997866Y-66311497D01*
X84997530Y-66297401D01*
X84989588Y-66294000D01*
X82655561Y-66294000D01*
X82642030Y-66297973D01*
X82640801Y-66306522D01*
X81476563Y-66306522D01*
X81672253Y-66110832D01*
X81680539Y-66103292D01*
X81687018Y-66099180D01*
X81733644Y-66049528D01*
X81736398Y-66046687D01*
X81756135Y-66026950D01*
X81758615Y-66023753D01*
X81766320Y-66014731D01*
X81796586Y-65982501D01*
X81800405Y-65975555D01*
X81800407Y-65975552D01*
X81806348Y-65964746D01*
X81817199Y-65948227D01*
X81824758Y-65938481D01*
X81829614Y-65932221D01*
X81832759Y-65924952D01*
X81832762Y-65924948D01*
X81847174Y-65891643D01*
X81852391Y-65880993D01*
X81873695Y-65842240D01*
X81878733Y-65822617D01*
X81885137Y-65803914D01*
X81890033Y-65792600D01*
X81890033Y-65792599D01*
X81893181Y-65785325D01*
X81894420Y-65777502D01*
X81894423Y-65777492D01*
X81895847Y-65768503D01*
X82642134Y-65768503D01*
X82642470Y-65782599D01*
X82650412Y-65786000D01*
X83547885Y-65786000D01*
X83563124Y-65781525D01*
X83564329Y-65780135D01*
X83566000Y-65772452D01*
X83566000Y-65767885D01*
X84074000Y-65767885D01*
X84078475Y-65783124D01*
X84079865Y-65784329D01*
X84087548Y-65786000D01*
X84984439Y-65786000D01*
X84997970Y-65782027D01*
X84999199Y-65773478D01*
X84960908Y-65630577D01*
X84957158Y-65620273D01*
X84872479Y-65438677D01*
X84867002Y-65429189D01*
X84752075Y-65265058D01*
X84745019Y-65256650D01*
X84603350Y-65114981D01*
X84594942Y-65107925D01*
X84430811Y-64992998D01*
X84421323Y-64987521D01*
X84239727Y-64902842D01*
X84229423Y-64899092D01*
X84091497Y-64862134D01*
X84077401Y-64862470D01*
X84074000Y-64870412D01*
X84074000Y-65767885D01*
X83566000Y-65767885D01*
X83566000Y-64875561D01*
X83562027Y-64862030D01*
X83553478Y-64860801D01*
X83410577Y-64899092D01*
X83400273Y-64902842D01*
X83218677Y-64987521D01*
X83209189Y-64992998D01*
X83045058Y-65107925D01*
X83036650Y-65114981D01*
X82894981Y-65256650D01*
X82887925Y-65265058D01*
X82772998Y-65429189D01*
X82767521Y-65438677D01*
X82682842Y-65620273D01*
X82679092Y-65630577D01*
X82642134Y-65768503D01*
X81895847Y-65768503D01*
X81900099Y-65741656D01*
X81902505Y-65730036D01*
X81911528Y-65694891D01*
X81911528Y-65694890D01*
X81913500Y-65687210D01*
X81913500Y-65666956D01*
X81915051Y-65647245D01*
X81916980Y-65635066D01*
X81918220Y-65627237D01*
X81914059Y-65583218D01*
X81913500Y-65571361D01*
X81913500Y-62932524D01*
X81933502Y-62864403D01*
X81945858Y-62848221D01*
X82019040Y-62766944D01*
X82091097Y-62642138D01*
X82111223Y-62607279D01*
X82111224Y-62607278D01*
X82114527Y-62601556D01*
X82173542Y-62419928D01*
X82178489Y-62372866D01*
X82192814Y-62236565D01*
X82193504Y-62230000D01*
X82173542Y-62040072D01*
X82114527Y-61858444D01*
X82019040Y-61693056D01*
X81991147Y-61662077D01*
X81895675Y-61556045D01*
X81895674Y-61556044D01*
X81891253Y-61551134D01*
X81768311Y-61461811D01*
X81742094Y-61442763D01*
X81742093Y-61442762D01*
X81736752Y-61438882D01*
X81730724Y-61436198D01*
X81730722Y-61436197D01*
X81568319Y-61363891D01*
X81568318Y-61363891D01*
X81562288Y-61361206D01*
X81468887Y-61341353D01*
X81381944Y-61322872D01*
X81381939Y-61322872D01*
X81375487Y-61321500D01*
X81184513Y-61321500D01*
X81178061Y-61322872D01*
X81178056Y-61322872D01*
X81091113Y-61341353D01*
X80997712Y-61361206D01*
X80991682Y-61363891D01*
X80991681Y-61363891D01*
X80829278Y-61436197D01*
X80829276Y-61436198D01*
X80823248Y-61438882D01*
X80817907Y-61442762D01*
X80817906Y-61442763D01*
X80791689Y-61461811D01*
X80668747Y-61551134D01*
X80664326Y-61556044D01*
X80664325Y-61556045D01*
X80568854Y-61662077D01*
X80540960Y-61693056D01*
X80445473Y-61858444D01*
X80386458Y-62040072D01*
X80366496Y-62230000D01*
X80367186Y-62236565D01*
X80381512Y-62372866D01*
X80386458Y-62419928D01*
X80445473Y-62601556D01*
X80448776Y-62607278D01*
X80448777Y-62607279D01*
X80468903Y-62642138D01*
X80540960Y-62766944D01*
X80614137Y-62848215D01*
X80644853Y-62912221D01*
X80646500Y-62932524D01*
X80646500Y-65292586D01*
X80626498Y-65360707D01*
X80609595Y-65381681D01*
X78229871Y-67761404D01*
X78167561Y-67795429D01*
X78096746Y-67790364D01*
X78039910Y-67747817D01*
X78015099Y-67681297D01*
X78025140Y-67622269D01*
X78037176Y-67594457D01*
X78042383Y-67583827D01*
X78063695Y-67545060D01*
X78065666Y-67537383D01*
X78065668Y-67537378D01*
X78068732Y-67525442D01*
X78075138Y-67506730D01*
X78080033Y-67495419D01*
X78083181Y-67488145D01*
X78084421Y-67480317D01*
X78084423Y-67480310D01*
X78090099Y-67444476D01*
X78092505Y-67432856D01*
X78101528Y-67397711D01*
X78101528Y-67397710D01*
X78103500Y-67390030D01*
X78103500Y-67369776D01*
X78105051Y-67350065D01*
X78106980Y-67337886D01*
X78108220Y-67330057D01*
X78104059Y-67286038D01*
X78103500Y-67274181D01*
X78103500Y-63180990D01*
X78123502Y-63112869D01*
X78140405Y-63091895D01*
X82466403Y-58765898D01*
X82528715Y-58731872D01*
X82599531Y-58736937D01*
X82656366Y-58779484D01*
X82677205Y-58822382D01*
X82679093Y-58829426D01*
X82682841Y-58839723D01*
X82767521Y-59021323D01*
X82772998Y-59030811D01*
X82887925Y-59194942D01*
X82894981Y-59203350D01*
X83036650Y-59345019D01*
X83045058Y-59352075D01*
X83209189Y-59467002D01*
X83218677Y-59472479D01*
X83400273Y-59557158D01*
X83410577Y-59560908D01*
X83548503Y-59597866D01*
X83562599Y-59597530D01*
X83566000Y-59589588D01*
X83566000Y-59584439D01*
X84074000Y-59584439D01*
X84077973Y-59597970D01*
X84086522Y-59599199D01*
X84229423Y-59560908D01*
X84239727Y-59557158D01*
X84421323Y-59472479D01*
X84430811Y-59467002D01*
X84594942Y-59352075D01*
X84603350Y-59345019D01*
X84745019Y-59203350D01*
X84752075Y-59194942D01*
X84867002Y-59030811D01*
X84872479Y-59021323D01*
X84957158Y-58839727D01*
X84960908Y-58829423D01*
X84997866Y-58691497D01*
X84997530Y-58677401D01*
X84989588Y-58674000D01*
X84092115Y-58674000D01*
X84076876Y-58678475D01*
X84075671Y-58679865D01*
X84074000Y-58687548D01*
X84074000Y-59584439D01*
X83566000Y-59584439D01*
X83566000Y-58292000D01*
X83586002Y-58223879D01*
X83639658Y-58177386D01*
X83692000Y-58166000D01*
X84984439Y-58166000D01*
X84997970Y-58162027D01*
X84999199Y-58153478D01*
X84960908Y-58010577D01*
X84957158Y-58000273D01*
X84940355Y-57964239D01*
X84929694Y-57894047D01*
X84958675Y-57829235D01*
X85018095Y-57790379D01*
X85050591Y-57785052D01*
X85097986Y-57783562D01*
X85101945Y-57783500D01*
X85129856Y-57783500D01*
X85133791Y-57783003D01*
X85133856Y-57782995D01*
X85145693Y-57782062D01*
X85177951Y-57781048D01*
X85181970Y-57780922D01*
X85189889Y-57780673D01*
X85209343Y-57775021D01*
X85228700Y-57771013D01*
X85240930Y-57769468D01*
X85240931Y-57769468D01*
X85248797Y-57768474D01*
X85256168Y-57765555D01*
X85256170Y-57765555D01*
X85289912Y-57752196D01*
X85301142Y-57748351D01*
X85335983Y-57738229D01*
X85335984Y-57738229D01*
X85343593Y-57736018D01*
X85350412Y-57731985D01*
X85350417Y-57731983D01*
X85361028Y-57725707D01*
X85378776Y-57717012D01*
X85397617Y-57709552D01*
X85433387Y-57683564D01*
X85443307Y-57677048D01*
X85474535Y-57658580D01*
X85474538Y-57658578D01*
X85481362Y-57654542D01*
X85495683Y-57640221D01*
X85510717Y-57627380D01*
X85520694Y-57620131D01*
X85527107Y-57615472D01*
X85555298Y-57581395D01*
X85563288Y-57572616D01*
X88444549Y-54691355D01*
X88506861Y-54657329D01*
X88558762Y-54656979D01*
X88738597Y-54693567D01*
X88743772Y-54693757D01*
X88743774Y-54693757D01*
X88956673Y-54701564D01*
X88956677Y-54701564D01*
X88961837Y-54701753D01*
X88966957Y-54701097D01*
X88966959Y-54701097D01*
X89178288Y-54674025D01*
X89178289Y-54674025D01*
X89183416Y-54673368D01*
X89236877Y-54657329D01*
X89374292Y-54616102D01*
X89445288Y-54615685D01*
X89505238Y-54653718D01*
G37*
%TD.AperFunction*%
%TA.AperFunction,Conductor*%
G36*
X100300018Y-48770000D02*
G01*
X100314851Y-48772310D01*
X100314855Y-48772310D01*
X100323724Y-48773691D01*
X100332626Y-48772527D01*
X100332629Y-48772527D01*
X100340012Y-48771561D01*
X100364591Y-48770767D01*
X100391442Y-48772527D01*
X100586922Y-48785340D01*
X100603262Y-48787491D01*
X100725478Y-48811801D01*
X100847696Y-48836112D01*
X100863606Y-48840375D01*
X101063613Y-48908268D01*
X101099600Y-48920484D01*
X101114826Y-48926791D01*
X101338342Y-49037016D01*
X101352616Y-49045257D01*
X101559829Y-49183713D01*
X101572905Y-49193746D01*
X101760278Y-49358068D01*
X101771932Y-49369722D01*
X101936254Y-49557095D01*
X101946287Y-49570171D01*
X102084743Y-49777384D01*
X102092984Y-49791658D01*
X102203209Y-50015174D01*
X102209515Y-50030398D01*
X102289625Y-50266394D01*
X102293888Y-50282304D01*
X102303237Y-50329305D01*
X102342509Y-50526738D01*
X102344660Y-50543078D01*
X102358763Y-50758236D01*
X102357733Y-50781350D01*
X102357690Y-50784854D01*
X102356309Y-50793724D01*
X102357473Y-50802626D01*
X102357473Y-50802628D01*
X102360436Y-50825283D01*
X102361500Y-50841621D01*
X102361500Y-56935500D01*
X102341498Y-57003621D01*
X102287842Y-57050114D01*
X102235500Y-57061500D01*
X100701866Y-57061500D01*
X100639684Y-57068255D01*
X100503295Y-57119385D01*
X100386739Y-57206739D01*
X100299385Y-57323295D01*
X100248255Y-57459684D01*
X100241500Y-57521866D01*
X100241500Y-57660500D01*
X100221498Y-57728621D01*
X100167842Y-57775114D01*
X100115500Y-57786500D01*
X99524500Y-57786500D01*
X99456379Y-57766498D01*
X99409886Y-57712842D01*
X99398500Y-57660500D01*
X99398500Y-57271866D01*
X99391745Y-57209684D01*
X99340615Y-57073295D01*
X99253261Y-56956739D01*
X99136705Y-56869385D01*
X99000316Y-56818255D01*
X98938134Y-56811500D01*
X96641866Y-56811500D01*
X96579684Y-56818255D01*
X96443295Y-56869385D01*
X96326739Y-56956739D01*
X96239385Y-57073295D01*
X96188255Y-57209684D01*
X96181500Y-57271866D01*
X96181500Y-57660500D01*
X96161498Y-57728621D01*
X96107842Y-57775114D01*
X96055500Y-57786500D01*
X94444500Y-57786500D01*
X94376379Y-57766498D01*
X94329886Y-57712842D01*
X94318500Y-57660500D01*
X94318500Y-57271866D01*
X94311745Y-57209684D01*
X94260615Y-57073295D01*
X94173261Y-56956739D01*
X94056705Y-56869385D01*
X93920316Y-56818255D01*
X93858134Y-56811500D01*
X92668594Y-56811500D01*
X92600473Y-56791498D01*
X92553980Y-56737842D01*
X92543876Y-56667568D01*
X92573370Y-56602988D01*
X92579499Y-56596405D01*
X92625499Y-56550405D01*
X92687811Y-56516379D01*
X92714594Y-56513500D01*
X93908207Y-56513500D01*
X93931816Y-56515732D01*
X93932119Y-56515790D01*
X93932123Y-56515790D01*
X93939906Y-56517275D01*
X93995951Y-56513749D01*
X94003862Y-56513500D01*
X94019856Y-56513500D01*
X94035730Y-56511494D01*
X94043590Y-56510752D01*
X94071049Y-56509024D01*
X94091737Y-56507723D01*
X94091738Y-56507723D01*
X94099650Y-56507225D01*
X94107191Y-56504775D01*
X94107487Y-56504679D01*
X94130631Y-56499506D01*
X94130935Y-56499468D01*
X94130940Y-56499467D01*
X94138797Y-56498474D01*
X94146162Y-56495558D01*
X94146166Y-56495557D01*
X94191011Y-56477801D01*
X94198430Y-56475129D01*
X94251875Y-56457764D01*
X94258572Y-56453514D01*
X94258831Y-56453350D01*
X94279958Y-56442585D01*
X94280246Y-56442471D01*
X94280251Y-56442468D01*
X94287617Y-56439552D01*
X94294025Y-56434896D01*
X94294031Y-56434893D01*
X94333052Y-56406542D01*
X94339589Y-56402099D01*
X94387018Y-56372000D01*
X94392659Y-56365993D01*
X94410446Y-56350312D01*
X94410691Y-56350134D01*
X94410693Y-56350132D01*
X94417107Y-56345472D01*
X94422162Y-56339362D01*
X94452903Y-56302204D01*
X94458134Y-56296270D01*
X94491158Y-56261102D01*
X94491160Y-56261099D01*
X94496586Y-56255321D01*
X94500558Y-56248097D01*
X94513881Y-56228494D01*
X94514080Y-56228254D01*
X94514084Y-56228247D01*
X94519133Y-56222144D01*
X94543047Y-56171324D01*
X94546629Y-56164292D01*
X94573695Y-56115060D01*
X94575665Y-56107385D01*
X94575668Y-56107379D01*
X94575744Y-56107081D01*
X94583776Y-56084772D01*
X94583906Y-56084497D01*
X94583909Y-56084489D01*
X94587283Y-56077318D01*
X94597806Y-56022151D01*
X94599532Y-56014429D01*
X94611529Y-55967707D01*
X94611529Y-55967706D01*
X94613500Y-55960030D01*
X94613500Y-55951793D01*
X94615732Y-55928184D01*
X94615790Y-55927881D01*
X94615790Y-55927877D01*
X94617275Y-55920094D01*
X94613749Y-55864049D01*
X94613500Y-55856138D01*
X94613500Y-54234669D01*
X96432001Y-54234669D01*
X96432371Y-54241490D01*
X96437895Y-54292352D01*
X96441521Y-54307604D01*
X96486676Y-54428054D01*
X96495214Y-54443649D01*
X96571715Y-54545724D01*
X96584276Y-54558285D01*
X96686351Y-54634786D01*
X96701946Y-54643324D01*
X96822394Y-54688478D01*
X96837649Y-54692105D01*
X96888514Y-54697631D01*
X96895328Y-54698000D01*
X97517885Y-54698000D01*
X97533124Y-54693525D01*
X97534329Y-54692135D01*
X97536000Y-54684452D01*
X97536000Y-54679884D01*
X98044000Y-54679884D01*
X98048475Y-54695123D01*
X98049865Y-54696328D01*
X98057548Y-54697999D01*
X98684669Y-54697999D01*
X98691490Y-54697629D01*
X98742352Y-54692105D01*
X98757604Y-54688479D01*
X98878054Y-54643324D01*
X98893649Y-54634786D01*
X98995724Y-54558285D01*
X99008285Y-54545724D01*
X99084786Y-54443649D01*
X99093324Y-54428054D01*
X99138478Y-54307606D01*
X99142105Y-54292351D01*
X99147631Y-54241486D01*
X99148000Y-54234672D01*
X99148000Y-53612115D01*
X99143525Y-53596876D01*
X99142135Y-53595671D01*
X99134452Y-53594000D01*
X98062115Y-53594000D01*
X98046876Y-53598475D01*
X98045671Y-53599865D01*
X98044000Y-53607548D01*
X98044000Y-54679884D01*
X97536000Y-54679884D01*
X97536000Y-53612115D01*
X97531525Y-53596876D01*
X97530135Y-53595671D01*
X97522452Y-53594000D01*
X96450116Y-53594000D01*
X96434877Y-53598475D01*
X96433672Y-53599865D01*
X96432001Y-53607548D01*
X96432001Y-54234669D01*
X94613500Y-54234669D01*
X94613500Y-53418767D01*
X94614027Y-53407584D01*
X94615702Y-53400091D01*
X94613562Y-53332014D01*
X94613500Y-53328055D01*
X94613500Y-53300144D01*
X94612995Y-53296144D01*
X94612062Y-53284301D01*
X94610922Y-53248029D01*
X94610673Y-53240110D01*
X94605022Y-53220658D01*
X94601014Y-53201306D01*
X94599467Y-53189063D01*
X94598474Y-53181203D01*
X94595556Y-53173832D01*
X94582200Y-53140097D01*
X94578355Y-53128870D01*
X94575011Y-53117361D01*
X94566018Y-53086407D01*
X94561984Y-53079585D01*
X94561981Y-53079579D01*
X94555706Y-53068968D01*
X94547010Y-53051218D01*
X94542472Y-53039756D01*
X94542469Y-53039751D01*
X94539552Y-53032383D01*
X94513573Y-52996625D01*
X94507057Y-52986707D01*
X94488575Y-52955457D01*
X94484542Y-52948637D01*
X94470218Y-52934313D01*
X94457376Y-52919278D01*
X94445472Y-52902893D01*
X94411406Y-52874711D01*
X94402627Y-52866722D01*
X93217930Y-51682025D01*
X93210390Y-51673739D01*
X93206278Y-51667260D01*
X93156626Y-51620634D01*
X93153785Y-51617880D01*
X93134048Y-51598143D01*
X93130851Y-51595663D01*
X93121829Y-51587958D01*
X93095378Y-51563119D01*
X93089599Y-51557692D01*
X93082653Y-51553873D01*
X93082650Y-51553871D01*
X93071844Y-51547930D01*
X93055325Y-51537079D01*
X93054861Y-51536719D01*
X93039319Y-51524664D01*
X93032050Y-51521519D01*
X93032046Y-51521516D01*
X92998741Y-51507104D01*
X92988091Y-51501887D01*
X92949338Y-51480583D01*
X92929715Y-51475545D01*
X92911012Y-51469141D01*
X92899698Y-51464245D01*
X92899697Y-51464245D01*
X92892423Y-51461097D01*
X92884600Y-51459858D01*
X92884590Y-51459855D01*
X92848754Y-51454179D01*
X92837135Y-51451773D01*
X92802040Y-51442763D01*
X92741033Y-51406450D01*
X92709343Y-51342918D01*
X92712813Y-51284093D01*
X92772370Y-51088069D01*
X92801529Y-50866590D01*
X92802139Y-50841621D01*
X92803074Y-50803365D01*
X92803074Y-50803361D01*
X92803156Y-50800000D01*
X92800418Y-50766695D01*
X96427251Y-50766695D01*
X96427548Y-50771848D01*
X96427548Y-50771851D01*
X96433011Y-50866590D01*
X96440110Y-50989715D01*
X96441247Y-50994761D01*
X96441248Y-50994767D01*
X96452031Y-51042614D01*
X96489222Y-51207639D01*
X96573266Y-51414616D01*
X96616029Y-51484399D01*
X96687291Y-51600688D01*
X96689987Y-51605088D01*
X96836250Y-51773938D01*
X96840225Y-51777238D01*
X96840231Y-51777244D01*
X96845425Y-51781556D01*
X96885059Y-51840460D01*
X96886555Y-51911441D01*
X96849439Y-51971962D01*
X96809168Y-51996480D01*
X96701946Y-52036676D01*
X96686351Y-52045214D01*
X96584276Y-52121715D01*
X96571715Y-52134276D01*
X96495214Y-52236351D01*
X96486676Y-52251946D01*
X96441522Y-52372394D01*
X96437895Y-52387649D01*
X96432369Y-52438514D01*
X96432000Y-52445328D01*
X96432000Y-53067885D01*
X96436475Y-53083124D01*
X96437865Y-53084329D01*
X96445548Y-53086000D01*
X99129884Y-53086000D01*
X99145123Y-53081525D01*
X99146328Y-53080135D01*
X99147999Y-53072452D01*
X99147999Y-52445331D01*
X99147629Y-52438510D01*
X99142105Y-52387648D01*
X99138479Y-52372396D01*
X99093324Y-52251946D01*
X99084786Y-52236351D01*
X99008285Y-52134276D01*
X98995724Y-52121715D01*
X98893649Y-52045214D01*
X98878054Y-52036676D01*
X98767813Y-51995348D01*
X98711049Y-51952706D01*
X98686349Y-51886145D01*
X98701557Y-51816796D01*
X98723104Y-51788115D01*
X98824430Y-51687144D01*
X98824440Y-51687132D01*
X98828096Y-51683489D01*
X98833636Y-51675780D01*
X98955435Y-51506277D01*
X98958453Y-51502077D01*
X98978707Y-51461097D01*
X99055136Y-51306453D01*
X99055137Y-51306451D01*
X99057430Y-51301811D01*
X99122370Y-51088069D01*
X99151529Y-50866590D01*
X99152139Y-50841621D01*
X99153074Y-50803365D01*
X99153074Y-50803361D01*
X99153156Y-50800000D01*
X99134852Y-50577361D01*
X99080431Y-50360702D01*
X98991354Y-50155840D01*
X98870014Y-49968277D01*
X98719670Y-49803051D01*
X98715619Y-49799852D01*
X98715615Y-49799848D01*
X98548414Y-49667800D01*
X98548410Y-49667798D01*
X98544359Y-49664598D01*
X98348789Y-49556638D01*
X98343920Y-49554914D01*
X98343916Y-49554912D01*
X98143087Y-49483795D01*
X98143083Y-49483794D01*
X98138212Y-49482069D01*
X98133119Y-49481162D01*
X98133116Y-49481161D01*
X97923373Y-49443800D01*
X97923367Y-49443799D01*
X97918284Y-49442894D01*
X97844452Y-49441992D01*
X97700081Y-49440228D01*
X97700079Y-49440228D01*
X97694911Y-49440165D01*
X97474091Y-49473955D01*
X97261756Y-49543357D01*
X97063607Y-49646507D01*
X97059474Y-49649610D01*
X97059471Y-49649612D01*
X96889100Y-49777530D01*
X96884965Y-49780635D01*
X96730629Y-49942138D01*
X96604743Y-50126680D01*
X96589003Y-50160590D01*
X96532504Y-50282307D01*
X96510688Y-50329305D01*
X96450989Y-50544570D01*
X96427251Y-50766695D01*
X92800418Y-50766695D01*
X92784852Y-50577361D01*
X92730431Y-50360702D01*
X92641354Y-50155840D01*
X92520014Y-49968277D01*
X92369670Y-49803051D01*
X92365619Y-49799852D01*
X92365615Y-49799848D01*
X92198414Y-49667800D01*
X92198410Y-49667798D01*
X92194359Y-49664598D01*
X91998789Y-49556638D01*
X91993920Y-49554914D01*
X91993916Y-49554912D01*
X91793087Y-49483795D01*
X91793083Y-49483794D01*
X91788212Y-49482069D01*
X91783119Y-49481162D01*
X91783116Y-49481161D01*
X91573373Y-49443800D01*
X91573367Y-49443799D01*
X91568284Y-49442894D01*
X91494452Y-49441992D01*
X91350081Y-49440228D01*
X91350079Y-49440228D01*
X91344911Y-49440165D01*
X91124091Y-49473955D01*
X90911756Y-49543357D01*
X90713607Y-49646507D01*
X90709474Y-49649610D01*
X90709471Y-49649612D01*
X90539100Y-49777530D01*
X90534965Y-49780635D01*
X90380629Y-49942138D01*
X90273201Y-50099621D01*
X90218293Y-50144621D01*
X90147768Y-50152792D01*
X90084021Y-50121538D01*
X90063324Y-50097054D01*
X89982822Y-49972617D01*
X89982820Y-49972614D01*
X89980014Y-49968277D01*
X89829670Y-49803051D01*
X89825619Y-49799852D01*
X89825615Y-49799848D01*
X89658414Y-49667800D01*
X89658410Y-49667798D01*
X89654359Y-49664598D01*
X89458789Y-49556638D01*
X89453920Y-49554914D01*
X89453916Y-49554912D01*
X89253087Y-49483795D01*
X89253083Y-49483794D01*
X89248212Y-49482069D01*
X89243119Y-49481162D01*
X89243116Y-49481161D01*
X89033373Y-49443800D01*
X89033367Y-49443799D01*
X89028284Y-49442894D01*
X88954452Y-49441992D01*
X88810081Y-49440228D01*
X88810079Y-49440228D01*
X88804911Y-49440165D01*
X88584091Y-49473955D01*
X88371756Y-49543357D01*
X88173607Y-49646507D01*
X88169474Y-49649610D01*
X88169471Y-49649612D01*
X87999100Y-49777530D01*
X87994965Y-49780635D01*
X87840629Y-49942138D01*
X87733201Y-50099621D01*
X87678293Y-50144621D01*
X87607768Y-50152792D01*
X87544021Y-50121538D01*
X87523324Y-50097054D01*
X87442822Y-49972617D01*
X87442820Y-49972614D01*
X87440014Y-49968277D01*
X87289670Y-49803051D01*
X87285619Y-49799852D01*
X87285615Y-49799848D01*
X87118414Y-49667800D01*
X87118410Y-49667798D01*
X87114359Y-49664598D01*
X86918789Y-49556638D01*
X86913920Y-49554914D01*
X86913916Y-49554912D01*
X86713087Y-49483795D01*
X86713083Y-49483794D01*
X86708212Y-49482069D01*
X86703119Y-49481162D01*
X86703116Y-49481161D01*
X86493373Y-49443800D01*
X86493367Y-49443799D01*
X86488284Y-49442894D01*
X86414452Y-49441992D01*
X86270081Y-49440228D01*
X86270079Y-49440228D01*
X86264911Y-49440165D01*
X86044091Y-49473955D01*
X85831756Y-49543357D01*
X85633607Y-49646507D01*
X85629474Y-49649610D01*
X85629471Y-49649612D01*
X85459100Y-49777530D01*
X85454965Y-49780635D01*
X85300629Y-49942138D01*
X85193201Y-50099621D01*
X85138293Y-50144621D01*
X85067768Y-50152792D01*
X85004021Y-50121538D01*
X84983324Y-50097054D01*
X84902822Y-49972617D01*
X84902820Y-49972614D01*
X84900014Y-49968277D01*
X84749670Y-49803051D01*
X84745619Y-49799852D01*
X84745615Y-49799848D01*
X84578414Y-49667800D01*
X84578410Y-49667798D01*
X84574359Y-49664598D01*
X84378789Y-49556638D01*
X84373920Y-49554914D01*
X84373916Y-49554912D01*
X84173087Y-49483795D01*
X84173083Y-49483794D01*
X84168212Y-49482069D01*
X84163119Y-49481162D01*
X84163116Y-49481161D01*
X83953373Y-49443800D01*
X83953367Y-49443799D01*
X83948284Y-49442894D01*
X83874452Y-49441992D01*
X83730081Y-49440228D01*
X83730079Y-49440228D01*
X83724911Y-49440165D01*
X83504091Y-49473955D01*
X83291756Y-49543357D01*
X83093607Y-49646507D01*
X83089474Y-49649610D01*
X83089471Y-49649612D01*
X82919100Y-49777530D01*
X82914965Y-49780635D01*
X82911393Y-49784373D01*
X82833898Y-49865466D01*
X82772374Y-49900895D01*
X82701462Y-49897438D01*
X82643676Y-49856192D01*
X82624823Y-49822644D01*
X82583324Y-49711946D01*
X82574786Y-49696351D01*
X82498285Y-49594276D01*
X82485724Y-49581715D01*
X82383649Y-49505214D01*
X82368054Y-49496676D01*
X82247606Y-49451522D01*
X82232351Y-49447895D01*
X82181486Y-49442369D01*
X82174672Y-49442000D01*
X81552115Y-49442000D01*
X81536876Y-49446475D01*
X81535671Y-49447865D01*
X81534000Y-49455548D01*
X81534000Y-50928000D01*
X81513998Y-50996121D01*
X81460342Y-51042614D01*
X81408000Y-51054000D01*
X79940116Y-51054000D01*
X79924877Y-51058475D01*
X79923672Y-51059865D01*
X79922001Y-51067548D01*
X79922001Y-51694669D01*
X79922371Y-51701490D01*
X79927895Y-51752352D01*
X79931521Y-51767604D01*
X79976676Y-51888054D01*
X79985214Y-51903649D01*
X80052942Y-51994018D01*
X80077790Y-52060525D01*
X80062737Y-52129907D01*
X80052942Y-52145148D01*
X80040497Y-52161753D01*
X79979385Y-52243295D01*
X79928255Y-52379684D01*
X79921500Y-52441866D01*
X79921500Y-54238134D01*
X79928255Y-54300316D01*
X79979385Y-54436705D01*
X80066739Y-54553261D01*
X80183295Y-54640615D01*
X80319684Y-54691745D01*
X80381866Y-54698500D01*
X81261406Y-54698500D01*
X81329527Y-54718502D01*
X81376020Y-54772158D01*
X81386124Y-54842432D01*
X81356630Y-54907012D01*
X81350502Y-54913594D01*
X79924733Y-56339362D01*
X78514500Y-57749595D01*
X78452188Y-57783621D01*
X78425405Y-57786500D01*
X77297315Y-57786500D01*
X77229194Y-57766498D01*
X77194102Y-57732770D01*
X77191197Y-57728621D01*
X77129301Y-57640224D01*
X76979776Y-57490699D01*
X76806558Y-57369411D01*
X76801580Y-57367090D01*
X76801577Y-57367088D01*
X76619892Y-57282367D01*
X76619891Y-57282366D01*
X76614910Y-57280044D01*
X76609602Y-57278622D01*
X76609600Y-57278621D01*
X76415970Y-57226738D01*
X76415968Y-57226738D01*
X76410655Y-57225314D01*
X76200000Y-57206884D01*
X75989345Y-57225314D01*
X75984032Y-57226738D01*
X75984030Y-57226738D01*
X75790400Y-57278621D01*
X75790398Y-57278622D01*
X75785090Y-57280044D01*
X75780109Y-57282366D01*
X75780108Y-57282367D01*
X75598423Y-57367088D01*
X75598420Y-57367090D01*
X75593442Y-57369411D01*
X75420224Y-57490699D01*
X75270699Y-57640224D01*
X75208803Y-57728621D01*
X75205898Y-57732770D01*
X75150441Y-57777099D01*
X75102685Y-57786500D01*
X74936805Y-57786500D01*
X74868684Y-57766498D01*
X74831013Y-57728940D01*
X74742822Y-57592617D01*
X74742820Y-57592614D01*
X74740014Y-57588277D01*
X74589670Y-57423051D01*
X74585619Y-57419852D01*
X74585615Y-57419848D01*
X74418414Y-57287800D01*
X74418410Y-57287798D01*
X74414359Y-57284598D01*
X74406110Y-57280044D01*
X74309545Y-57226738D01*
X74218789Y-57176638D01*
X74213920Y-57174914D01*
X74213916Y-57174912D01*
X74013087Y-57103795D01*
X74013083Y-57103794D01*
X74008212Y-57102069D01*
X74003119Y-57101162D01*
X74003116Y-57101161D01*
X73793373Y-57063800D01*
X73793367Y-57063799D01*
X73788284Y-57062894D01*
X73714452Y-57061992D01*
X73570081Y-57060228D01*
X73570079Y-57060228D01*
X73564911Y-57060165D01*
X73344091Y-57093955D01*
X73131756Y-57163357D01*
X73082678Y-57188905D01*
X73013020Y-57202617D01*
X72947005Y-57176491D01*
X72905594Y-57118823D01*
X72898500Y-57077141D01*
X72898500Y-50853250D01*
X72900246Y-50832345D01*
X72902770Y-50817344D01*
X72902770Y-50817341D01*
X72903576Y-50812552D01*
X72903729Y-50800000D01*
X72902003Y-50787947D01*
X72901001Y-50761845D01*
X72915340Y-50543078D01*
X72917340Y-50527885D01*
X79922000Y-50527885D01*
X79926475Y-50543124D01*
X79927865Y-50544329D01*
X79935548Y-50546000D01*
X81007885Y-50546000D01*
X81023124Y-50541525D01*
X81024329Y-50540135D01*
X81026000Y-50532452D01*
X81026000Y-49460116D01*
X81021525Y-49444877D01*
X81020135Y-49443672D01*
X81012452Y-49442001D01*
X80385331Y-49442001D01*
X80378510Y-49442371D01*
X80327648Y-49447895D01*
X80312396Y-49451521D01*
X80191946Y-49496676D01*
X80176351Y-49505214D01*
X80074276Y-49581715D01*
X80061715Y-49594276D01*
X79985214Y-49696351D01*
X79976676Y-49711946D01*
X79931522Y-49832394D01*
X79927895Y-49847649D01*
X79922369Y-49898514D01*
X79922000Y-49905328D01*
X79922000Y-50527885D01*
X72917340Y-50527885D01*
X72917491Y-50526738D01*
X72956763Y-50329305D01*
X72966112Y-50282304D01*
X72970375Y-50266394D01*
X73050485Y-50030398D01*
X73056791Y-50015174D01*
X73167016Y-49791658D01*
X73175257Y-49777384D01*
X73313713Y-49570171D01*
X73323746Y-49557095D01*
X73488068Y-49369722D01*
X73499722Y-49358068D01*
X73687095Y-49193746D01*
X73700171Y-49183713D01*
X73907384Y-49045257D01*
X73921658Y-49037016D01*
X74145174Y-48926791D01*
X74160400Y-48920484D01*
X74196387Y-48908268D01*
X74396394Y-48840375D01*
X74412304Y-48836112D01*
X74534523Y-48811801D01*
X74656738Y-48787491D01*
X74673078Y-48785340D01*
X74821866Y-48775587D01*
X74888237Y-48771237D01*
X74911350Y-48772267D01*
X74914854Y-48772310D01*
X74923724Y-48773691D01*
X74932626Y-48772527D01*
X74932628Y-48772527D01*
X74949449Y-48770327D01*
X74955286Y-48769564D01*
X74971621Y-48768500D01*
X100280633Y-48768500D01*
X100300018Y-48770000D01*
G37*
%TD.AperFunction*%
%TD*%
M02*
