%TF.GenerationSoftware,KiCad,Pcbnew,(6.0.7)*%
%TF.CreationDate,2023-01-08T16:14:19+02:00*%
%TF.ProjectId,Design,44657369-676e-42e6-9b69-6361645f7063,rev?*%
%TF.SameCoordinates,Original*%
%TF.FileFunction,Copper,L1,Top*%
%TF.FilePolarity,Positive*%
%FSLAX46Y46*%
G04 Gerber Fmt 4.6, Leading zero omitted, Abs format (unit mm)*
G04 Created by KiCad (PCBNEW (6.0.7)) date 2023-01-08 16:14:19*
%MOMM*%
%LPD*%
G01*
G04 APERTURE LIST*
%TA.AperFunction,ComponentPad*%
%ADD10R,2.200000X2.200000*%
%TD*%
%TA.AperFunction,ComponentPad*%
%ADD11O,2.200000X2.200000*%
%TD*%
%TA.AperFunction,ComponentPad*%
%ADD12R,1.050000X1.500000*%
%TD*%
%TA.AperFunction,ComponentPad*%
%ADD13O,1.050000X1.500000*%
%TD*%
%TA.AperFunction,ComponentPad*%
%ADD14R,1.700000X1.700000*%
%TD*%
%TA.AperFunction,ComponentPad*%
%ADD15O,1.700000X1.700000*%
%TD*%
%TA.AperFunction,ComponentPad*%
%ADD16C,1.400000*%
%TD*%
%TA.AperFunction,ComponentPad*%
%ADD17O,1.400000X1.400000*%
%TD*%
%TA.AperFunction,ViaPad*%
%ADD18C,0.800000*%
%TD*%
%TA.AperFunction,Conductor*%
%ADD19C,0.250000*%
%TD*%
G04 APERTURE END LIST*
D10*
%TO.P,D1,1,K*%
%TO.N,A0*%
X92710000Y-58420000D03*
D11*
%TO.P,D1,2,A*%
%TO.N,Net-(D1-Pad2)*%
X92710000Y-68580000D03*
%TD*%
D12*
%TO.P,Q1,1,C*%
%TO.N,Xaxis*%
X90170000Y-72390000D03*
D13*
%TO.P,Q1,2,B*%
%TO.N,Net-(Q1-Pad2)*%
X91440000Y-72390000D03*
%TO.P,Q1,3,E*%
%TO.N,Net-(D1-Pad2)*%
X92710000Y-72390000D03*
%TD*%
D14*
%TO.P,J1,1,Pin_1*%
%TO.N,3V*%
X78740000Y-100012500D03*
D15*
%TO.P,J1,2,Pin_2*%
%TO.N,G*%
X81280000Y-100012500D03*
%TO.P,J1,3,Pin_3*%
%TO.N,D1*%
X83820000Y-100012500D03*
%TO.P,J1,4,Pin_4*%
%TO.N,D2*%
X86360000Y-100012500D03*
%TO.P,J1,5,Pin_5*%
%TO.N,unconnected-(J1-Pad5)*%
X88900000Y-100012500D03*
%TO.P,J1,6,Pin_6*%
%TO.N,unconnected-(J1-Pad6)*%
X91440000Y-100012500D03*
%TO.P,J1,7,Pin_7*%
%TO.N,Net-(J1-Pad7)*%
X93980000Y-100012500D03*
%TO.P,J1,8,Pin_8*%
%TO.N,unconnected-(J1-Pad8)*%
X96520000Y-100012500D03*
%TD*%
D14*
%TO.P,J3,1,Pin_1*%
%TO.N,3V*%
X73660000Y-93980000D03*
D15*
%TO.P,J3,2,Pin_2*%
%TO.N,G*%
X73660000Y-91440000D03*
%TO.P,J3,3,Pin_3*%
%TO.N,TX*%
X73660000Y-88900000D03*
%TO.P,J3,4,Pin_4*%
%TO.N,RT*%
X73660000Y-86360000D03*
%TO.P,J3,5,Pin_5*%
%TO.N,D8*%
X73660000Y-83820000D03*
%TO.P,J3,6,Pin_6*%
%TO.N,D7*%
X73660000Y-81280000D03*
%TO.P,J3,7,Pin_7*%
%TO.N,D6*%
X73660000Y-78740000D03*
%TO.P,J3,8,Pin_8*%
%TO.N,D5*%
X73660000Y-76200000D03*
%TO.P,J3,9,Pin_9*%
%TO.N,G*%
X73660000Y-73660000D03*
%TO.P,J3,10,Pin_10*%
%TO.N,3V*%
X73660000Y-71120000D03*
%TO.P,J3,11,Pin_11*%
%TO.N,D4*%
X73660000Y-68580000D03*
%TO.P,J3,12,Pin_12*%
%TO.N,D3*%
X73660000Y-66040000D03*
%TO.P,J3,13,Pin_13*%
%TO.N,D2*%
X73660000Y-63500000D03*
%TO.P,J3,14,Pin_14*%
%TO.N,D1*%
X73660000Y-60960000D03*
%TO.P,J3,15,Pin_15*%
%TO.N,D0*%
X73660000Y-58420000D03*
%TD*%
D16*
%TO.P,R6,1*%
%TO.N,D3*%
X76200000Y-66040000D03*
D17*
%TO.P,R6,2*%
%TO.N,G*%
X83820000Y-66040000D03*
%TD*%
D16*
%TO.P,R7,1*%
%TO.N,D4*%
X76200000Y-68580000D03*
D17*
%TO.P,R7,2*%
%TO.N,G*%
X83820000Y-68580000D03*
%TD*%
%TO.P,R5,2*%
%TO.N,G*%
X83820000Y-58420000D03*
D16*
%TO.P,R5,1*%
%TO.N,D0*%
X76200000Y-58420000D03*
%TD*%
D17*
%TO.P,R8,2*%
%TO.N,D8*%
X80010000Y-83820000D03*
D16*
%TO.P,R8,1*%
%TO.N,Net-(Q2-Pad2)*%
X87630000Y-83820000D03*
%TD*%
D17*
%TO.P,R9,2*%
%TO.N,G*%
X97790000Y-85090000D03*
D16*
%TO.P,R9,1*%
%TO.N,Net-(D2-Pad2)*%
X97790000Y-77470000D03*
%TD*%
D14*
%TO.P,J5,1,Pin_1*%
%TO.N,G*%
X81280000Y-50800000D03*
D15*
%TO.P,J5,2,Pin_2*%
%TO.N,3V*%
X83820000Y-50800000D03*
%TO.P,J5,3,Pin_3*%
%TO.N,Xaxis*%
X86360000Y-50800000D03*
%TO.P,J5,4,Pin_4*%
%TO.N,Yaxis*%
X88900000Y-50800000D03*
%TO.P,J5,5,Pin_5*%
%TO.N,unconnected-(J5-Pad5)*%
X91440000Y-50800000D03*
%TD*%
%TO.P,J7,5,Pin_5*%
%TO.N,unconnected-(J7-Pad5)*%
X91440000Y-53340000D03*
%TO.P,J7,4,Pin_4*%
%TO.N,D4*%
X88900000Y-53340000D03*
%TO.P,J7,3,Pin_3*%
%TO.N,D3*%
X86360000Y-53340000D03*
%TO.P,J7,2,Pin_2*%
%TO.N,D0*%
X83820000Y-53340000D03*
D14*
%TO.P,J7,1,Pin_1*%
%TO.N,3V*%
X81280000Y-53340000D03*
%TD*%
%TO.P,J6,1,Pin_1*%
%TO.N,G*%
X97790000Y-53340000D03*
D15*
%TO.P,J6,2,Pin_2*%
%TO.N,3V*%
X97790000Y-50800000D03*
%TD*%
D16*
%TO.P,R3,1*%
%TO.N,Net-(Q1-Pad2)*%
X87630000Y-81280000D03*
D17*
%TO.P,R3,2*%
%TO.N,D7*%
X80010000Y-81280000D03*
%TD*%
D10*
%TO.P,D2,1,K*%
%TO.N,A0*%
X97790000Y-58420000D03*
D11*
%TO.P,D2,2,A*%
%TO.N,Net-(D2-Pad2)*%
X97790000Y-68580000D03*
%TD*%
D12*
%TO.P,Q2,1,C*%
%TO.N,Yaxis*%
X95250000Y-72390000D03*
D13*
%TO.P,Q2,2,B*%
%TO.N,Net-(Q2-Pad2)*%
X96520000Y-72390000D03*
%TO.P,Q2,3,E*%
%TO.N,Net-(D2-Pad2)*%
X97790000Y-72390000D03*
%TD*%
D16*
%TO.P,R2,1*%
%TO.N,D6*%
X91440000Y-88900000D03*
D17*
%TO.P,R2,2*%
%TO.N,Net-(J4-Pad7)*%
X91440000Y-96520000D03*
%TD*%
D16*
%TO.P,R1,1*%
%TO.N,D5*%
X93980000Y-88900000D03*
D17*
%TO.P,R1,2*%
%TO.N,Net-(J1-Pad7)*%
X93980000Y-96520000D03*
%TD*%
%TO.P,R4,2*%
%TO.N,G*%
X92710000Y-85090000D03*
D16*
%TO.P,R4,1*%
%TO.N,Net-(D1-Pad2)*%
X92710000Y-77470000D03*
%TD*%
D14*
%TO.P,J2,1,Pin_1*%
%TO.N,A0*%
X101600000Y-58420000D03*
D15*
%TO.P,J2,2,Pin_2*%
%TO.N,G*%
X101600000Y-60960000D03*
%TO.P,J2,3,Pin_3*%
%TO.N,VV*%
X101600000Y-63500000D03*
%TO.P,J2,4,Pin_4*%
%TO.N,S3*%
X101600000Y-66040000D03*
%TO.P,J2,5,Pin_5*%
%TO.N,S2*%
X101600000Y-68580000D03*
%TO.P,J2,6,Pin_6*%
%TO.N,S1*%
X101600000Y-71120000D03*
%TO.P,J2,7,Pin_7*%
%TO.N,Sc*%
X101600000Y-73660000D03*
%TO.P,J2,8,Pin_8*%
%TO.N,S0*%
X101600000Y-76200000D03*
%TO.P,J2,9,Pin_9*%
%TO.N,SK*%
X101600000Y-78740000D03*
%TO.P,J2,10,Pin_10*%
%TO.N,G*%
X101600000Y-81280000D03*
%TO.P,J2,11,Pin_11*%
%TO.N,3V*%
X101600000Y-83820000D03*
%TO.P,J2,12,Pin_12*%
%TO.N,EN*%
X101600000Y-86360000D03*
%TO.P,J2,13,Pin_13*%
%TO.N,RST*%
X101600000Y-88900000D03*
%TO.P,J2,14,Pin_14*%
%TO.N,G*%
X101600000Y-91440000D03*
%TO.P,J2,15,Pin_15*%
%TO.N,Vin*%
X101600000Y-93980000D03*
%TD*%
%TO.P,J4,8,Pin_8*%
%TO.N,unconnected-(J4-Pad8)*%
X96520000Y-104140000D03*
%TO.P,J4,7,Pin_7*%
%TO.N,Net-(J4-Pad7)*%
X93980000Y-104140000D03*
%TO.P,J4,6,Pin_6*%
%TO.N,unconnected-(J4-Pad6)*%
X91440000Y-104140000D03*
%TO.P,J4,5,Pin_5*%
%TO.N,unconnected-(J4-Pad5)*%
X88900000Y-104140000D03*
%TO.P,J4,4,Pin_4*%
%TO.N,D2*%
X86360000Y-104140000D03*
%TO.P,J4,3,Pin_3*%
%TO.N,D1*%
X83820000Y-104140000D03*
%TO.P,J4,2,Pin_2*%
%TO.N,G*%
X81280000Y-104140000D03*
D14*
%TO.P,J4,1,Pin_1*%
%TO.N,3V*%
X78740000Y-104140000D03*
%TD*%
D18*
%TO.N,3V*%
X81280000Y-62230000D03*
%TO.N,D2*%
X78740000Y-72390000D03*
X83820000Y-76200000D03*
%TD*%
D19*
%TO.N,3V*%
X81280000Y-65607180D02*
X81280000Y-62230000D01*
X75767180Y-71120000D02*
X81280000Y-65607180D01*
X73660000Y-71120000D02*
X75767180Y-71120000D01*
%TO.N,D2*%
X80010000Y-72390000D02*
X78740000Y-72390000D01*
X83820000Y-76200000D02*
X80010000Y-72390000D01*
%TO.N,D7*%
X73660000Y-81280000D02*
X80010000Y-81280000D01*
%TO.N,D8*%
X80010000Y-83820000D02*
X73660000Y-83820000D01*
%TO.N,3V*%
X78740000Y-100012500D02*
X78740000Y-99060000D01*
X78740000Y-99060000D02*
X73660000Y-93980000D01*
X78740000Y-104140000D02*
X78740000Y-100012500D01*
%TO.N,G*%
X81280000Y-104140000D02*
X81280000Y-100012500D01*
%TO.N,D1*%
X83820000Y-104140000D02*
X83820000Y-100012500D01*
%TO.N,D2*%
X86360000Y-104140000D02*
X86360000Y-100012500D01*
%TO.N,Yaxis*%
X95250000Y-67310000D02*
X95250000Y-72390000D01*
X90620000Y-62680000D02*
X95250000Y-67310000D01*
X90620000Y-57660000D02*
X90620000Y-62680000D01*
X91196433Y-57083567D02*
X90620000Y-57660000D01*
X91373567Y-57083567D02*
X91196433Y-57083567D01*
X90620000Y-57837134D02*
X91373567Y-57083567D01*
X92400000Y-55880000D02*
X90620000Y-57660000D01*
X93980000Y-55880000D02*
X92400000Y-55880000D01*
X93980000Y-53340000D02*
X93980000Y-55880000D01*
X92714278Y-52074278D02*
X93980000Y-53340000D01*
X90620000Y-57660000D02*
X90620000Y-58420000D01*
X90174278Y-52074278D02*
X92714278Y-52074278D01*
X90620000Y-58420000D02*
X90620000Y-57837134D01*
X88900000Y-50800000D02*
X90174278Y-52074278D01*
%TO.N,Xaxis*%
X87630000Y-52070000D02*
X86360000Y-50800000D01*
X89428558Y-52070000D02*
X87630000Y-52070000D01*
X90170000Y-72390000D02*
X90170000Y-52811442D01*
X90170000Y-52811442D02*
X89428558Y-52070000D01*
%TO.N,Net-(Q1-Pad2)*%
X87630000Y-77200000D02*
X87630000Y-81280000D01*
X91440000Y-73390000D02*
X87630000Y-77200000D01*
X91440000Y-72390000D02*
X91440000Y-73390000D01*
%TO.N,Net-(Q2-Pad2)*%
X96520000Y-81280000D02*
X93980000Y-83820000D01*
X93980000Y-83820000D02*
X87630000Y-83820000D01*
X96520000Y-72390000D02*
X96520000Y-81280000D01*
%TO.N,G*%
X97790000Y-85090000D02*
X92710000Y-85090000D01*
%TO.N,Net-(D2-Pad2)*%
X97790000Y-77470000D02*
X97790000Y-72390000D01*
%TO.N,Net-(D1-Pad2)*%
X92710000Y-77470000D02*
X92710000Y-72390000D01*
%TO.N,Net-(D2-Pad2)*%
X97790000Y-72390000D02*
X97790000Y-68580000D01*
%TO.N,Net-(D1-Pad2)*%
X92710000Y-68580000D02*
X92710000Y-72390000D01*
%TO.N,A0*%
X101600000Y-58420000D02*
X97790000Y-58420000D01*
X97790000Y-58420000D02*
X92710000Y-58420000D01*
%TO.N,D4*%
X83186396Y-57150000D02*
X77470000Y-62866396D01*
X85090000Y-57150000D02*
X83186396Y-57150000D01*
X77470000Y-62866396D02*
X77470000Y-67310000D01*
X88900000Y-53340000D02*
X85090000Y-57150000D01*
X77470000Y-67310000D02*
X76200000Y-68580000D01*
%TO.N,D3*%
X76200000Y-63500000D02*
X86360000Y-53340000D01*
X76200000Y-66040000D02*
X76200000Y-63500000D01*
%TO.N,D0*%
X78740000Y-58420000D02*
X83820000Y-53340000D01*
X76200000Y-58420000D02*
X78740000Y-58420000D01*
X73660000Y-58420000D02*
X76200000Y-58420000D01*
%TO.N,G*%
X83820000Y-68580000D02*
X83820000Y-66040000D01*
X83820000Y-66040000D02*
X83820000Y-58420000D01*
%TO.N,D4*%
X73660000Y-68580000D02*
X76200000Y-68580000D01*
%TO.N,D3*%
X76200000Y-66040000D02*
X73660000Y-66040000D01*
%TO.N,D5*%
X78386447Y-76200000D02*
X73660000Y-76200000D01*
X93980000Y-88900000D02*
X92955000Y-87875000D01*
X92955000Y-87875000D02*
X90061447Y-87875000D01*
X90061447Y-87875000D02*
X78386447Y-76200000D01*
%TO.N,D6*%
X91440000Y-88900000D02*
X90450051Y-88900000D01*
X90450051Y-88900000D02*
X80290051Y-78740000D01*
X80290051Y-78740000D02*
X73660000Y-78740000D01*
%TO.N,Net-(J1-Pad7)*%
X93980000Y-100012500D02*
X93980000Y-96520000D01*
%TO.N,Net-(J4-Pad7)*%
X92805000Y-97885000D02*
X91440000Y-96520000D01*
X92805000Y-102965000D02*
X92805000Y-97885000D01*
X93980000Y-104140000D02*
X92805000Y-102965000D01*
%TD*%
M02*
