%TF.GenerationSoftware,KiCad,Pcbnew,(6.0.7)*%
%TF.CreationDate,2023-01-13T16:37:57+02:00*%
%TF.ProjectId,Design,44657369-676e-42e6-9b69-6361645f7063,rev?*%
%TF.SameCoordinates,Original*%
%TF.FileFunction,Legend,Top*%
%TF.FilePolarity,Positive*%
%FSLAX46Y46*%
G04 Gerber Fmt 4.6, Leading zero omitted, Abs format (unit mm)*
G04 Created by KiCad (PCBNEW (6.0.7)) date 2023-01-13 16:37:57*
%MOMM*%
%LPD*%
G01*
G04 APERTURE LIST*
%ADD10C,0.150000*%
%ADD11C,0.120000*%
G04 APERTURE END LIST*
D10*
%TO.C,J5*%
X78402380Y-51133333D02*
X79116666Y-51133333D01*
X79259523Y-51180952D01*
X79354761Y-51276190D01*
X79402380Y-51419047D01*
X79402380Y-51514285D01*
X78402380Y-50180952D02*
X78402380Y-50657142D01*
X78878571Y-50704761D01*
X78830952Y-50657142D01*
X78783333Y-50561904D01*
X78783333Y-50323809D01*
X78830952Y-50228571D01*
X78878571Y-50180952D01*
X78973809Y-50133333D01*
X79211904Y-50133333D01*
X79307142Y-50180952D01*
X79354761Y-50228571D01*
X79402380Y-50323809D01*
X79402380Y-50561904D01*
X79354761Y-50657142D01*
X79307142Y-50704761D01*
%TO.C,J1*%
X75862380Y-100345833D02*
X76576666Y-100345833D01*
X76719523Y-100393452D01*
X76814761Y-100488690D01*
X76862380Y-100631547D01*
X76862380Y-100726785D01*
X76862380Y-99345833D02*
X76862380Y-99917261D01*
X76862380Y-99631547D02*
X75862380Y-99631547D01*
X76005238Y-99726785D01*
X76100476Y-99822023D01*
X76148095Y-99917261D01*
%TO.C,Q2*%
X96424761Y-69377619D02*
X96329523Y-69330000D01*
X96234285Y-69234761D01*
X96091428Y-69091904D01*
X95996190Y-69044285D01*
X95900952Y-69044285D01*
X95948571Y-69282380D02*
X95853333Y-69234761D01*
X95758095Y-69139523D01*
X95710476Y-68949047D01*
X95710476Y-68615714D01*
X95758095Y-68425238D01*
X95853333Y-68330000D01*
X95948571Y-68282380D01*
X96139047Y-68282380D01*
X96234285Y-68330000D01*
X96329523Y-68425238D01*
X96377142Y-68615714D01*
X96377142Y-68949047D01*
X96329523Y-69139523D01*
X96234285Y-69234761D01*
X96139047Y-69282380D01*
X95948571Y-69282380D01*
X96758095Y-68377619D02*
X96805714Y-68330000D01*
X96900952Y-68282380D01*
X97139047Y-68282380D01*
X97234285Y-68330000D01*
X97281904Y-68377619D01*
X97329523Y-68472857D01*
X97329523Y-68568095D01*
X97281904Y-68710952D01*
X96710476Y-69282380D01*
X97329523Y-69282380D01*
%TO.C,D1*%
X95702380Y-64238095D02*
X94702380Y-64238095D01*
X94702380Y-64000000D01*
X94750000Y-63857142D01*
X94845238Y-63761904D01*
X94940476Y-63714285D01*
X95130952Y-63666666D01*
X95273809Y-63666666D01*
X95464285Y-63714285D01*
X95559523Y-63761904D01*
X95654761Y-63857142D01*
X95702380Y-64000000D01*
X95702380Y-64238095D01*
X95702380Y-62714285D02*
X95702380Y-63285714D01*
X95702380Y-63000000D02*
X94702380Y-63000000D01*
X94845238Y-63095238D01*
X94940476Y-63190476D01*
X94988095Y-63285714D01*
X95262380Y-58681904D02*
X94262380Y-58681904D01*
X95262380Y-58110476D02*
X94690952Y-58539047D01*
X94262380Y-58110476D02*
X94833809Y-58681904D01*
%TO.C,D2*%
X100712380Y-64238095D02*
X99712380Y-64238095D01*
X99712380Y-64000000D01*
X99760000Y-63857142D01*
X99855238Y-63761904D01*
X99950476Y-63714285D01*
X100140952Y-63666666D01*
X100283809Y-63666666D01*
X100474285Y-63714285D01*
X100569523Y-63761904D01*
X100664761Y-63857142D01*
X100712380Y-64000000D01*
X100712380Y-64238095D01*
X99807619Y-63285714D02*
X99760000Y-63238095D01*
X99712380Y-63142857D01*
X99712380Y-62904761D01*
X99760000Y-62809523D01*
X99807619Y-62761904D01*
X99902857Y-62714285D01*
X99998095Y-62714285D01*
X100140952Y-62761904D01*
X100712380Y-63333333D01*
X100712380Y-62714285D01*
X100342380Y-58681904D02*
X99342380Y-58681904D01*
X100342380Y-58110476D02*
X99770952Y-58539047D01*
X99342380Y-58110476D02*
X99913809Y-58681904D01*
%TO.C,R2*%
X93812380Y-92876666D02*
X93336190Y-93210000D01*
X93812380Y-93448095D02*
X92812380Y-93448095D01*
X92812380Y-93067142D01*
X92860000Y-92971904D01*
X92907619Y-92924285D01*
X93002857Y-92876666D01*
X93145714Y-92876666D01*
X93240952Y-92924285D01*
X93288571Y-92971904D01*
X93336190Y-93067142D01*
X93336190Y-93448095D01*
X92907619Y-92495714D02*
X92860000Y-92448095D01*
X92812380Y-92352857D01*
X92812380Y-92114761D01*
X92860000Y-92019523D01*
X92907619Y-91971904D01*
X93002857Y-91924285D01*
X93098095Y-91924285D01*
X93240952Y-91971904D01*
X93812380Y-92543333D01*
X93812380Y-91924285D01*
%TO.C,R5*%
X79843333Y-56952380D02*
X79510000Y-56476190D01*
X79271904Y-56952380D02*
X79271904Y-55952380D01*
X79652857Y-55952380D01*
X79748095Y-56000000D01*
X79795714Y-56047619D01*
X79843333Y-56142857D01*
X79843333Y-56285714D01*
X79795714Y-56380952D01*
X79748095Y-56428571D01*
X79652857Y-56476190D01*
X79271904Y-56476190D01*
X80748095Y-55952380D02*
X80271904Y-55952380D01*
X80224285Y-56428571D01*
X80271904Y-56380952D01*
X80367142Y-56333333D01*
X80605238Y-56333333D01*
X80700476Y-56380952D01*
X80748095Y-56428571D01*
X80795714Y-56523809D01*
X80795714Y-56761904D01*
X80748095Y-56857142D01*
X80700476Y-56904761D01*
X80605238Y-56952380D01*
X80367142Y-56952380D01*
X80271904Y-56904761D01*
X80224285Y-56857142D01*
%TO.C,R1*%
X97152380Y-92876666D02*
X96676190Y-93210000D01*
X97152380Y-93448095D02*
X96152380Y-93448095D01*
X96152380Y-93067142D01*
X96200000Y-92971904D01*
X96247619Y-92924285D01*
X96342857Y-92876666D01*
X96485714Y-92876666D01*
X96580952Y-92924285D01*
X96628571Y-92971904D01*
X96676190Y-93067142D01*
X96676190Y-93448095D01*
X97152380Y-91924285D02*
X97152380Y-92495714D01*
X97152380Y-92210000D02*
X96152380Y-92210000D01*
X96295238Y-92305238D01*
X96390476Y-92400476D01*
X96438095Y-92495714D01*
%TO.C,R7*%
X79843333Y-67112380D02*
X79510000Y-66636190D01*
X79271904Y-67112380D02*
X79271904Y-66112380D01*
X79652857Y-66112380D01*
X79748095Y-66160000D01*
X79795714Y-66207619D01*
X79843333Y-66302857D01*
X79843333Y-66445714D01*
X79795714Y-66540952D01*
X79748095Y-66588571D01*
X79652857Y-66636190D01*
X79271904Y-66636190D01*
X80176666Y-66112380D02*
X80843333Y-66112380D01*
X80414761Y-67112380D01*
%TO.C,R3*%
X83653333Y-83652380D02*
X83320000Y-83176190D01*
X83081904Y-83652380D02*
X83081904Y-82652380D01*
X83462857Y-82652380D01*
X83558095Y-82700000D01*
X83605714Y-82747619D01*
X83653333Y-82842857D01*
X83653333Y-82985714D01*
X83605714Y-83080952D01*
X83558095Y-83128571D01*
X83462857Y-83176190D01*
X83081904Y-83176190D01*
X83986666Y-82652380D02*
X84605714Y-82652380D01*
X84272380Y-83033333D01*
X84415238Y-83033333D01*
X84510476Y-83080952D01*
X84558095Y-83128571D01*
X84605714Y-83223809D01*
X84605714Y-83461904D01*
X84558095Y-83557142D01*
X84510476Y-83604761D01*
X84415238Y-83652380D01*
X84129523Y-83652380D01*
X84034285Y-83604761D01*
X83986666Y-83557142D01*
%TO.C,J3*%
X73326666Y-95762380D02*
X73326666Y-96476666D01*
X73279047Y-96619523D01*
X73183809Y-96714761D01*
X73040952Y-96762380D01*
X72945714Y-96762380D01*
X73707619Y-95762380D02*
X74326666Y-95762380D01*
X73993333Y-96143333D01*
X74136190Y-96143333D01*
X74231428Y-96190952D01*
X74279047Y-96238571D01*
X74326666Y-96333809D01*
X74326666Y-96571904D01*
X74279047Y-96667142D01*
X74231428Y-96714761D01*
X74136190Y-96762380D01*
X73850476Y-96762380D01*
X73755238Y-96714761D01*
X73707619Y-96667142D01*
%TO.C,R8*%
X83653333Y-86192380D02*
X83320000Y-85716190D01*
X83081904Y-86192380D02*
X83081904Y-85192380D01*
X83462857Y-85192380D01*
X83558095Y-85240000D01*
X83605714Y-85287619D01*
X83653333Y-85382857D01*
X83653333Y-85525714D01*
X83605714Y-85620952D01*
X83558095Y-85668571D01*
X83462857Y-85716190D01*
X83081904Y-85716190D01*
X84224761Y-85620952D02*
X84129523Y-85573333D01*
X84081904Y-85525714D01*
X84034285Y-85430476D01*
X84034285Y-85382857D01*
X84081904Y-85287619D01*
X84129523Y-85240000D01*
X84224761Y-85192380D01*
X84415238Y-85192380D01*
X84510476Y-85240000D01*
X84558095Y-85287619D01*
X84605714Y-85382857D01*
X84605714Y-85430476D01*
X84558095Y-85525714D01*
X84510476Y-85573333D01*
X84415238Y-85620952D01*
X84224761Y-85620952D01*
X84129523Y-85668571D01*
X84081904Y-85716190D01*
X84034285Y-85811428D01*
X84034285Y-86001904D01*
X84081904Y-86097142D01*
X84129523Y-86144761D01*
X84224761Y-86192380D01*
X84415238Y-86192380D01*
X84510476Y-86144761D01*
X84558095Y-86097142D01*
X84605714Y-86001904D01*
X84605714Y-85811428D01*
X84558095Y-85716190D01*
X84510476Y-85668571D01*
X84415238Y-85620952D01*
%TO.C,J7*%
X78402380Y-53673333D02*
X79116666Y-53673333D01*
X79259523Y-53720952D01*
X79354761Y-53816190D01*
X79402380Y-53959047D01*
X79402380Y-54054285D01*
X78402380Y-53292380D02*
X78402380Y-52625714D01*
X79402380Y-53054285D01*
%TO.C,R6*%
X79843333Y-63772380D02*
X79510000Y-63296190D01*
X79271904Y-63772380D02*
X79271904Y-62772380D01*
X79652857Y-62772380D01*
X79748095Y-62820000D01*
X79795714Y-62867619D01*
X79843333Y-62962857D01*
X79843333Y-63105714D01*
X79795714Y-63200952D01*
X79748095Y-63248571D01*
X79652857Y-63296190D01*
X79271904Y-63296190D01*
X80700476Y-62772380D02*
X80510000Y-62772380D01*
X80414761Y-62820000D01*
X80367142Y-62867619D01*
X80271904Y-63010476D01*
X80224285Y-63200952D01*
X80224285Y-63581904D01*
X80271904Y-63677142D01*
X80319523Y-63724761D01*
X80414761Y-63772380D01*
X80605238Y-63772380D01*
X80700476Y-63724761D01*
X80748095Y-63677142D01*
X80795714Y-63581904D01*
X80795714Y-63343809D01*
X80748095Y-63248571D01*
X80700476Y-63200952D01*
X80605238Y-63153333D01*
X80414761Y-63153333D01*
X80319523Y-63200952D01*
X80271904Y-63248571D01*
X80224285Y-63343809D01*
%TO.C,R4*%
X95082380Y-81446666D02*
X94606190Y-81780000D01*
X95082380Y-82018095D02*
X94082380Y-82018095D01*
X94082380Y-81637142D01*
X94130000Y-81541904D01*
X94177619Y-81494285D01*
X94272857Y-81446666D01*
X94415714Y-81446666D01*
X94510952Y-81494285D01*
X94558571Y-81541904D01*
X94606190Y-81637142D01*
X94606190Y-82018095D01*
X94415714Y-80589523D02*
X95082380Y-80589523D01*
X94034761Y-80827619D02*
X94749047Y-81065714D01*
X94749047Y-80446666D01*
%TO.C,J6*%
X97456666Y-55562380D02*
X97456666Y-56276666D01*
X97409047Y-56419523D01*
X97313809Y-56514761D01*
X97170952Y-56562380D01*
X97075714Y-56562380D01*
X98361428Y-55562380D02*
X98170952Y-55562380D01*
X98075714Y-55610000D01*
X98028095Y-55657619D01*
X97932857Y-55800476D01*
X97885238Y-55990952D01*
X97885238Y-56371904D01*
X97932857Y-56467142D01*
X97980476Y-56514761D01*
X98075714Y-56562380D01*
X98266190Y-56562380D01*
X98361428Y-56514761D01*
X98409047Y-56467142D01*
X98456666Y-56371904D01*
X98456666Y-56133809D01*
X98409047Y-56038571D01*
X98361428Y-55990952D01*
X98266190Y-55943333D01*
X98075714Y-55943333D01*
X97980476Y-55990952D01*
X97932857Y-56038571D01*
X97885238Y-56133809D01*
%TO.C,R9*%
X100162380Y-81446666D02*
X99686190Y-81780000D01*
X100162380Y-82018095D02*
X99162380Y-82018095D01*
X99162380Y-81637142D01*
X99210000Y-81541904D01*
X99257619Y-81494285D01*
X99352857Y-81446666D01*
X99495714Y-81446666D01*
X99590952Y-81494285D01*
X99638571Y-81541904D01*
X99686190Y-81637142D01*
X99686190Y-82018095D01*
X100162380Y-80970476D02*
X100162380Y-80780000D01*
X100114761Y-80684761D01*
X100067142Y-80637142D01*
X99924285Y-80541904D01*
X99733809Y-80494285D01*
X99352857Y-80494285D01*
X99257619Y-80541904D01*
X99210000Y-80589523D01*
X99162380Y-80684761D01*
X99162380Y-80875238D01*
X99210000Y-80970476D01*
X99257619Y-81018095D01*
X99352857Y-81065714D01*
X99590952Y-81065714D01*
X99686190Y-81018095D01*
X99733809Y-80970476D01*
X99781428Y-80875238D01*
X99781428Y-80684761D01*
X99733809Y-80589523D01*
X99686190Y-80541904D01*
X99590952Y-80494285D01*
%TO.C,J2*%
X101266666Y-55542380D02*
X101266666Y-56256666D01*
X101219047Y-56399523D01*
X101123809Y-56494761D01*
X100980952Y-56542380D01*
X100885714Y-56542380D01*
X101695238Y-55637619D02*
X101742857Y-55590000D01*
X101838095Y-55542380D01*
X102076190Y-55542380D01*
X102171428Y-55590000D01*
X102219047Y-55637619D01*
X102266666Y-55732857D01*
X102266666Y-55828095D01*
X102219047Y-55970952D01*
X101647619Y-56542380D01*
X102266666Y-56542380D01*
%TO.C,Q1*%
X91344761Y-69377619D02*
X91249523Y-69330000D01*
X91154285Y-69234761D01*
X91011428Y-69091904D01*
X90916190Y-69044285D01*
X90820952Y-69044285D01*
X90868571Y-69282380D02*
X90773333Y-69234761D01*
X90678095Y-69139523D01*
X90630476Y-68949047D01*
X90630476Y-68615714D01*
X90678095Y-68425238D01*
X90773333Y-68330000D01*
X90868571Y-68282380D01*
X91059047Y-68282380D01*
X91154285Y-68330000D01*
X91249523Y-68425238D01*
X91297142Y-68615714D01*
X91297142Y-68949047D01*
X91249523Y-69139523D01*
X91154285Y-69234761D01*
X91059047Y-69282380D01*
X90868571Y-69282380D01*
X92249523Y-69282380D02*
X91678095Y-69282380D01*
X91963809Y-69282380D02*
X91963809Y-68282380D01*
X91868571Y-68425238D01*
X91773333Y-68520476D01*
X91678095Y-68568095D01*
%TO.C,J4*%
X75862380Y-104473333D02*
X76576666Y-104473333D01*
X76719523Y-104520952D01*
X76814761Y-104616190D01*
X76862380Y-104759047D01*
X76862380Y-104854285D01*
X76195714Y-103568571D02*
X76862380Y-103568571D01*
X75814761Y-103806666D02*
X76529047Y-104044761D01*
X76529047Y-103425714D01*
D11*
%TO.C,J5*%
X81280000Y-52130000D02*
X79950000Y-52130000D01*
X82550000Y-49470000D02*
X92770000Y-49470000D01*
X82550000Y-52130000D02*
X92770000Y-52130000D01*
X79950000Y-52130000D02*
X79950000Y-50800000D01*
X82550000Y-52130000D02*
X82550000Y-49470000D01*
X92770000Y-52130000D02*
X92770000Y-49470000D01*
%TO.C,J1*%
X97850000Y-101342500D02*
X97850000Y-98682500D01*
X77410000Y-101342500D02*
X77410000Y-100012500D01*
X80010000Y-101342500D02*
X97850000Y-101342500D01*
X80010000Y-98682500D02*
X97850000Y-98682500D01*
X78740000Y-101342500D02*
X77410000Y-101342500D01*
X80010000Y-101342500D02*
X80010000Y-98682500D01*
%TO.C,Q2*%
X94720000Y-74240000D02*
X98320000Y-74240000D01*
X98358478Y-74228478D02*
G75*
G03*
X96520000Y-69790000I-1838478J1838478D01*
G01*
X96520000Y-69789999D02*
G75*
G03*
X94681522Y-74228478I0J-2600001D01*
G01*
%TO.C,D1*%
X94180000Y-61800000D02*
X91240000Y-61800000D01*
X91240000Y-66220000D02*
X94180000Y-66220000D01*
X91240000Y-60780000D02*
X91240000Y-66220000D01*
X92710000Y-67240000D02*
X92710000Y-66220000D01*
X92710000Y-59760000D02*
X92710000Y-60780000D01*
X94180000Y-61680000D02*
X91240000Y-61680000D01*
X94180000Y-66220000D02*
X94180000Y-60780000D01*
X94180000Y-60780000D02*
X91240000Y-60780000D01*
X94180000Y-61560000D02*
X91240000Y-61560000D01*
%TO.C,D2*%
X97790000Y-67240000D02*
X97790000Y-66220000D01*
X96320000Y-60780000D02*
X96320000Y-66220000D01*
X99260000Y-61680000D02*
X96320000Y-61680000D01*
X99260000Y-61560000D02*
X96320000Y-61560000D01*
X99260000Y-60780000D02*
X96320000Y-60780000D01*
X97790000Y-59760000D02*
X97790000Y-60780000D01*
X99260000Y-66220000D02*
X99260000Y-60780000D01*
X96320000Y-66220000D02*
X99260000Y-66220000D01*
X99260000Y-61800000D02*
X96320000Y-61800000D01*
%TO.C,R2*%
X92360000Y-94630000D02*
X92360000Y-90790000D01*
X90520000Y-94630000D02*
X92360000Y-94630000D01*
X92360000Y-90790000D02*
X90520000Y-90790000D01*
X90520000Y-90790000D02*
X90520000Y-94630000D01*
X91440000Y-95580000D02*
X91440000Y-94630000D01*
X91440000Y-89840000D02*
X91440000Y-90790000D01*
%TO.C,R5*%
X78090000Y-57500000D02*
X78090000Y-59340000D01*
X77140000Y-58420000D02*
X78090000Y-58420000D01*
X81930000Y-57500000D02*
X78090000Y-57500000D01*
X82880000Y-58420000D02*
X81930000Y-58420000D01*
X78090000Y-59340000D02*
X81930000Y-59340000D01*
X81930000Y-59340000D02*
X81930000Y-57500000D01*
%TO.C,R1*%
X94900000Y-94630000D02*
X94900000Y-90790000D01*
X94900000Y-90790000D02*
X93060000Y-90790000D01*
X93060000Y-94630000D02*
X94900000Y-94630000D01*
X93980000Y-89840000D02*
X93980000Y-90790000D01*
X93980000Y-95580000D02*
X93980000Y-94630000D01*
X93060000Y-90790000D02*
X93060000Y-94630000D01*
%TO.C,R7*%
X78090000Y-67660000D02*
X78090000Y-69500000D01*
X82880000Y-68580000D02*
X81930000Y-68580000D01*
X78090000Y-69500000D02*
X81930000Y-69500000D01*
X81930000Y-67660000D02*
X78090000Y-67660000D01*
X77140000Y-68580000D02*
X78090000Y-68580000D01*
X81930000Y-69500000D02*
X81930000Y-67660000D01*
%TO.C,R3*%
X81900000Y-80360000D02*
X81900000Y-82200000D01*
X85740000Y-82200000D02*
X85740000Y-80360000D01*
X81900000Y-82200000D02*
X85740000Y-82200000D01*
X85740000Y-80360000D02*
X81900000Y-80360000D01*
X86690000Y-81280000D02*
X85740000Y-81280000D01*
X80950000Y-81280000D02*
X81900000Y-81280000D01*
%TO.C,J3*%
X74990000Y-92710000D02*
X74990000Y-57090000D01*
X74990000Y-93980000D02*
X74990000Y-95310000D01*
X74990000Y-92710000D02*
X72330000Y-92710000D01*
X74990000Y-95310000D02*
X73660000Y-95310000D01*
X72330000Y-92710000D02*
X72330000Y-57090000D01*
X74990000Y-57090000D02*
X72330000Y-57090000D01*
%TO.C,R8*%
X85740000Y-84740000D02*
X85740000Y-82900000D01*
X85740000Y-82900000D02*
X81900000Y-82900000D01*
X81900000Y-84740000D02*
X85740000Y-84740000D01*
X80950000Y-83820000D02*
X81900000Y-83820000D01*
X81900000Y-82900000D02*
X81900000Y-84740000D01*
X86690000Y-83820000D02*
X85740000Y-83820000D01*
%TO.C,J7*%
X82550000Y-52010000D02*
X92770000Y-52010000D01*
X81280000Y-54670000D02*
X79950000Y-54670000D01*
X82550000Y-54670000D02*
X82550000Y-52010000D01*
X92770000Y-54670000D02*
X92770000Y-52010000D01*
X79950000Y-54670000D02*
X79950000Y-53340000D01*
X82550000Y-54670000D02*
X92770000Y-54670000D01*
%TO.C,R6*%
X82880000Y-66040000D02*
X81930000Y-66040000D01*
X81930000Y-65120000D02*
X78090000Y-65120000D01*
X81930000Y-66960000D02*
X81930000Y-65120000D01*
X78090000Y-65120000D02*
X78090000Y-66960000D01*
X77140000Y-66040000D02*
X78090000Y-66040000D01*
X78090000Y-66960000D02*
X81930000Y-66960000D01*
%TO.C,R4*%
X91790000Y-79360000D02*
X91790000Y-83200000D01*
X92710000Y-78410000D02*
X92710000Y-79360000D01*
X93630000Y-79360000D02*
X91790000Y-79360000D01*
X93630000Y-83200000D02*
X93630000Y-79360000D01*
X91790000Y-83200000D02*
X93630000Y-83200000D01*
X92710000Y-84150000D02*
X92710000Y-83200000D01*
%TO.C,J6*%
X97790000Y-54670000D02*
X96460000Y-54670000D01*
X99120000Y-49470000D02*
X96460000Y-49470000D01*
X96460000Y-54670000D02*
X96460000Y-53340000D01*
X96460000Y-52070000D02*
X96460000Y-49470000D01*
X99120000Y-52070000D02*
X99120000Y-49470000D01*
X99120000Y-52070000D02*
X96460000Y-52070000D01*
%TO.C,R9*%
X96870000Y-79360000D02*
X96870000Y-83200000D01*
X96870000Y-83200000D02*
X98710000Y-83200000D01*
X97790000Y-78410000D02*
X97790000Y-79360000D01*
X98710000Y-79360000D02*
X96870000Y-79360000D01*
X98710000Y-83200000D02*
X98710000Y-79360000D01*
X97790000Y-84150000D02*
X97790000Y-83200000D01*
%TO.C,J2*%
X100270000Y-95310000D02*
X102930000Y-95310000D01*
X100270000Y-59690000D02*
X102930000Y-59690000D01*
X100270000Y-59690000D02*
X100270000Y-95310000D01*
X100270000Y-57090000D02*
X101600000Y-57090000D01*
X100270000Y-58420000D02*
X100270000Y-57090000D01*
X102930000Y-59690000D02*
X102930000Y-95310000D01*
%TO.C,Q1*%
X89640000Y-74240000D02*
X93240000Y-74240000D01*
X93278478Y-74228478D02*
G75*
G03*
X91440000Y-69790000I-1838478J1838478D01*
G01*
X91440000Y-69789999D02*
G75*
G03*
X89601522Y-74228478I0J-2600001D01*
G01*
%TO.C,J4*%
X80010000Y-102810000D02*
X97850000Y-102810000D01*
X80010000Y-105470000D02*
X97850000Y-105470000D01*
X97850000Y-105470000D02*
X97850000Y-102810000D01*
X80010000Y-105470000D02*
X80010000Y-102810000D01*
X78740000Y-105470000D02*
X77410000Y-105470000D01*
X77410000Y-105470000D02*
X77410000Y-104140000D01*
%TD*%
M02*
