M48
; DRILL file {KiCad (6.0.7)} date Sun Jan  8 16:17:06 2023
; FORMAT={-:-/ absolute / inch / decimal}
; #@! TF.CreationDate,2023-01-08T16:17:06+02:00
; #@! TF.GenerationSoftware,Kicad,Pcbnew,(6.0.7)
; #@! TF.FileFunction,Plated,1,2,PTH
FMAT,2
INCH
; #@! TA.AperFunction,Plated,PTH,ViaDrill
T1C0.0157
; #@! TA.AperFunction,Plated,PTH,ComponentDrill
T2C0.0276
; #@! TA.AperFunction,Plated,PTH,ComponentDrill
T3C0.0295
; #@! TA.AperFunction,Plated,PTH,ComponentDrill
T4C0.0394
; #@! TA.AperFunction,Plated,PTH,ComponentDrill
T5C0.0433
%
G90
G05
T1
X3.1Y-2.85
X3.2Y-2.45
X3.3Y-3.0
T2
X3.0Y-2.3
X3.0Y-2.6
X3.0Y-2.7
X3.15Y-3.2
X3.15Y-3.3
X3.3Y-2.3
X3.3Y-2.6
X3.3Y-2.7
X3.45Y-3.2
X3.45Y-3.3
X3.6Y-3.5
X3.6Y-3.8
X3.65Y-3.05
X3.65Y-3.35
X3.7Y-3.5
X3.7Y-3.8
X3.85Y-3.05
X3.85Y-3.35
T3
X3.55Y-2.85
X3.6Y-2.85
X3.65Y-2.85
X3.75Y-2.85
X3.8Y-2.85
X3.85Y-2.85
T4
X2.9Y-2.3
X2.9Y-2.4
X2.9Y-2.5
X2.9Y-2.6
X2.9Y-2.7
X2.9Y-2.8
X2.9Y-2.9
X2.9Y-3.0
X2.9Y-3.1
X2.9Y-3.2
X2.9Y-3.3
X2.9Y-3.4
X2.9Y-3.5
X2.9Y-3.6
X2.9Y-3.7
X3.1Y-3.9375
X3.1Y-4.1
X3.2Y-2.0
X3.2Y-2.1
X3.2Y-3.9375
X3.2Y-4.1
X3.3Y-2.0
X3.3Y-2.1
X3.3Y-3.9375
X3.3Y-4.1
X3.4Y-2.0
X3.4Y-2.1
X3.4Y-3.9375
X3.4Y-4.1
X3.5Y-2.0
X3.5Y-2.1
X3.5Y-3.9375
X3.5Y-4.1
X3.6Y-2.0
X3.6Y-2.1
X3.6Y-3.9375
X3.6Y-4.1
X3.7Y-3.9375
X3.7Y-4.1
X3.8Y-3.9375
X3.8Y-4.1
X3.85Y-2.0
X3.85Y-2.1
X4.0Y-2.3
X4.0Y-2.4
X4.0Y-2.5
X4.0Y-2.6
X4.0Y-2.7
X4.0Y-2.8
X4.0Y-2.9
X4.0Y-3.0
X4.0Y-3.1
X4.0Y-3.2
X4.0Y-3.3
X4.0Y-3.4
X4.0Y-3.5
X4.0Y-3.6
X4.0Y-3.7
T5
X3.65Y-2.3
X3.65Y-2.7
X3.85Y-2.3
X3.85Y-2.7
T0
M30
