%TF.GenerationSoftware,KiCad,Pcbnew,(6.0.7)*%
%TF.CreationDate,2023-01-08T16:14:19+02:00*%
%TF.ProjectId,Design,44657369-676e-42e6-9b69-6361645f7063,rev?*%
%TF.SameCoordinates,Original*%
%TF.FileFunction,Profile,NP*%
%FSLAX46Y46*%
G04 Gerber Fmt 4.6, Leading zero omitted, Abs format (unit mm)*
G04 Created by KiCad (PCBNEW (6.0.7)) date 2023-01-08 16:14:19*
%MOMM*%
%LPD*%
G01*
G04 APERTURE LIST*
%ADD10C,0.150000*%
%TA.AperFunction,Profile*%
%ADD11C,0.100000*%
%TD*%
G04 APERTURE END LIST*
D10*
X82919929Y-32728560D02*
X82967435Y-32680828D01*
X83062560Y-32632984D01*
X83300654Y-32632420D01*
X83396005Y-32679813D01*
X83443737Y-32727319D01*
X83491581Y-32822445D01*
X83491807Y-32917682D01*
X83444526Y-33060652D01*
X82874452Y-33633432D01*
X83493498Y-33631966D01*
X84395890Y-32629827D02*
X83919700Y-32630954D01*
X83873209Y-33107256D01*
X83920715Y-33059524D01*
X84015840Y-33011680D01*
X84253935Y-33011116D01*
X84349285Y-33058510D01*
X84397017Y-33106016D01*
X84444861Y-33201141D01*
X84445425Y-33439235D01*
X84398032Y-33534586D01*
X84350526Y-33582318D01*
X84255401Y-33630162D01*
X84017306Y-33630726D01*
X83921955Y-33583332D01*
X83874224Y-33535826D01*
X84874221Y-33533458D02*
X84921953Y-33580965D01*
X84874446Y-33628696D01*
X84826715Y-33581190D01*
X84874221Y-33533458D01*
X84874446Y-33628696D01*
X85253030Y-32627797D02*
X85872076Y-32626331D01*
X85539645Y-33008072D01*
X85682502Y-33007734D01*
X85777853Y-33055127D01*
X85825584Y-33102633D01*
X85873429Y-33197758D01*
X85873993Y-33435853D01*
X85826599Y-33531203D01*
X85779093Y-33578935D01*
X85683968Y-33626780D01*
X85398255Y-33627456D01*
X85302904Y-33580063D01*
X85255172Y-33532556D01*
X86730006Y-32957634D02*
X86731584Y-33624299D01*
X86491009Y-32577247D02*
X86254606Y-33292094D01*
X86873652Y-33290628D01*
X87443500Y-32622610D02*
X87538738Y-32622385D01*
X87634088Y-32669778D01*
X87681820Y-32717285D01*
X87729665Y-32812410D01*
X87777734Y-33002773D01*
X87778298Y-33240867D01*
X87731130Y-33431456D01*
X87683737Y-33526806D01*
X87636231Y-33574538D01*
X87541106Y-33622382D01*
X87445868Y-33622608D01*
X87350517Y-33575214D01*
X87302786Y-33527708D01*
X87254941Y-33432583D01*
X87206871Y-33242220D01*
X87206307Y-33004126D01*
X87253475Y-32813537D01*
X87300869Y-32718187D01*
X87348375Y-32670455D01*
X87443500Y-32622610D01*
X88731578Y-33619563D02*
X88160152Y-33620916D01*
X88445865Y-33620240D02*
X88443497Y-32620243D01*
X88348598Y-32763325D01*
X88253585Y-32858788D01*
X88158460Y-32906633D01*
X89922051Y-33616745D02*
X89920473Y-32950080D01*
X89920698Y-33045318D02*
X89968204Y-32997586D01*
X90063330Y-32949742D01*
X90206186Y-32949403D01*
X90301537Y-32996797D01*
X90349381Y-33091922D01*
X90350622Y-33615730D01*
X90349381Y-33091922D02*
X90396775Y-32996571D01*
X90491900Y-32948727D01*
X90634757Y-32948389D01*
X90730107Y-32995782D01*
X90777952Y-33090907D01*
X90779192Y-33614715D01*
X91255381Y-33613588D02*
X91253802Y-32946923D01*
X91254028Y-33042161D02*
X91301534Y-32994429D01*
X91396659Y-32946584D01*
X91539516Y-32946246D01*
X91634866Y-32993640D01*
X91682711Y-33088765D01*
X91683951Y-33612573D01*
X91682711Y-33088765D02*
X91730104Y-32993414D01*
X91825229Y-32945570D01*
X91968086Y-32945231D01*
X92063437Y-32992625D01*
X92111281Y-33087750D01*
X92112521Y-33611558D01*
D11*
X100268816Y-57965127D02*
X100211370Y-33703581D01*
X74928816Y-58025127D02*
X74871370Y-33763581D01*
X100212758Y-34290000D02*
X74872758Y-34350000D01*
X100212758Y-34290000D02*
X74872758Y-34350000D01*
X100212758Y-34290000D02*
X99084869Y-33706248D01*
X100212758Y-34290000D02*
X99087646Y-34879086D01*
X74872758Y-34350000D02*
X76000647Y-34933752D01*
X74872758Y-34350000D02*
X75997870Y-33760914D01*
D10*
X82963333Y-26242380D02*
X83582380Y-26242380D01*
X83249047Y-26623333D01*
X83391904Y-26623333D01*
X83487142Y-26670952D01*
X83534761Y-26718571D01*
X83582380Y-26813809D01*
X83582380Y-27051904D01*
X83534761Y-27147142D01*
X83487142Y-27194761D01*
X83391904Y-27242380D01*
X83106190Y-27242380D01*
X83010952Y-27194761D01*
X82963333Y-27147142D01*
X84201428Y-26242380D02*
X84296666Y-26242380D01*
X84391904Y-26290000D01*
X84439523Y-26337619D01*
X84487142Y-26432857D01*
X84534761Y-26623333D01*
X84534761Y-26861428D01*
X84487142Y-27051904D01*
X84439523Y-27147142D01*
X84391904Y-27194761D01*
X84296666Y-27242380D01*
X84201428Y-27242380D01*
X84106190Y-27194761D01*
X84058571Y-27147142D01*
X84010952Y-27051904D01*
X83963333Y-26861428D01*
X83963333Y-26623333D01*
X84010952Y-26432857D01*
X84058571Y-26337619D01*
X84106190Y-26290000D01*
X84201428Y-26242380D01*
X84963333Y-27147142D02*
X85010952Y-27194761D01*
X84963333Y-27242380D01*
X84915714Y-27194761D01*
X84963333Y-27147142D01*
X84963333Y-27242380D01*
X85868095Y-26575714D02*
X85868095Y-27242380D01*
X85630000Y-26194761D02*
X85391904Y-26909047D01*
X86010952Y-26909047D01*
X86534761Y-26670952D02*
X86439523Y-26623333D01*
X86391904Y-26575714D01*
X86344285Y-26480476D01*
X86344285Y-26432857D01*
X86391904Y-26337619D01*
X86439523Y-26290000D01*
X86534761Y-26242380D01*
X86725238Y-26242380D01*
X86820476Y-26290000D01*
X86868095Y-26337619D01*
X86915714Y-26432857D01*
X86915714Y-26480476D01*
X86868095Y-26575714D01*
X86820476Y-26623333D01*
X86725238Y-26670952D01*
X86534761Y-26670952D01*
X86439523Y-26718571D01*
X86391904Y-26766190D01*
X86344285Y-26861428D01*
X86344285Y-27051904D01*
X86391904Y-27147142D01*
X86439523Y-27194761D01*
X86534761Y-27242380D01*
X86725238Y-27242380D01*
X86820476Y-27194761D01*
X86868095Y-27147142D01*
X86915714Y-27051904D01*
X86915714Y-26861428D01*
X86868095Y-26766190D01*
X86820476Y-26718571D01*
X86725238Y-26670952D01*
X87534761Y-26242380D02*
X87630000Y-26242380D01*
X87725238Y-26290000D01*
X87772857Y-26337619D01*
X87820476Y-26432857D01*
X87868095Y-26623333D01*
X87868095Y-26861428D01*
X87820476Y-27051904D01*
X87772857Y-27147142D01*
X87725238Y-27194761D01*
X87630000Y-27242380D01*
X87534761Y-27242380D01*
X87439523Y-27194761D01*
X87391904Y-27147142D01*
X87344285Y-27051904D01*
X87296666Y-26861428D01*
X87296666Y-26623333D01*
X87344285Y-26432857D01*
X87391904Y-26337619D01*
X87439523Y-26290000D01*
X87534761Y-26242380D01*
X88487142Y-26242380D02*
X88582380Y-26242380D01*
X88677619Y-26290000D01*
X88725238Y-26337619D01*
X88772857Y-26432857D01*
X88820476Y-26623333D01*
X88820476Y-26861428D01*
X88772857Y-27051904D01*
X88725238Y-27147142D01*
X88677619Y-27194761D01*
X88582380Y-27242380D01*
X88487142Y-27242380D01*
X88391904Y-27194761D01*
X88344285Y-27147142D01*
X88296666Y-27051904D01*
X88249047Y-26861428D01*
X88249047Y-26623333D01*
X88296666Y-26432857D01*
X88344285Y-26337619D01*
X88391904Y-26290000D01*
X88487142Y-26242380D01*
X90010952Y-27242380D02*
X90010952Y-26575714D01*
X90010952Y-26670952D02*
X90058571Y-26623333D01*
X90153809Y-26575714D01*
X90296666Y-26575714D01*
X90391904Y-26623333D01*
X90439523Y-26718571D01*
X90439523Y-27242380D01*
X90439523Y-26718571D02*
X90487142Y-26623333D01*
X90582380Y-26575714D01*
X90725238Y-26575714D01*
X90820476Y-26623333D01*
X90868095Y-26718571D01*
X90868095Y-27242380D01*
X91344285Y-27242380D02*
X91344285Y-26575714D01*
X91344285Y-26670952D02*
X91391904Y-26623333D01*
X91487142Y-26575714D01*
X91630000Y-26575714D01*
X91725238Y-26623333D01*
X91772857Y-26718571D01*
X91772857Y-27242380D01*
X91772857Y-26718571D02*
X91820476Y-26623333D01*
X91915714Y-26575714D01*
X92058571Y-26575714D01*
X92153809Y-26623333D01*
X92201428Y-26718571D01*
X92201428Y-27242380D01*
D11*
X102870000Y-50300000D02*
X102870000Y-27353580D01*
X72390000Y-50300000D02*
X72390000Y-27353580D01*
X102870000Y-27940000D02*
X72390000Y-27940000D01*
X102870000Y-27940000D02*
X72390000Y-27940000D01*
X102870000Y-27940000D02*
X101743496Y-27353579D01*
X102870000Y-27940000D02*
X101743496Y-28526421D01*
X72390000Y-27940000D02*
X73516504Y-28526421D01*
X72390000Y-27940000D02*
X73516504Y-27353579D01*
D10*
X61802380Y-82200238D02*
X61802380Y-82676428D01*
X62278571Y-82724047D01*
X62230952Y-82676428D01*
X62183333Y-82581190D01*
X62183333Y-82343095D01*
X62230952Y-82247857D01*
X62278571Y-82200238D01*
X62373809Y-82152619D01*
X62611904Y-82152619D01*
X62707142Y-82200238D01*
X62754761Y-82247857D01*
X62802380Y-82343095D01*
X62802380Y-82581190D01*
X62754761Y-82676428D01*
X62707142Y-82724047D01*
X62802380Y-81676428D02*
X62802380Y-81485952D01*
X62754761Y-81390714D01*
X62707142Y-81343095D01*
X62564285Y-81247857D01*
X62373809Y-81200238D01*
X61992857Y-81200238D01*
X61897619Y-81247857D01*
X61850000Y-81295476D01*
X61802380Y-81390714D01*
X61802380Y-81581190D01*
X61850000Y-81676428D01*
X61897619Y-81724047D01*
X61992857Y-81771666D01*
X62230952Y-81771666D01*
X62326190Y-81724047D01*
X62373809Y-81676428D01*
X62421428Y-81581190D01*
X62421428Y-81390714D01*
X62373809Y-81295476D01*
X62326190Y-81247857D01*
X62230952Y-81200238D01*
X62707142Y-80771666D02*
X62754761Y-80724047D01*
X62802380Y-80771666D01*
X62754761Y-80819285D01*
X62707142Y-80771666D01*
X62802380Y-80771666D01*
X61802380Y-79866904D02*
X61802380Y-80057380D01*
X61850000Y-80152619D01*
X61897619Y-80200238D01*
X62040476Y-80295476D01*
X62230952Y-80343095D01*
X62611904Y-80343095D01*
X62707142Y-80295476D01*
X62754761Y-80247857D01*
X62802380Y-80152619D01*
X62802380Y-79962142D01*
X62754761Y-79866904D01*
X62707142Y-79819285D01*
X62611904Y-79771666D01*
X62373809Y-79771666D01*
X62278571Y-79819285D01*
X62230952Y-79866904D01*
X62183333Y-79962142D01*
X62183333Y-80152619D01*
X62230952Y-80247857D01*
X62278571Y-80295476D01*
X62373809Y-80343095D01*
X62802380Y-79295476D02*
X62802380Y-79105000D01*
X62754761Y-79009761D01*
X62707142Y-78962142D01*
X62564285Y-78866904D01*
X62373809Y-78819285D01*
X61992857Y-78819285D01*
X61897619Y-78866904D01*
X61850000Y-78914523D01*
X61802380Y-79009761D01*
X61802380Y-79200238D01*
X61850000Y-79295476D01*
X61897619Y-79343095D01*
X61992857Y-79390714D01*
X62230952Y-79390714D01*
X62326190Y-79343095D01*
X62373809Y-79295476D01*
X62421428Y-79200238D01*
X62421428Y-79009761D01*
X62373809Y-78914523D01*
X62326190Y-78866904D01*
X62230952Y-78819285D01*
X61802380Y-78200238D02*
X61802380Y-78105000D01*
X61850000Y-78009761D01*
X61897619Y-77962142D01*
X61992857Y-77914523D01*
X62183333Y-77866904D01*
X62421428Y-77866904D01*
X62611904Y-77914523D01*
X62707142Y-77962142D01*
X62754761Y-78009761D01*
X62802380Y-78105000D01*
X62802380Y-78200238D01*
X62754761Y-78295476D01*
X62707142Y-78343095D01*
X62611904Y-78390714D01*
X62421428Y-78438333D01*
X62183333Y-78438333D01*
X61992857Y-78390714D01*
X61897619Y-78343095D01*
X61850000Y-78295476D01*
X61802380Y-78200238D01*
X61802380Y-77247857D02*
X61802380Y-77152619D01*
X61850000Y-77057380D01*
X61897619Y-77009761D01*
X61992857Y-76962142D01*
X62183333Y-76914523D01*
X62421428Y-76914523D01*
X62611904Y-76962142D01*
X62707142Y-77009761D01*
X62754761Y-77057380D01*
X62802380Y-77152619D01*
X62802380Y-77247857D01*
X62754761Y-77343095D01*
X62707142Y-77390714D01*
X62611904Y-77438333D01*
X62421428Y-77485952D01*
X62183333Y-77485952D01*
X61992857Y-77438333D01*
X61897619Y-77390714D01*
X61850000Y-77343095D01*
X61802380Y-77247857D01*
X62802380Y-75724047D02*
X62135714Y-75724047D01*
X62230952Y-75724047D02*
X62183333Y-75676428D01*
X62135714Y-75581190D01*
X62135714Y-75438333D01*
X62183333Y-75343095D01*
X62278571Y-75295476D01*
X62802380Y-75295476D01*
X62278571Y-75295476D02*
X62183333Y-75247857D01*
X62135714Y-75152619D01*
X62135714Y-75009761D01*
X62183333Y-74914523D01*
X62278571Y-74866904D01*
X62802380Y-74866904D01*
X62802380Y-74390714D02*
X62135714Y-74390714D01*
X62230952Y-74390714D02*
X62183333Y-74343095D01*
X62135714Y-74247857D01*
X62135714Y-74105000D01*
X62183333Y-74009761D01*
X62278571Y-73962142D01*
X62802380Y-73962142D01*
X62278571Y-73962142D02*
X62183333Y-73914523D01*
X62135714Y-73819285D01*
X62135714Y-73676428D01*
X62183333Y-73581190D01*
X62278571Y-73533571D01*
X62802380Y-73533571D01*
D11*
X74430000Y-107950000D02*
X62913580Y-107950000D01*
X74430000Y-48260000D02*
X62913580Y-48260000D01*
X63500000Y-107950000D02*
X63500000Y-48260000D01*
X63500000Y-107950000D02*
X63500000Y-48260000D01*
X63500000Y-107950000D02*
X64086421Y-106823496D01*
X63500000Y-107950000D02*
X62913579Y-106823496D01*
X63500000Y-48260000D02*
X62913579Y-49386504D01*
X63500000Y-48260000D02*
X64086421Y-49386504D01*
X100330000Y-107950000D02*
G75*
G03*
X102870000Y-105410000I0J2540000D01*
G01*
X72390000Y-105410000D02*
X72390000Y-50800000D01*
X72390000Y-105410000D02*
G75*
G03*
X74930000Y-107950000I2540000J0D01*
G01*
X102870000Y-50800000D02*
G75*
G03*
X100330000Y-48260000I-2540000J0D01*
G01*
X74930000Y-48260000D02*
G75*
G03*
X72390000Y-50800000I0J-2540000D01*
G01*
X100330000Y-107950000D02*
X74930000Y-107950000D01*
X102870000Y-50800000D02*
X102870000Y-105410000D01*
X74930000Y-48260000D02*
X102870000Y-48260000D01*
M02*
