%TF.GenerationSoftware,KiCad,Pcbnew,(6.0.7)*%
%TF.CreationDate,2023-01-13T16:37:56+02:00*%
%TF.ProjectId,Design,44657369-676e-42e6-9b69-6361645f7063,rev?*%
%TF.SameCoordinates,Original*%
%TF.FileFunction,Copper,L2,Bot*%
%TF.FilePolarity,Positive*%
%FSLAX46Y46*%
G04 Gerber Fmt 4.6, Leading zero omitted, Abs format (unit mm)*
G04 Created by KiCad (PCBNEW (6.0.7)) date 2023-01-13 16:37:56*
%MOMM*%
%LPD*%
G01*
G04 APERTURE LIST*
%TA.AperFunction,ComponentPad*%
%ADD10R,1.700000X1.700000*%
%TD*%
%TA.AperFunction,ComponentPad*%
%ADD11O,1.700000X1.700000*%
%TD*%
%TA.AperFunction,ComponentPad*%
%ADD12R,1.050000X1.500000*%
%TD*%
%TA.AperFunction,ComponentPad*%
%ADD13O,1.050000X1.500000*%
%TD*%
%TA.AperFunction,ComponentPad*%
%ADD14R,2.200000X2.200000*%
%TD*%
%TA.AperFunction,ComponentPad*%
%ADD15O,2.200000X2.200000*%
%TD*%
%TA.AperFunction,ComponentPad*%
%ADD16C,1.400000*%
%TD*%
%TA.AperFunction,ComponentPad*%
%ADD17O,1.400000X1.400000*%
%TD*%
%TA.AperFunction,ViaPad*%
%ADD18C,0.800000*%
%TD*%
%TA.AperFunction,Conductor*%
%ADD19C,0.250000*%
%TD*%
G04 APERTURE END LIST*
D10*
%TO.P,J5,1,Pin_1*%
%TO.N,G*%
X81280000Y-50800000D03*
D11*
%TO.P,J5,2,Pin_2*%
%TO.N,3V*%
X83820000Y-50800000D03*
%TO.P,J5,3,Pin_3*%
%TO.N,Xaxis*%
X86360000Y-50800000D03*
%TO.P,J5,4,Pin_4*%
%TO.N,Yaxis*%
X88900000Y-50800000D03*
%TO.P,J5,5,Pin_5*%
%TO.N,unconnected-(J5-Pad5)*%
X91440000Y-50800000D03*
%TD*%
D10*
%TO.P,J1,1,Pin_1*%
%TO.N,3V*%
X78740000Y-100012500D03*
D11*
%TO.P,J1,2,Pin_2*%
%TO.N,G*%
X81280000Y-100012500D03*
%TO.P,J1,3,Pin_3*%
%TO.N,D1*%
X83820000Y-100012500D03*
%TO.P,J1,4,Pin_4*%
%TO.N,D2*%
X86360000Y-100012500D03*
%TO.P,J1,5,Pin_5*%
%TO.N,unconnected-(J1-Pad5)*%
X88900000Y-100012500D03*
%TO.P,J1,6,Pin_6*%
%TO.N,unconnected-(J1-Pad6)*%
X91440000Y-100012500D03*
%TO.P,J1,7,Pin_7*%
%TO.N,Net-(J1-Pad7)*%
X93980000Y-100012500D03*
%TO.P,J1,8,Pin_8*%
%TO.N,unconnected-(J1-Pad8)*%
X96520000Y-100012500D03*
%TD*%
D12*
%TO.P,Q2,1,C*%
%TO.N,Yaxis*%
X95250000Y-72390000D03*
D13*
%TO.P,Q2,2,B*%
%TO.N,Net-(Q2-Pad2)*%
X96520000Y-72390000D03*
%TO.P,Q2,3,E*%
%TO.N,Net-(D2-Pad2)*%
X97790000Y-72390000D03*
%TD*%
D14*
%TO.P,D1,1,K*%
%TO.N,A0*%
X92710000Y-58420000D03*
D15*
%TO.P,D1,2,A*%
%TO.N,Net-(D1-Pad2)*%
X92710000Y-68580000D03*
%TD*%
D14*
%TO.P,D2,1,K*%
%TO.N,A0*%
X97790000Y-58420000D03*
D15*
%TO.P,D2,2,A*%
%TO.N,Net-(D2-Pad2)*%
X97790000Y-68580000D03*
%TD*%
D16*
%TO.P,R2,1*%
%TO.N,D6*%
X91440000Y-88900000D03*
D17*
%TO.P,R2,2*%
%TO.N,Net-(J4-Pad7)*%
X91440000Y-96520000D03*
%TD*%
D16*
%TO.P,R5,1*%
%TO.N,D0*%
X76200000Y-58420000D03*
D17*
%TO.P,R5,2*%
%TO.N,G*%
X83820000Y-58420000D03*
%TD*%
D16*
%TO.P,R1,1*%
%TO.N,D5*%
X93980000Y-88900000D03*
D17*
%TO.P,R1,2*%
%TO.N,Net-(J1-Pad7)*%
X93980000Y-96520000D03*
%TD*%
D16*
%TO.P,R7,1*%
%TO.N,D4*%
X76200000Y-68580000D03*
D17*
%TO.P,R7,2*%
%TO.N,G*%
X83820000Y-68580000D03*
%TD*%
D16*
%TO.P,R3,1*%
%TO.N,Net-(Q1-Pad2)*%
X87630000Y-81280000D03*
D17*
%TO.P,R3,2*%
%TO.N,D7*%
X80010000Y-81280000D03*
%TD*%
D10*
%TO.P,J3,1,Pin_1*%
%TO.N,3V*%
X73660000Y-93980000D03*
D11*
%TO.P,J3,2,Pin_2*%
%TO.N,G*%
X73660000Y-91440000D03*
%TO.P,J3,3,Pin_3*%
%TO.N,TX*%
X73660000Y-88900000D03*
%TO.P,J3,4,Pin_4*%
%TO.N,RT*%
X73660000Y-86360000D03*
%TO.P,J3,5,Pin_5*%
%TO.N,D8*%
X73660000Y-83820000D03*
%TO.P,J3,6,Pin_6*%
%TO.N,D7*%
X73660000Y-81280000D03*
%TO.P,J3,7,Pin_7*%
%TO.N,D6*%
X73660000Y-78740000D03*
%TO.P,J3,8,Pin_8*%
%TO.N,D5*%
X73660000Y-76200000D03*
%TO.P,J3,9,Pin_9*%
%TO.N,G*%
X73660000Y-73660000D03*
%TO.P,J3,10,Pin_10*%
%TO.N,3V*%
X73660000Y-71120000D03*
%TO.P,J3,11,Pin_11*%
%TO.N,D4*%
X73660000Y-68580000D03*
%TO.P,J3,12,Pin_12*%
%TO.N,D3*%
X73660000Y-66040000D03*
%TO.P,J3,13,Pin_13*%
%TO.N,D2*%
X73660000Y-63500000D03*
%TO.P,J3,14,Pin_14*%
%TO.N,D1*%
X73660000Y-60960000D03*
%TO.P,J3,15,Pin_15*%
%TO.N,D0*%
X73660000Y-58420000D03*
%TD*%
D16*
%TO.P,R8,1*%
%TO.N,Net-(Q2-Pad2)*%
X87630000Y-83820000D03*
D17*
%TO.P,R8,2*%
%TO.N,D8*%
X80010000Y-83820000D03*
%TD*%
D10*
%TO.P,J7,1,Pin_1*%
%TO.N,3V*%
X81280000Y-53340000D03*
D11*
%TO.P,J7,2,Pin_2*%
%TO.N,D0*%
X83820000Y-53340000D03*
%TO.P,J7,3,Pin_3*%
%TO.N,D3*%
X86360000Y-53340000D03*
%TO.P,J7,4,Pin_4*%
%TO.N,D4*%
X88900000Y-53340000D03*
%TO.P,J7,5,Pin_5*%
%TO.N,unconnected-(J7-Pad5)*%
X91440000Y-53340000D03*
%TD*%
D16*
%TO.P,R6,1*%
%TO.N,D3*%
X76200000Y-66040000D03*
D17*
%TO.P,R6,2*%
%TO.N,G*%
X83820000Y-66040000D03*
%TD*%
D16*
%TO.P,R4,1*%
%TO.N,Net-(D1-Pad2)*%
X92710000Y-77470000D03*
D17*
%TO.P,R4,2*%
%TO.N,G*%
X92710000Y-85090000D03*
%TD*%
D10*
%TO.P,J6,1,Pin_1*%
%TO.N,G*%
X97790000Y-53340000D03*
D11*
%TO.P,J6,2,Pin_2*%
%TO.N,3V*%
X97790000Y-50800000D03*
%TD*%
D16*
%TO.P,R9,1*%
%TO.N,Net-(D2-Pad2)*%
X97790000Y-77470000D03*
D17*
%TO.P,R9,2*%
%TO.N,G*%
X97790000Y-85090000D03*
%TD*%
D10*
%TO.P,J2,1,Pin_1*%
%TO.N,A0*%
X101600000Y-58420000D03*
D11*
%TO.P,J2,2,Pin_2*%
%TO.N,G*%
X101600000Y-60960000D03*
%TO.P,J2,3,Pin_3*%
%TO.N,VV*%
X101600000Y-63500000D03*
%TO.P,J2,4,Pin_4*%
%TO.N,S3*%
X101600000Y-66040000D03*
%TO.P,J2,5,Pin_5*%
%TO.N,S2*%
X101600000Y-68580000D03*
%TO.P,J2,6,Pin_6*%
%TO.N,S1*%
X101600000Y-71120000D03*
%TO.P,J2,7,Pin_7*%
%TO.N,Sc*%
X101600000Y-73660000D03*
%TO.P,J2,8,Pin_8*%
%TO.N,S0*%
X101600000Y-76200000D03*
%TO.P,J2,9,Pin_9*%
%TO.N,SK*%
X101600000Y-78740000D03*
%TO.P,J2,10,Pin_10*%
%TO.N,G*%
X101600000Y-81280000D03*
%TO.P,J2,11,Pin_11*%
%TO.N,3V*%
X101600000Y-83820000D03*
%TO.P,J2,12,Pin_12*%
%TO.N,EN*%
X101600000Y-86360000D03*
%TO.P,J2,13,Pin_13*%
%TO.N,RST*%
X101600000Y-88900000D03*
%TO.P,J2,14,Pin_14*%
%TO.N,G*%
X101600000Y-91440000D03*
%TO.P,J2,15,Pin_15*%
%TO.N,Vin*%
X101600000Y-93980000D03*
%TD*%
D12*
%TO.P,Q1,1,C*%
%TO.N,Xaxis*%
X90170000Y-72390000D03*
D13*
%TO.P,Q1,2,B*%
%TO.N,Net-(Q1-Pad2)*%
X91440000Y-72390000D03*
%TO.P,Q1,3,E*%
%TO.N,Net-(D1-Pad2)*%
X92710000Y-72390000D03*
%TD*%
D10*
%TO.P,J4,1,Pin_1*%
%TO.N,3V*%
X78740000Y-104140000D03*
D11*
%TO.P,J4,2,Pin_2*%
%TO.N,G*%
X81280000Y-104140000D03*
%TO.P,J4,3,Pin_3*%
%TO.N,D1*%
X83820000Y-104140000D03*
%TO.P,J4,4,Pin_4*%
%TO.N,D2*%
X86360000Y-104140000D03*
%TO.P,J4,5,Pin_5*%
%TO.N,unconnected-(J4-Pad5)*%
X88900000Y-104140000D03*
%TO.P,J4,6,Pin_6*%
%TO.N,unconnected-(J4-Pad6)*%
X91440000Y-104140000D03*
%TO.P,J4,7,Pin_7*%
%TO.N,Net-(J4-Pad7)*%
X93980000Y-104140000D03*
%TO.P,J4,8,Pin_8*%
%TO.N,unconnected-(J4-Pad8)*%
X96520000Y-104140000D03*
%TD*%
D18*
%TO.N,3V*%
X81280000Y-62230000D03*
%TO.N,D2*%
X78740000Y-72390000D03*
X83820000Y-76200000D03*
%TD*%
D19*
%TO.N,3V*%
X84995000Y-49625000D02*
X83820000Y-50800000D01*
X81280000Y-62230000D02*
X81280000Y-53340000D01*
X97790000Y-50800000D02*
X96615000Y-49625000D01*
X96615000Y-49625000D02*
X84995000Y-49625000D01*
X83820000Y-50800000D02*
X81280000Y-53340000D01*
%TO.N,D2*%
X78740000Y-72390000D02*
X78740000Y-64770000D01*
X86360000Y-100012500D02*
X86360000Y-78740000D01*
X86360000Y-78740000D02*
X83820000Y-76200000D01*
X77470000Y-63500000D02*
X73660000Y-63500000D01*
X78740000Y-64770000D02*
X77470000Y-63500000D01*
%TO.N,D1*%
X83820000Y-78740000D02*
X80010000Y-74930000D01*
X80010000Y-74930000D02*
X80010000Y-63500000D01*
X80010000Y-63500000D02*
X77470000Y-60960000D01*
X83820000Y-100012500D02*
X83820000Y-78740000D01*
X77470000Y-60960000D02*
X73660000Y-60960000D01*
%TD*%
%TA.AperFunction,Conductor*%
%TO.N,G*%
G36*
X84844994Y-48788502D02*
G01*
X84891487Y-48842158D01*
X84901591Y-48912432D01*
X84872097Y-48977012D01*
X84823257Y-49011651D01*
X84795083Y-49022806D01*
X84783865Y-49026646D01*
X84741407Y-49038982D01*
X84734581Y-49043019D01*
X84723972Y-49049293D01*
X84706224Y-49057988D01*
X84687383Y-49065448D01*
X84680967Y-49070110D01*
X84680966Y-49070110D01*
X84651613Y-49091436D01*
X84641693Y-49097952D01*
X84610465Y-49116420D01*
X84610462Y-49116422D01*
X84603638Y-49120458D01*
X84589317Y-49134779D01*
X84574284Y-49147619D01*
X84557893Y-49159528D01*
X84552843Y-49165632D01*
X84552838Y-49165637D01*
X84529707Y-49193598D01*
X84521717Y-49202379D01*
X84277344Y-49446751D01*
X84215032Y-49480776D01*
X84166153Y-49481702D01*
X83953373Y-49443800D01*
X83953367Y-49443799D01*
X83948284Y-49442894D01*
X83874452Y-49441992D01*
X83730081Y-49440228D01*
X83730079Y-49440228D01*
X83724911Y-49440165D01*
X83504091Y-49473955D01*
X83291756Y-49543357D01*
X83093607Y-49646507D01*
X83089474Y-49649610D01*
X83089471Y-49649612D01*
X82919100Y-49777530D01*
X82914965Y-49780635D01*
X82911393Y-49784373D01*
X82833898Y-49865466D01*
X82772374Y-49900895D01*
X82701462Y-49897438D01*
X82643676Y-49856192D01*
X82624823Y-49822644D01*
X82583324Y-49711946D01*
X82574786Y-49696351D01*
X82498285Y-49594276D01*
X82485724Y-49581715D01*
X82383649Y-49505214D01*
X82368054Y-49496676D01*
X82247606Y-49451522D01*
X82232351Y-49447895D01*
X82181486Y-49442369D01*
X82174672Y-49442000D01*
X81552115Y-49442000D01*
X81536876Y-49446475D01*
X81535671Y-49447865D01*
X81534000Y-49455548D01*
X81534000Y-50928000D01*
X81513998Y-50996121D01*
X81460342Y-51042614D01*
X81408000Y-51054000D01*
X79940116Y-51054000D01*
X79924877Y-51058475D01*
X79923672Y-51059865D01*
X79922001Y-51067548D01*
X79922001Y-51694669D01*
X79922371Y-51701490D01*
X79927895Y-51752352D01*
X79931521Y-51767604D01*
X79976676Y-51888054D01*
X79985214Y-51903649D01*
X80052942Y-51994018D01*
X80077790Y-52060525D01*
X80062737Y-52129907D01*
X80052942Y-52145148D01*
X80040497Y-52161753D01*
X79979385Y-52243295D01*
X79928255Y-52379684D01*
X79921500Y-52441866D01*
X79921500Y-54238134D01*
X79928255Y-54300316D01*
X79979385Y-54436705D01*
X80066739Y-54553261D01*
X80183295Y-54640615D01*
X80319684Y-54691745D01*
X80381866Y-54698500D01*
X80520500Y-54698500D01*
X80588621Y-54718502D01*
X80635114Y-54772158D01*
X80646500Y-54824500D01*
X80646500Y-61527476D01*
X80626498Y-61595597D01*
X80614142Y-61611779D01*
X80540960Y-61693056D01*
X80445473Y-61858444D01*
X80386458Y-62040072D01*
X80366496Y-62230000D01*
X80367186Y-62236565D01*
X80381512Y-62372866D01*
X80386458Y-62419928D01*
X80445473Y-62601556D01*
X80448776Y-62607278D01*
X80448777Y-62607279D01*
X80468903Y-62642138D01*
X80540960Y-62766944D01*
X80545378Y-62771851D01*
X80545379Y-62771852D01*
X80628577Y-62864253D01*
X80644969Y-62898410D01*
X80655843Y-62900775D01*
X80669519Y-62909427D01*
X80813011Y-63013680D01*
X80823248Y-63021118D01*
X80829276Y-63023802D01*
X80829278Y-63023803D01*
X80972473Y-63087557D01*
X80997712Y-63098794D01*
X81076119Y-63115460D01*
X81178056Y-63137128D01*
X81178061Y-63137128D01*
X81184513Y-63138500D01*
X81375487Y-63138500D01*
X81381939Y-63137128D01*
X81381944Y-63137128D01*
X81483881Y-63115460D01*
X81562288Y-63098794D01*
X81587527Y-63087557D01*
X81730722Y-63023803D01*
X81730724Y-63023802D01*
X81736752Y-63021118D01*
X81746990Y-63013680D01*
X81802083Y-62973652D01*
X81891253Y-62908866D01*
X81911104Y-62886819D01*
X82014621Y-62771852D01*
X82014622Y-62771851D01*
X82019040Y-62766944D01*
X82091097Y-62642138D01*
X82111223Y-62607279D01*
X82111224Y-62607278D01*
X82114527Y-62601556D01*
X82173542Y-62419928D01*
X82178489Y-62372866D01*
X82192814Y-62236565D01*
X82193504Y-62230000D01*
X82173542Y-62040072D01*
X82114527Y-61858444D01*
X82019040Y-61693056D01*
X81945863Y-61611785D01*
X81915147Y-61547779D01*
X81913500Y-61527476D01*
X81913500Y-58686522D01*
X82640801Y-58686522D01*
X82679092Y-58829423D01*
X82682842Y-58839727D01*
X82767521Y-59021323D01*
X82772998Y-59030811D01*
X82887925Y-59194942D01*
X82894981Y-59203350D01*
X83036650Y-59345019D01*
X83045058Y-59352075D01*
X83209189Y-59467002D01*
X83218677Y-59472479D01*
X83400273Y-59557158D01*
X83410577Y-59560908D01*
X83548503Y-59597866D01*
X83562599Y-59597530D01*
X83566000Y-59589588D01*
X83566000Y-59584439D01*
X84074000Y-59584439D01*
X84077973Y-59597970D01*
X84086522Y-59599199D01*
X84202456Y-59568134D01*
X91101500Y-59568134D01*
X91108255Y-59630316D01*
X91159385Y-59766705D01*
X91246739Y-59883261D01*
X91363295Y-59970615D01*
X91499684Y-60021745D01*
X91561866Y-60028500D01*
X93858134Y-60028500D01*
X93920316Y-60021745D01*
X94056705Y-59970615D01*
X94173261Y-59883261D01*
X94260615Y-59766705D01*
X94311745Y-59630316D01*
X94318500Y-59568134D01*
X96181500Y-59568134D01*
X96188255Y-59630316D01*
X96239385Y-59766705D01*
X96326739Y-59883261D01*
X96443295Y-59970615D01*
X96579684Y-60021745D01*
X96641866Y-60028500D01*
X98938134Y-60028500D01*
X99000316Y-60021745D01*
X99136705Y-59970615D01*
X99253261Y-59883261D01*
X99340615Y-59766705D01*
X99391745Y-59630316D01*
X99398500Y-59568134D01*
X99398500Y-57271866D01*
X99391745Y-57209684D01*
X99340615Y-57073295D01*
X99253261Y-56956739D01*
X99136705Y-56869385D01*
X99000316Y-56818255D01*
X98938134Y-56811500D01*
X96641866Y-56811500D01*
X96579684Y-56818255D01*
X96443295Y-56869385D01*
X96326739Y-56956739D01*
X96239385Y-57073295D01*
X96188255Y-57209684D01*
X96181500Y-57271866D01*
X96181500Y-59568134D01*
X94318500Y-59568134D01*
X94318500Y-57271866D01*
X94311745Y-57209684D01*
X94260615Y-57073295D01*
X94173261Y-56956739D01*
X94056705Y-56869385D01*
X93920316Y-56818255D01*
X93858134Y-56811500D01*
X91561866Y-56811500D01*
X91499684Y-56818255D01*
X91363295Y-56869385D01*
X91246739Y-56956739D01*
X91159385Y-57073295D01*
X91108255Y-57209684D01*
X91101500Y-57271866D01*
X91101500Y-59568134D01*
X84202456Y-59568134D01*
X84229423Y-59560908D01*
X84239727Y-59557158D01*
X84421323Y-59472479D01*
X84430811Y-59467002D01*
X84594942Y-59352075D01*
X84603350Y-59345019D01*
X84745019Y-59203350D01*
X84752075Y-59194942D01*
X84867002Y-59030811D01*
X84872479Y-59021323D01*
X84957158Y-58839727D01*
X84960908Y-58829423D01*
X84997866Y-58691497D01*
X84997530Y-58677401D01*
X84989588Y-58674000D01*
X84092115Y-58674000D01*
X84076876Y-58678475D01*
X84075671Y-58679865D01*
X84074000Y-58687548D01*
X84074000Y-59584439D01*
X83566000Y-59584439D01*
X83566000Y-58692115D01*
X83561525Y-58676876D01*
X83560135Y-58675671D01*
X83552452Y-58674000D01*
X82655561Y-58674000D01*
X82642030Y-58677973D01*
X82640801Y-58686522D01*
X81913500Y-58686522D01*
X81913500Y-58148503D01*
X82642134Y-58148503D01*
X82642470Y-58162599D01*
X82650412Y-58166000D01*
X83547885Y-58166000D01*
X83563124Y-58161525D01*
X83564329Y-58160135D01*
X83566000Y-58152452D01*
X83566000Y-58147885D01*
X84074000Y-58147885D01*
X84078475Y-58163124D01*
X84079865Y-58164329D01*
X84087548Y-58166000D01*
X84984439Y-58166000D01*
X84997970Y-58162027D01*
X84999199Y-58153478D01*
X84960908Y-58010577D01*
X84957158Y-58000273D01*
X84872479Y-57818677D01*
X84867002Y-57809189D01*
X84752075Y-57645058D01*
X84745019Y-57636650D01*
X84603350Y-57494981D01*
X84594942Y-57487925D01*
X84430811Y-57372998D01*
X84421323Y-57367521D01*
X84239727Y-57282842D01*
X84229423Y-57279092D01*
X84091497Y-57242134D01*
X84077401Y-57242470D01*
X84074000Y-57250412D01*
X84074000Y-58147885D01*
X83566000Y-58147885D01*
X83566000Y-57255561D01*
X83562027Y-57242030D01*
X83553478Y-57240801D01*
X83410577Y-57279092D01*
X83400273Y-57282842D01*
X83218677Y-57367521D01*
X83209189Y-57372998D01*
X83045058Y-57487925D01*
X83036650Y-57494981D01*
X82894981Y-57636650D01*
X82887925Y-57645058D01*
X82772998Y-57809189D01*
X82767521Y-57818677D01*
X82682842Y-58000273D01*
X82679092Y-58010577D01*
X82642134Y-58148503D01*
X81913500Y-58148503D01*
X81913500Y-54824500D01*
X81933502Y-54756379D01*
X81987158Y-54709886D01*
X82039500Y-54698500D01*
X82178134Y-54698500D01*
X82240316Y-54691745D01*
X82376705Y-54640615D01*
X82493261Y-54553261D01*
X82580615Y-54436705D01*
X82602799Y-54377529D01*
X82624598Y-54319382D01*
X82667240Y-54262618D01*
X82733802Y-54237918D01*
X82803150Y-54253126D01*
X82837817Y-54281114D01*
X82866250Y-54313938D01*
X83038126Y-54456632D01*
X83231000Y-54569338D01*
X83439692Y-54649030D01*
X83444760Y-54650061D01*
X83444763Y-54650062D01*
X83552017Y-54671883D01*
X83658597Y-54693567D01*
X83663772Y-54693757D01*
X83663774Y-54693757D01*
X83876673Y-54701564D01*
X83876677Y-54701564D01*
X83881837Y-54701753D01*
X83886957Y-54701097D01*
X83886959Y-54701097D01*
X84098288Y-54674025D01*
X84098289Y-54674025D01*
X84103416Y-54673368D01*
X84108366Y-54671883D01*
X84312429Y-54610661D01*
X84312434Y-54610659D01*
X84317384Y-54609174D01*
X84517994Y-54510896D01*
X84699860Y-54381173D01*
X84858096Y-54223489D01*
X84988453Y-54042077D01*
X84989776Y-54043028D01*
X85036645Y-53999857D01*
X85106580Y-53987625D01*
X85172026Y-54015144D01*
X85199875Y-54046994D01*
X85259987Y-54145088D01*
X85406250Y-54313938D01*
X85578126Y-54456632D01*
X85771000Y-54569338D01*
X85979692Y-54649030D01*
X85984760Y-54650061D01*
X85984763Y-54650062D01*
X86092017Y-54671883D01*
X86198597Y-54693567D01*
X86203772Y-54693757D01*
X86203774Y-54693757D01*
X86416673Y-54701564D01*
X86416677Y-54701564D01*
X86421837Y-54701753D01*
X86426957Y-54701097D01*
X86426959Y-54701097D01*
X86638288Y-54674025D01*
X86638289Y-54674025D01*
X86643416Y-54673368D01*
X86648366Y-54671883D01*
X86852429Y-54610661D01*
X86852434Y-54610659D01*
X86857384Y-54609174D01*
X87057994Y-54510896D01*
X87239860Y-54381173D01*
X87398096Y-54223489D01*
X87528453Y-54042077D01*
X87529776Y-54043028D01*
X87576645Y-53999857D01*
X87646580Y-53987625D01*
X87712026Y-54015144D01*
X87739875Y-54046994D01*
X87799987Y-54145088D01*
X87946250Y-54313938D01*
X88118126Y-54456632D01*
X88311000Y-54569338D01*
X88519692Y-54649030D01*
X88524760Y-54650061D01*
X88524763Y-54650062D01*
X88632017Y-54671883D01*
X88738597Y-54693567D01*
X88743772Y-54693757D01*
X88743774Y-54693757D01*
X88956673Y-54701564D01*
X88956677Y-54701564D01*
X88961837Y-54701753D01*
X88966957Y-54701097D01*
X88966959Y-54701097D01*
X89178288Y-54674025D01*
X89178289Y-54674025D01*
X89183416Y-54673368D01*
X89188366Y-54671883D01*
X89392429Y-54610661D01*
X89392434Y-54610659D01*
X89397384Y-54609174D01*
X89597994Y-54510896D01*
X89779860Y-54381173D01*
X89938096Y-54223489D01*
X90068453Y-54042077D01*
X90069776Y-54043028D01*
X90116645Y-53999857D01*
X90186580Y-53987625D01*
X90252026Y-54015144D01*
X90279875Y-54046994D01*
X90339987Y-54145088D01*
X90486250Y-54313938D01*
X90658126Y-54456632D01*
X90851000Y-54569338D01*
X91059692Y-54649030D01*
X91064760Y-54650061D01*
X91064763Y-54650062D01*
X91172017Y-54671883D01*
X91278597Y-54693567D01*
X91283772Y-54693757D01*
X91283774Y-54693757D01*
X91496673Y-54701564D01*
X91496677Y-54701564D01*
X91501837Y-54701753D01*
X91506957Y-54701097D01*
X91506959Y-54701097D01*
X91718288Y-54674025D01*
X91718289Y-54674025D01*
X91723416Y-54673368D01*
X91728366Y-54671883D01*
X91932429Y-54610661D01*
X91932434Y-54610659D01*
X91937384Y-54609174D01*
X92137994Y-54510896D01*
X92319860Y-54381173D01*
X92466877Y-54234669D01*
X96432001Y-54234669D01*
X96432371Y-54241490D01*
X96437895Y-54292352D01*
X96441521Y-54307604D01*
X96486676Y-54428054D01*
X96495214Y-54443649D01*
X96571715Y-54545724D01*
X96584276Y-54558285D01*
X96686351Y-54634786D01*
X96701946Y-54643324D01*
X96822394Y-54688478D01*
X96837649Y-54692105D01*
X96888514Y-54697631D01*
X96895328Y-54698000D01*
X97517885Y-54698000D01*
X97533124Y-54693525D01*
X97534329Y-54692135D01*
X97536000Y-54684452D01*
X97536000Y-54679884D01*
X98044000Y-54679884D01*
X98048475Y-54695123D01*
X98049865Y-54696328D01*
X98057548Y-54697999D01*
X98684669Y-54697999D01*
X98691490Y-54697629D01*
X98742352Y-54692105D01*
X98757604Y-54688479D01*
X98878054Y-54643324D01*
X98893649Y-54634786D01*
X98995724Y-54558285D01*
X99008285Y-54545724D01*
X99084786Y-54443649D01*
X99093324Y-54428054D01*
X99138478Y-54307606D01*
X99142105Y-54292351D01*
X99147631Y-54241486D01*
X99148000Y-54234672D01*
X99148000Y-53612115D01*
X99143525Y-53596876D01*
X99142135Y-53595671D01*
X99134452Y-53594000D01*
X98062115Y-53594000D01*
X98046876Y-53598475D01*
X98045671Y-53599865D01*
X98044000Y-53607548D01*
X98044000Y-54679884D01*
X97536000Y-54679884D01*
X97536000Y-53612115D01*
X97531525Y-53596876D01*
X97530135Y-53595671D01*
X97522452Y-53594000D01*
X96450116Y-53594000D01*
X96434877Y-53598475D01*
X96433672Y-53599865D01*
X96432001Y-53607548D01*
X96432001Y-54234669D01*
X92466877Y-54234669D01*
X92478096Y-54223489D01*
X92608453Y-54042077D01*
X92629320Y-53999857D01*
X92705136Y-53846453D01*
X92705137Y-53846451D01*
X92707430Y-53841811D01*
X92772370Y-53628069D01*
X92801529Y-53406590D01*
X92803156Y-53340000D01*
X92784852Y-53117361D01*
X92730431Y-52900702D01*
X92641354Y-52695840D01*
X92520014Y-52508277D01*
X92369670Y-52343051D01*
X92365619Y-52339852D01*
X92365615Y-52339848D01*
X92198414Y-52207800D01*
X92198410Y-52207798D01*
X92194359Y-52204598D01*
X92153053Y-52181796D01*
X92103084Y-52131364D01*
X92088312Y-52061921D01*
X92113428Y-51995516D01*
X92140780Y-51968909D01*
X92184603Y-51937650D01*
X92319860Y-51841173D01*
X92344323Y-51816796D01*
X92474435Y-51687137D01*
X92478096Y-51683489D01*
X92537594Y-51600689D01*
X92605435Y-51506277D01*
X92608453Y-51502077D01*
X92629320Y-51459857D01*
X92705136Y-51306453D01*
X92705137Y-51306451D01*
X92707430Y-51301811D01*
X92772370Y-51088069D01*
X92801529Y-50866590D01*
X92802139Y-50841621D01*
X92803074Y-50803365D01*
X92803074Y-50803361D01*
X92803156Y-50800000D01*
X92784852Y-50577361D01*
X92776616Y-50544570D01*
X92744119Y-50415195D01*
X92746923Y-50344254D01*
X92787636Y-50286091D01*
X92853331Y-50259172D01*
X92866323Y-50258500D01*
X96300406Y-50258500D01*
X96368527Y-50278502D01*
X96389501Y-50295405D01*
X96439778Y-50345682D01*
X96473804Y-50407994D01*
X96472100Y-50468448D01*
X96450989Y-50544570D01*
X96450441Y-50549700D01*
X96450440Y-50549704D01*
X96446933Y-50582522D01*
X96427251Y-50766695D01*
X96427548Y-50771848D01*
X96427548Y-50771851D01*
X96433011Y-50866590D01*
X96440110Y-50989715D01*
X96441247Y-50994761D01*
X96441248Y-50994767D01*
X96452031Y-51042614D01*
X96489222Y-51207639D01*
X96573266Y-51414616D01*
X96624019Y-51497438D01*
X96687291Y-51600688D01*
X96689987Y-51605088D01*
X96836250Y-51773938D01*
X96840225Y-51777238D01*
X96840231Y-51777244D01*
X96845425Y-51781556D01*
X96885059Y-51840460D01*
X96886555Y-51911441D01*
X96849439Y-51971962D01*
X96809168Y-51996480D01*
X96701946Y-52036676D01*
X96686351Y-52045214D01*
X96584276Y-52121715D01*
X96571715Y-52134276D01*
X96495214Y-52236351D01*
X96486676Y-52251946D01*
X96441522Y-52372394D01*
X96437895Y-52387649D01*
X96432369Y-52438514D01*
X96432000Y-52445328D01*
X96432000Y-53067885D01*
X96436475Y-53083124D01*
X96437865Y-53084329D01*
X96445548Y-53086000D01*
X99129884Y-53086000D01*
X99145123Y-53081525D01*
X99146328Y-53080135D01*
X99147999Y-53072452D01*
X99147999Y-52445331D01*
X99147629Y-52438510D01*
X99142105Y-52387648D01*
X99138479Y-52372396D01*
X99093324Y-52251946D01*
X99084786Y-52236351D01*
X99008285Y-52134276D01*
X98995724Y-52121715D01*
X98893649Y-52045214D01*
X98878054Y-52036676D01*
X98767813Y-51995348D01*
X98711049Y-51952706D01*
X98686349Y-51886145D01*
X98701557Y-51816796D01*
X98723104Y-51788115D01*
X98824430Y-51687144D01*
X98824440Y-51687132D01*
X98828096Y-51683489D01*
X98887594Y-51600689D01*
X98955435Y-51506277D01*
X98958453Y-51502077D01*
X98979320Y-51459857D01*
X99055136Y-51306453D01*
X99055137Y-51306451D01*
X99057430Y-51301811D01*
X99122370Y-51088069D01*
X99151529Y-50866590D01*
X99152139Y-50841621D01*
X99153074Y-50803365D01*
X99153074Y-50803361D01*
X99153156Y-50800000D01*
X99134852Y-50577361D01*
X99080431Y-50360702D01*
X98991354Y-50155840D01*
X98870014Y-49968277D01*
X98719670Y-49803051D01*
X98715619Y-49799852D01*
X98715615Y-49799848D01*
X98548414Y-49667800D01*
X98548410Y-49667798D01*
X98544359Y-49664598D01*
X98348789Y-49556638D01*
X98343920Y-49554914D01*
X98343916Y-49554912D01*
X98143087Y-49483795D01*
X98143083Y-49483794D01*
X98138212Y-49482069D01*
X98133119Y-49481162D01*
X98133116Y-49481161D01*
X97923373Y-49443800D01*
X97923367Y-49443799D01*
X97918284Y-49442894D01*
X97844452Y-49441992D01*
X97700081Y-49440228D01*
X97700079Y-49440228D01*
X97694911Y-49440165D01*
X97474091Y-49473955D01*
X97461532Y-49478060D01*
X97390568Y-49480210D01*
X97333294Y-49447389D01*
X97118652Y-49232747D01*
X97111112Y-49224461D01*
X97107000Y-49217982D01*
X97081034Y-49193598D01*
X97057349Y-49171357D01*
X97054507Y-49168602D01*
X97034770Y-49148865D01*
X97031573Y-49146385D01*
X97022551Y-49138680D01*
X97009122Y-49126069D01*
X96990321Y-49108414D01*
X96983375Y-49104595D01*
X96983372Y-49104593D01*
X96972566Y-49098652D01*
X96956047Y-49087801D01*
X96955583Y-49087441D01*
X96940041Y-49075386D01*
X96932772Y-49072241D01*
X96932768Y-49072238D01*
X96899463Y-49057826D01*
X96888813Y-49052609D01*
X96850060Y-49031305D01*
X96830437Y-49026267D01*
X96811734Y-49019863D01*
X96793145Y-49011819D01*
X96793868Y-49010149D01*
X96742406Y-48977282D01*
X96712730Y-48912785D01*
X96722635Y-48842483D01*
X96768975Y-48788696D01*
X96837396Y-48768500D01*
X100280633Y-48768500D01*
X100300018Y-48770000D01*
X100314851Y-48772310D01*
X100314855Y-48772310D01*
X100323724Y-48773691D01*
X100332626Y-48772527D01*
X100332629Y-48772527D01*
X100340012Y-48771561D01*
X100364591Y-48770767D01*
X100391442Y-48772527D01*
X100586922Y-48785340D01*
X100603262Y-48787491D01*
X100725478Y-48811801D01*
X100847696Y-48836112D01*
X100863606Y-48840375D01*
X101099600Y-48920484D01*
X101114826Y-48926791D01*
X101338342Y-49037016D01*
X101352616Y-49045257D01*
X101559829Y-49183713D01*
X101572905Y-49193746D01*
X101760278Y-49358068D01*
X101771932Y-49369722D01*
X101936254Y-49557095D01*
X101946287Y-49570171D01*
X102084743Y-49777384D01*
X102092984Y-49791658D01*
X102203209Y-50015174D01*
X102209515Y-50030398D01*
X102289625Y-50266394D01*
X102293888Y-50282304D01*
X102296494Y-50295405D01*
X102342509Y-50526738D01*
X102344660Y-50543078D01*
X102358763Y-50758236D01*
X102357733Y-50781350D01*
X102357690Y-50784854D01*
X102356309Y-50793724D01*
X102357473Y-50802626D01*
X102357473Y-50802628D01*
X102360436Y-50825283D01*
X102361500Y-50841621D01*
X102361500Y-56935500D01*
X102341498Y-57003621D01*
X102287842Y-57050114D01*
X102235500Y-57061500D01*
X100701866Y-57061500D01*
X100639684Y-57068255D01*
X100503295Y-57119385D01*
X100386739Y-57206739D01*
X100299385Y-57323295D01*
X100248255Y-57459684D01*
X100241500Y-57521866D01*
X100241500Y-59318134D01*
X100248255Y-59380316D01*
X100299385Y-59516705D01*
X100386739Y-59633261D01*
X100503295Y-59720615D01*
X100511704Y-59723767D01*
X100511705Y-59723768D01*
X100620960Y-59764726D01*
X100677725Y-59807367D01*
X100702425Y-59873929D01*
X100687218Y-59943278D01*
X100667825Y-59969759D01*
X100544590Y-60098717D01*
X100538104Y-60106727D01*
X100418098Y-60282649D01*
X100413000Y-60291623D01*
X100323338Y-60484783D01*
X100319775Y-60494470D01*
X100264389Y-60694183D01*
X100265912Y-60702607D01*
X100278292Y-60706000D01*
X101728000Y-60706000D01*
X101796121Y-60726002D01*
X101842614Y-60779658D01*
X101854000Y-60832000D01*
X101854000Y-61088000D01*
X101833998Y-61156121D01*
X101780342Y-61202614D01*
X101728000Y-61214000D01*
X100283225Y-61214000D01*
X100269694Y-61217973D01*
X100268257Y-61227966D01*
X100298565Y-61362446D01*
X100301645Y-61372275D01*
X100381770Y-61569603D01*
X100386413Y-61578794D01*
X100497694Y-61760388D01*
X100503777Y-61768699D01*
X100643213Y-61929667D01*
X100650580Y-61936883D01*
X100814434Y-62072916D01*
X100822881Y-62078831D01*
X100891969Y-62119203D01*
X100940693Y-62170842D01*
X100953764Y-62240625D01*
X100927033Y-62306396D01*
X100886584Y-62339752D01*
X100873607Y-62346507D01*
X100869474Y-62349610D01*
X100869471Y-62349612D01*
X100699100Y-62477530D01*
X100694965Y-62480635D01*
X100540629Y-62642138D01*
X100414743Y-62826680D01*
X100376594Y-62908866D01*
X100326290Y-63017237D01*
X100320688Y-63029305D01*
X100260989Y-63244570D01*
X100237251Y-63466695D01*
X100237548Y-63471848D01*
X100237548Y-63471851D01*
X100238598Y-63490060D01*
X100250110Y-63689715D01*
X100251247Y-63694761D01*
X100251248Y-63694767D01*
X100258174Y-63725499D01*
X100299222Y-63907639D01*
X100383266Y-64114616D01*
X100432285Y-64194608D01*
X100481259Y-64274526D01*
X100499987Y-64305088D01*
X100646250Y-64473938D01*
X100818126Y-64616632D01*
X100888595Y-64657811D01*
X100891445Y-64659476D01*
X100940169Y-64711114D01*
X100953240Y-64780897D01*
X100926509Y-64846669D01*
X100886055Y-64880027D01*
X100873607Y-64886507D01*
X100869474Y-64889610D01*
X100869471Y-64889612D01*
X100732349Y-64992566D01*
X100694965Y-65020635D01*
X100540629Y-65182138D01*
X100414743Y-65366680D01*
X100320688Y-65569305D01*
X100260989Y-65784570D01*
X100237251Y-66006695D01*
X100237548Y-66011848D01*
X100237548Y-66011851D01*
X100239171Y-66040000D01*
X100250110Y-66229715D01*
X100251247Y-66234761D01*
X100251248Y-66234767D01*
X100272275Y-66328069D01*
X100299222Y-66447639D01*
X100383266Y-66654616D01*
X100385965Y-66659020D01*
X100486863Y-66823671D01*
X100499987Y-66845088D01*
X100646250Y-67013938D01*
X100818126Y-67156632D01*
X100859673Y-67180910D01*
X100891445Y-67199476D01*
X100940169Y-67251114D01*
X100953240Y-67320897D01*
X100926509Y-67386669D01*
X100886055Y-67420027D01*
X100873607Y-67426507D01*
X100869474Y-67429610D01*
X100869471Y-67429612D01*
X100732349Y-67532566D01*
X100694965Y-67560635D01*
X100540629Y-67722138D01*
X100414743Y-67906680D01*
X100383753Y-67973442D01*
X100335760Y-68076836D01*
X100320688Y-68109305D01*
X100260989Y-68324570D01*
X100237251Y-68546695D01*
X100237548Y-68551848D01*
X100237548Y-68551851D01*
X100239487Y-68585475D01*
X100250110Y-68769715D01*
X100251247Y-68774761D01*
X100251248Y-68774767D01*
X100268680Y-68852115D01*
X100299222Y-68987639D01*
X100383266Y-69194616D01*
X100385965Y-69199020D01*
X100486863Y-69363671D01*
X100499987Y-69385088D01*
X100646250Y-69553938D01*
X100818126Y-69696632D01*
X100859670Y-69720908D01*
X100891445Y-69739476D01*
X100940169Y-69791114D01*
X100953240Y-69860897D01*
X100926509Y-69926669D01*
X100886055Y-69960027D01*
X100873607Y-69966507D01*
X100869474Y-69969610D01*
X100869471Y-69969612D01*
X100845247Y-69987800D01*
X100694965Y-70100635D01*
X100540629Y-70262138D01*
X100414743Y-70446680D01*
X100320688Y-70649305D01*
X100260989Y-70864570D01*
X100237251Y-71086695D01*
X100237548Y-71091848D01*
X100237548Y-71091851D01*
X100243906Y-71202119D01*
X100250110Y-71309715D01*
X100251247Y-71314761D01*
X100251248Y-71314767D01*
X100267326Y-71386109D01*
X100299222Y-71527639D01*
X100383266Y-71734616D01*
X100499987Y-71925088D01*
X100646250Y-72093938D01*
X100818126Y-72236632D01*
X100833470Y-72245598D01*
X100891445Y-72279476D01*
X100940169Y-72331114D01*
X100953240Y-72400897D01*
X100926509Y-72466669D01*
X100886055Y-72500027D01*
X100873607Y-72506507D01*
X100869474Y-72509610D01*
X100869471Y-72509612D01*
X100699100Y-72637530D01*
X100694965Y-72640635D01*
X100540629Y-72802138D01*
X100414743Y-72986680D01*
X100378873Y-73063955D01*
X100323524Y-73183196D01*
X100320688Y-73189305D01*
X100260989Y-73404570D01*
X100237251Y-73626695D01*
X100237548Y-73631848D01*
X100237548Y-73631851D01*
X100238168Y-73642598D01*
X100250110Y-73849715D01*
X100251247Y-73854761D01*
X100251248Y-73854767D01*
X100264597Y-73914000D01*
X100299222Y-74067639D01*
X100383266Y-74274616D01*
X100499987Y-74465088D01*
X100646250Y-74633938D01*
X100818126Y-74776632D01*
X100833470Y-74785598D01*
X100891445Y-74819476D01*
X100940169Y-74871114D01*
X100953240Y-74940897D01*
X100926509Y-75006669D01*
X100886055Y-75040027D01*
X100873607Y-75046507D01*
X100869474Y-75049610D01*
X100869471Y-75049612D01*
X100699100Y-75177530D01*
X100694965Y-75180635D01*
X100691393Y-75184373D01*
X100546798Y-75335683D01*
X100540629Y-75342138D01*
X100414743Y-75526680D01*
X100320688Y-75729305D01*
X100260989Y-75944570D01*
X100237251Y-76166695D01*
X100237548Y-76171848D01*
X100237548Y-76171851D01*
X100243011Y-76266590D01*
X100250110Y-76389715D01*
X100251247Y-76394761D01*
X100251248Y-76394767D01*
X100256802Y-76419411D01*
X100299222Y-76607639D01*
X100383266Y-76814616D01*
X100385965Y-76819020D01*
X100493072Y-76993803D01*
X100499987Y-77005088D01*
X100646250Y-77173938D01*
X100818126Y-77316632D01*
X100833470Y-77325598D01*
X100891445Y-77359476D01*
X100940169Y-77411114D01*
X100953240Y-77480897D01*
X100926509Y-77546669D01*
X100886055Y-77580027D01*
X100873607Y-77586507D01*
X100869474Y-77589610D01*
X100869471Y-77589612D01*
X100699100Y-77717530D01*
X100694965Y-77720635D01*
X100540629Y-77882138D01*
X100537715Y-77886410D01*
X100537714Y-77886411D01*
X100525404Y-77904457D01*
X100414743Y-78066680D01*
X100320688Y-78269305D01*
X100260989Y-78484570D01*
X100237251Y-78706695D01*
X100237548Y-78711848D01*
X100237548Y-78711851D01*
X100243011Y-78806590D01*
X100250110Y-78929715D01*
X100251247Y-78934761D01*
X100251248Y-78934767D01*
X100258174Y-78965499D01*
X100299222Y-79147639D01*
X100383266Y-79354616D01*
X100499987Y-79545088D01*
X100646250Y-79713938D01*
X100818126Y-79856632D01*
X100833470Y-79865598D01*
X100891955Y-79899774D01*
X100940679Y-79951412D01*
X100953750Y-80021195D01*
X100927019Y-80086967D01*
X100886562Y-80120327D01*
X100878457Y-80124546D01*
X100869738Y-80130036D01*
X100699433Y-80257905D01*
X100691726Y-80264748D01*
X100544590Y-80418717D01*
X100538104Y-80426727D01*
X100418098Y-80602649D01*
X100413000Y-80611623D01*
X100323338Y-80804783D01*
X100319775Y-80814470D01*
X100264389Y-81014183D01*
X100265912Y-81022607D01*
X100278292Y-81026000D01*
X101728000Y-81026000D01*
X101796121Y-81046002D01*
X101842614Y-81099658D01*
X101854000Y-81152000D01*
X101854000Y-81408000D01*
X101833998Y-81476121D01*
X101780342Y-81522614D01*
X101728000Y-81534000D01*
X100283225Y-81534000D01*
X100269694Y-81537973D01*
X100268257Y-81547966D01*
X100298565Y-81682446D01*
X100301645Y-81692275D01*
X100381770Y-81889603D01*
X100386413Y-81898794D01*
X100497694Y-82080388D01*
X100503777Y-82088699D01*
X100643213Y-82249667D01*
X100650580Y-82256883D01*
X100814434Y-82392916D01*
X100822881Y-82398831D01*
X100891969Y-82439203D01*
X100940693Y-82490842D01*
X100953764Y-82560625D01*
X100927033Y-82626396D01*
X100886584Y-82659752D01*
X100873607Y-82666507D01*
X100869474Y-82669610D01*
X100869471Y-82669612D01*
X100732349Y-82772566D01*
X100694965Y-82800635D01*
X100540629Y-82962138D01*
X100414743Y-83146680D01*
X100320688Y-83349305D01*
X100260989Y-83564570D01*
X100237251Y-83786695D01*
X100237548Y-83791848D01*
X100237548Y-83791851D01*
X100246831Y-83952842D01*
X100250110Y-84009715D01*
X100251247Y-84014761D01*
X100251248Y-84014767D01*
X100271119Y-84102939D01*
X100299222Y-84227639D01*
X100383266Y-84434616D01*
X100385965Y-84439020D01*
X100486863Y-84603671D01*
X100499987Y-84625088D01*
X100646250Y-84793938D01*
X100818126Y-84936632D01*
X100860476Y-84961379D01*
X100891445Y-84979476D01*
X100940169Y-85031114D01*
X100953240Y-85100897D01*
X100926509Y-85166669D01*
X100886055Y-85200027D01*
X100873607Y-85206507D01*
X100869474Y-85209610D01*
X100869471Y-85209612D01*
X100845247Y-85227800D01*
X100694965Y-85340635D01*
X100540629Y-85502138D01*
X100414743Y-85686680D01*
X100320688Y-85889305D01*
X100260989Y-86104570D01*
X100237251Y-86326695D01*
X100237548Y-86331848D01*
X100237548Y-86331851D01*
X100243011Y-86426590D01*
X100250110Y-86549715D01*
X100251247Y-86554761D01*
X100251248Y-86554767D01*
X100271119Y-86642939D01*
X100299222Y-86767639D01*
X100383266Y-86974616D01*
X100499987Y-87165088D01*
X100646250Y-87333938D01*
X100818126Y-87476632D01*
X100833470Y-87485598D01*
X100891445Y-87519476D01*
X100940169Y-87571114D01*
X100953240Y-87640897D01*
X100926509Y-87706669D01*
X100886055Y-87740027D01*
X100873607Y-87746507D01*
X100869474Y-87749610D01*
X100869471Y-87749612D01*
X100732349Y-87852566D01*
X100694965Y-87880635D01*
X100540629Y-88042138D01*
X100414743Y-88226680D01*
X100320688Y-88429305D01*
X100260989Y-88644570D01*
X100237251Y-88866695D01*
X100237548Y-88871848D01*
X100237548Y-88871851D01*
X100243011Y-88966590D01*
X100250110Y-89089715D01*
X100251247Y-89094761D01*
X100251248Y-89094767D01*
X100273392Y-89193023D01*
X100299222Y-89307639D01*
X100383266Y-89514616D01*
X100385965Y-89519020D01*
X100486863Y-89683671D01*
X100499987Y-89705088D01*
X100646250Y-89873938D01*
X100818126Y-90016632D01*
X100860476Y-90041379D01*
X100891955Y-90059774D01*
X100940679Y-90111412D01*
X100953750Y-90181195D01*
X100927019Y-90246967D01*
X100886562Y-90280327D01*
X100878457Y-90284546D01*
X100869738Y-90290036D01*
X100699433Y-90417905D01*
X100691726Y-90424748D01*
X100544590Y-90578717D01*
X100538104Y-90586727D01*
X100418098Y-90762649D01*
X100413000Y-90771623D01*
X100323338Y-90964783D01*
X100319775Y-90974470D01*
X100264389Y-91174183D01*
X100265912Y-91182607D01*
X100278292Y-91186000D01*
X101728000Y-91186000D01*
X101796121Y-91206002D01*
X101842614Y-91259658D01*
X101854000Y-91312000D01*
X101854000Y-91568000D01*
X101833998Y-91636121D01*
X101780342Y-91682614D01*
X101728000Y-91694000D01*
X100283225Y-91694000D01*
X100269694Y-91697973D01*
X100268257Y-91707966D01*
X100298565Y-91842446D01*
X100301645Y-91852275D01*
X100381770Y-92049603D01*
X100386413Y-92058794D01*
X100497694Y-92240388D01*
X100503777Y-92248699D01*
X100643213Y-92409667D01*
X100650580Y-92416883D01*
X100814434Y-92552916D01*
X100822881Y-92558831D01*
X100891969Y-92599203D01*
X100940693Y-92650842D01*
X100953764Y-92720625D01*
X100927033Y-92786396D01*
X100886584Y-92819752D01*
X100873607Y-92826507D01*
X100869474Y-92829610D01*
X100869471Y-92829612D01*
X100699100Y-92957530D01*
X100694965Y-92960635D01*
X100540629Y-93122138D01*
X100414743Y-93306680D01*
X100320688Y-93509305D01*
X100260989Y-93724570D01*
X100237251Y-93946695D01*
X100250110Y-94169715D01*
X100251247Y-94174761D01*
X100251248Y-94174767D01*
X100275304Y-94281508D01*
X100299222Y-94387639D01*
X100383266Y-94594616D01*
X100499987Y-94785088D01*
X100646250Y-94953938D01*
X100818126Y-95096632D01*
X101011000Y-95209338D01*
X101219692Y-95289030D01*
X101224760Y-95290061D01*
X101224763Y-95290062D01*
X101309801Y-95307363D01*
X101438597Y-95333567D01*
X101443772Y-95333757D01*
X101443774Y-95333757D01*
X101656673Y-95341564D01*
X101656677Y-95341564D01*
X101661837Y-95341753D01*
X101666957Y-95341097D01*
X101666959Y-95341097D01*
X101878288Y-95314025D01*
X101878289Y-95314025D01*
X101883416Y-95313368D01*
X101905028Y-95306884D01*
X102092429Y-95250661D01*
X102092434Y-95250659D01*
X102097384Y-95249174D01*
X102180070Y-95208666D01*
X102250041Y-95196660D01*
X102315398Y-95224390D01*
X102355388Y-95283052D01*
X102361500Y-95321818D01*
X102361500Y-105360633D01*
X102360000Y-105380018D01*
X102357690Y-105394851D01*
X102357690Y-105394855D01*
X102356309Y-105403724D01*
X102357473Y-105412626D01*
X102357473Y-105412629D01*
X102358439Y-105420012D01*
X102359233Y-105444591D01*
X102344660Y-105666922D01*
X102342509Y-105683262D01*
X102293889Y-105927693D01*
X102289625Y-105943606D01*
X102255312Y-106044689D01*
X102209516Y-106179600D01*
X102203209Y-106194826D01*
X102092984Y-106418342D01*
X102084743Y-106432616D01*
X101946287Y-106639829D01*
X101936254Y-106652905D01*
X101771932Y-106840278D01*
X101760278Y-106851932D01*
X101572905Y-107016254D01*
X101559829Y-107026287D01*
X101352616Y-107164743D01*
X101338342Y-107172984D01*
X101114826Y-107283209D01*
X101099602Y-107289515D01*
X100863606Y-107369625D01*
X100847696Y-107373888D01*
X100725478Y-107398199D01*
X100603262Y-107422509D01*
X100586922Y-107424660D01*
X100438134Y-107434413D01*
X100371763Y-107438763D01*
X100348650Y-107437733D01*
X100345146Y-107437690D01*
X100336276Y-107436309D01*
X100327374Y-107437473D01*
X100327372Y-107437473D01*
X100313915Y-107439233D01*
X100304714Y-107440436D01*
X100288379Y-107441500D01*
X74979367Y-107441500D01*
X74959982Y-107440000D01*
X74945149Y-107437690D01*
X74945145Y-107437690D01*
X74936276Y-107436309D01*
X74927374Y-107437473D01*
X74927371Y-107437473D01*
X74919988Y-107438439D01*
X74895409Y-107439233D01*
X74850799Y-107436309D01*
X74673078Y-107424660D01*
X74656738Y-107422509D01*
X74534522Y-107398199D01*
X74412304Y-107373888D01*
X74396394Y-107369625D01*
X74160398Y-107289515D01*
X74145174Y-107283209D01*
X73921658Y-107172984D01*
X73907384Y-107164743D01*
X73700171Y-107026287D01*
X73687095Y-107016254D01*
X73499722Y-106851932D01*
X73488068Y-106840278D01*
X73323746Y-106652905D01*
X73313713Y-106639829D01*
X73175257Y-106432616D01*
X73167016Y-106418342D01*
X73056791Y-106194826D01*
X73050484Y-106179600D01*
X73004688Y-106044689D01*
X72970375Y-105943606D01*
X72966111Y-105927693D01*
X72917491Y-105683262D01*
X72915340Y-105666922D01*
X72901476Y-105455407D01*
X72902650Y-105432232D01*
X72902334Y-105432204D01*
X72902770Y-105427344D01*
X72903576Y-105422552D01*
X72903729Y-105410000D01*
X72899773Y-105382376D01*
X72898500Y-105364514D01*
X72898500Y-105038134D01*
X77381500Y-105038134D01*
X77388255Y-105100316D01*
X77439385Y-105236705D01*
X77526739Y-105353261D01*
X77643295Y-105440615D01*
X77779684Y-105491745D01*
X77841866Y-105498500D01*
X79638134Y-105498500D01*
X79700316Y-105491745D01*
X79836705Y-105440615D01*
X79953261Y-105353261D01*
X80040615Y-105236705D01*
X80084798Y-105118848D01*
X80127440Y-105062084D01*
X80194001Y-105037384D01*
X80263350Y-105052592D01*
X80298017Y-105080580D01*
X80323218Y-105109673D01*
X80330580Y-105116883D01*
X80494434Y-105252916D01*
X80502881Y-105258831D01*
X80686756Y-105366279D01*
X80696042Y-105370729D01*
X80895001Y-105446703D01*
X80904899Y-105449579D01*
X81008250Y-105470606D01*
X81022299Y-105469410D01*
X81026000Y-105459065D01*
X81026000Y-105458517D01*
X81534000Y-105458517D01*
X81538064Y-105472359D01*
X81551478Y-105474393D01*
X81558184Y-105473534D01*
X81568262Y-105471392D01*
X81772255Y-105410191D01*
X81781842Y-105406433D01*
X81973095Y-105312739D01*
X81981945Y-105307464D01*
X82155328Y-105183792D01*
X82163200Y-105177139D01*
X82314052Y-105026812D01*
X82320730Y-105018965D01*
X82448022Y-104841819D01*
X82449279Y-104842722D01*
X82496373Y-104799362D01*
X82566311Y-104787145D01*
X82631751Y-104814678D01*
X82659579Y-104846511D01*
X82719987Y-104945088D01*
X82866250Y-105113938D01*
X83038126Y-105256632D01*
X83231000Y-105369338D01*
X83439692Y-105449030D01*
X83444760Y-105450061D01*
X83444763Y-105450062D01*
X83539862Y-105469410D01*
X83658597Y-105493567D01*
X83663772Y-105493757D01*
X83663774Y-105493757D01*
X83876673Y-105501564D01*
X83876677Y-105501564D01*
X83881837Y-105501753D01*
X83886957Y-105501097D01*
X83886959Y-105501097D01*
X84098288Y-105474025D01*
X84098289Y-105474025D01*
X84103416Y-105473368D01*
X84108366Y-105471883D01*
X84312429Y-105410661D01*
X84312434Y-105410659D01*
X84317384Y-105409174D01*
X84517994Y-105310896D01*
X84699860Y-105181173D01*
X84858096Y-105023489D01*
X84988453Y-104842077D01*
X84989776Y-104843028D01*
X85036645Y-104799857D01*
X85106580Y-104787625D01*
X85172026Y-104815144D01*
X85199875Y-104846994D01*
X85259987Y-104945088D01*
X85406250Y-105113938D01*
X85578126Y-105256632D01*
X85771000Y-105369338D01*
X85979692Y-105449030D01*
X85984760Y-105450061D01*
X85984763Y-105450062D01*
X86079862Y-105469410D01*
X86198597Y-105493567D01*
X86203772Y-105493757D01*
X86203774Y-105493757D01*
X86416673Y-105501564D01*
X86416677Y-105501564D01*
X86421837Y-105501753D01*
X86426957Y-105501097D01*
X86426959Y-105501097D01*
X86638288Y-105474025D01*
X86638289Y-105474025D01*
X86643416Y-105473368D01*
X86648366Y-105471883D01*
X86852429Y-105410661D01*
X86852434Y-105410659D01*
X86857384Y-105409174D01*
X87057994Y-105310896D01*
X87239860Y-105181173D01*
X87398096Y-105023489D01*
X87528453Y-104842077D01*
X87529776Y-104843028D01*
X87576645Y-104799857D01*
X87646580Y-104787625D01*
X87712026Y-104815144D01*
X87739875Y-104846994D01*
X87799987Y-104945088D01*
X87946250Y-105113938D01*
X88118126Y-105256632D01*
X88311000Y-105369338D01*
X88519692Y-105449030D01*
X88524760Y-105450061D01*
X88524763Y-105450062D01*
X88619862Y-105469410D01*
X88738597Y-105493567D01*
X88743772Y-105493757D01*
X88743774Y-105493757D01*
X88956673Y-105501564D01*
X88956677Y-105501564D01*
X88961837Y-105501753D01*
X88966957Y-105501097D01*
X88966959Y-105501097D01*
X89178288Y-105474025D01*
X89178289Y-105474025D01*
X89183416Y-105473368D01*
X89188366Y-105471883D01*
X89392429Y-105410661D01*
X89392434Y-105410659D01*
X89397384Y-105409174D01*
X89597994Y-105310896D01*
X89779860Y-105181173D01*
X89938096Y-105023489D01*
X90068453Y-104842077D01*
X90069776Y-104843028D01*
X90116645Y-104799857D01*
X90186580Y-104787625D01*
X90252026Y-104815144D01*
X90279875Y-104846994D01*
X90339987Y-104945088D01*
X90486250Y-105113938D01*
X90658126Y-105256632D01*
X90851000Y-105369338D01*
X91059692Y-105449030D01*
X91064760Y-105450061D01*
X91064763Y-105450062D01*
X91159862Y-105469410D01*
X91278597Y-105493567D01*
X91283772Y-105493757D01*
X91283774Y-105493757D01*
X91496673Y-105501564D01*
X91496677Y-105501564D01*
X91501837Y-105501753D01*
X91506957Y-105501097D01*
X91506959Y-105501097D01*
X91718288Y-105474025D01*
X91718289Y-105474025D01*
X91723416Y-105473368D01*
X91728366Y-105471883D01*
X91932429Y-105410661D01*
X91932434Y-105410659D01*
X91937384Y-105409174D01*
X92137994Y-105310896D01*
X92319860Y-105181173D01*
X92478096Y-105023489D01*
X92608453Y-104842077D01*
X92609776Y-104843028D01*
X92656645Y-104799857D01*
X92726580Y-104787625D01*
X92792026Y-104815144D01*
X92819875Y-104846994D01*
X92879987Y-104945088D01*
X93026250Y-105113938D01*
X93198126Y-105256632D01*
X93391000Y-105369338D01*
X93599692Y-105449030D01*
X93604760Y-105450061D01*
X93604763Y-105450062D01*
X93699862Y-105469410D01*
X93818597Y-105493567D01*
X93823772Y-105493757D01*
X93823774Y-105493757D01*
X94036673Y-105501564D01*
X94036677Y-105501564D01*
X94041837Y-105501753D01*
X94046957Y-105501097D01*
X94046959Y-105501097D01*
X94258288Y-105474025D01*
X94258289Y-105474025D01*
X94263416Y-105473368D01*
X94268366Y-105471883D01*
X94472429Y-105410661D01*
X94472434Y-105410659D01*
X94477384Y-105409174D01*
X94677994Y-105310896D01*
X94859860Y-105181173D01*
X95018096Y-105023489D01*
X95148453Y-104842077D01*
X95149776Y-104843028D01*
X95196645Y-104799857D01*
X95266580Y-104787625D01*
X95332026Y-104815144D01*
X95359875Y-104846994D01*
X95419987Y-104945088D01*
X95566250Y-105113938D01*
X95738126Y-105256632D01*
X95931000Y-105369338D01*
X96139692Y-105449030D01*
X96144760Y-105450061D01*
X96144763Y-105450062D01*
X96239862Y-105469410D01*
X96358597Y-105493567D01*
X96363772Y-105493757D01*
X96363774Y-105493757D01*
X96576673Y-105501564D01*
X96576677Y-105501564D01*
X96581837Y-105501753D01*
X96586957Y-105501097D01*
X96586959Y-105501097D01*
X96798288Y-105474025D01*
X96798289Y-105474025D01*
X96803416Y-105473368D01*
X96808366Y-105471883D01*
X97012429Y-105410661D01*
X97012434Y-105410659D01*
X97017384Y-105409174D01*
X97217994Y-105310896D01*
X97399860Y-105181173D01*
X97558096Y-105023489D01*
X97688453Y-104842077D01*
X97701995Y-104814678D01*
X97785136Y-104646453D01*
X97785137Y-104646451D01*
X97787430Y-104641811D01*
X97852370Y-104428069D01*
X97881529Y-104206590D01*
X97883156Y-104140000D01*
X97864852Y-103917361D01*
X97810431Y-103700702D01*
X97721354Y-103495840D01*
X97600014Y-103308277D01*
X97449670Y-103143051D01*
X97445619Y-103139852D01*
X97445615Y-103139848D01*
X97278414Y-103007800D01*
X97278410Y-103007798D01*
X97274359Y-103004598D01*
X97238028Y-102984542D01*
X97222136Y-102975769D01*
X97078789Y-102896638D01*
X97073920Y-102894914D01*
X97073916Y-102894912D01*
X96873087Y-102823795D01*
X96873083Y-102823794D01*
X96868212Y-102822069D01*
X96863119Y-102821162D01*
X96863116Y-102821161D01*
X96653373Y-102783800D01*
X96653367Y-102783799D01*
X96648284Y-102782894D01*
X96574452Y-102781992D01*
X96430081Y-102780228D01*
X96430079Y-102780228D01*
X96424911Y-102780165D01*
X96204091Y-102813955D01*
X95991756Y-102883357D01*
X95793607Y-102986507D01*
X95789474Y-102989610D01*
X95789471Y-102989612D01*
X95619100Y-103117530D01*
X95614965Y-103120635D01*
X95460629Y-103282138D01*
X95353201Y-103439621D01*
X95298293Y-103484621D01*
X95227768Y-103492792D01*
X95164021Y-103461538D01*
X95143324Y-103437054D01*
X95062822Y-103312617D01*
X95062820Y-103312614D01*
X95060014Y-103308277D01*
X94909670Y-103143051D01*
X94905619Y-103139852D01*
X94905615Y-103139848D01*
X94738414Y-103007800D01*
X94738410Y-103007798D01*
X94734359Y-103004598D01*
X94698028Y-102984542D01*
X94682136Y-102975769D01*
X94538789Y-102896638D01*
X94533920Y-102894914D01*
X94533916Y-102894912D01*
X94333087Y-102823795D01*
X94333083Y-102823794D01*
X94328212Y-102822069D01*
X94323119Y-102821162D01*
X94323116Y-102821161D01*
X94113373Y-102783800D01*
X94113367Y-102783799D01*
X94108284Y-102782894D01*
X94034452Y-102781992D01*
X93890081Y-102780228D01*
X93890079Y-102780228D01*
X93884911Y-102780165D01*
X93664091Y-102813955D01*
X93451756Y-102883357D01*
X93253607Y-102986507D01*
X93249474Y-102989610D01*
X93249471Y-102989612D01*
X93079100Y-103117530D01*
X93074965Y-103120635D01*
X92920629Y-103282138D01*
X92813201Y-103439621D01*
X92758293Y-103484621D01*
X92687768Y-103492792D01*
X92624021Y-103461538D01*
X92603324Y-103437054D01*
X92522822Y-103312617D01*
X92522820Y-103312614D01*
X92520014Y-103308277D01*
X92369670Y-103143051D01*
X92365619Y-103139852D01*
X92365615Y-103139848D01*
X92198414Y-103007800D01*
X92198410Y-103007798D01*
X92194359Y-103004598D01*
X92158028Y-102984542D01*
X92142136Y-102975769D01*
X91998789Y-102896638D01*
X91993920Y-102894914D01*
X91993916Y-102894912D01*
X91793087Y-102823795D01*
X91793083Y-102823794D01*
X91788212Y-102822069D01*
X91783119Y-102821162D01*
X91783116Y-102821161D01*
X91573373Y-102783800D01*
X91573367Y-102783799D01*
X91568284Y-102782894D01*
X91494452Y-102781992D01*
X91350081Y-102780228D01*
X91350079Y-102780228D01*
X91344911Y-102780165D01*
X91124091Y-102813955D01*
X90911756Y-102883357D01*
X90713607Y-102986507D01*
X90709474Y-102989610D01*
X90709471Y-102989612D01*
X90539100Y-103117530D01*
X90534965Y-103120635D01*
X90380629Y-103282138D01*
X90273201Y-103439621D01*
X90218293Y-103484621D01*
X90147768Y-103492792D01*
X90084021Y-103461538D01*
X90063324Y-103437054D01*
X89982822Y-103312617D01*
X89982820Y-103312614D01*
X89980014Y-103308277D01*
X89829670Y-103143051D01*
X89825619Y-103139852D01*
X89825615Y-103139848D01*
X89658414Y-103007800D01*
X89658410Y-103007798D01*
X89654359Y-103004598D01*
X89618028Y-102984542D01*
X89602136Y-102975769D01*
X89458789Y-102896638D01*
X89453920Y-102894914D01*
X89453916Y-102894912D01*
X89253087Y-102823795D01*
X89253083Y-102823794D01*
X89248212Y-102822069D01*
X89243119Y-102821162D01*
X89243116Y-102821161D01*
X89033373Y-102783800D01*
X89033367Y-102783799D01*
X89028284Y-102782894D01*
X88954452Y-102781992D01*
X88810081Y-102780228D01*
X88810079Y-102780228D01*
X88804911Y-102780165D01*
X88584091Y-102813955D01*
X88371756Y-102883357D01*
X88173607Y-102986507D01*
X88169474Y-102989610D01*
X88169471Y-102989612D01*
X87999100Y-103117530D01*
X87994965Y-103120635D01*
X87840629Y-103282138D01*
X87733201Y-103439621D01*
X87678293Y-103484621D01*
X87607768Y-103492792D01*
X87544021Y-103461538D01*
X87523324Y-103437054D01*
X87442822Y-103312617D01*
X87442820Y-103312614D01*
X87440014Y-103308277D01*
X87289670Y-103143051D01*
X87285619Y-103139852D01*
X87285615Y-103139848D01*
X87118414Y-103007800D01*
X87118410Y-103007798D01*
X87114359Y-103004598D01*
X87078028Y-102984542D01*
X87062136Y-102975769D01*
X86918789Y-102896638D01*
X86913920Y-102894914D01*
X86913916Y-102894912D01*
X86713087Y-102823795D01*
X86713083Y-102823794D01*
X86708212Y-102822069D01*
X86703119Y-102821162D01*
X86703116Y-102821161D01*
X86493373Y-102783800D01*
X86493367Y-102783799D01*
X86488284Y-102782894D01*
X86414452Y-102781992D01*
X86270081Y-102780228D01*
X86270079Y-102780228D01*
X86264911Y-102780165D01*
X86044091Y-102813955D01*
X85831756Y-102883357D01*
X85633607Y-102986507D01*
X85629474Y-102989610D01*
X85629471Y-102989612D01*
X85459100Y-103117530D01*
X85454965Y-103120635D01*
X85300629Y-103282138D01*
X85193201Y-103439621D01*
X85138293Y-103484621D01*
X85067768Y-103492792D01*
X85004021Y-103461538D01*
X84983324Y-103437054D01*
X84902822Y-103312617D01*
X84902820Y-103312614D01*
X84900014Y-103308277D01*
X84749670Y-103143051D01*
X84745619Y-103139852D01*
X84745615Y-103139848D01*
X84578414Y-103007800D01*
X84578410Y-103007798D01*
X84574359Y-103004598D01*
X84538028Y-102984542D01*
X84522136Y-102975769D01*
X84378789Y-102896638D01*
X84373920Y-102894914D01*
X84373916Y-102894912D01*
X84173087Y-102823795D01*
X84173083Y-102823794D01*
X84168212Y-102822069D01*
X84163119Y-102821162D01*
X84163116Y-102821161D01*
X83953373Y-102783800D01*
X83953367Y-102783799D01*
X83948284Y-102782894D01*
X83874452Y-102781992D01*
X83730081Y-102780228D01*
X83730079Y-102780228D01*
X83724911Y-102780165D01*
X83504091Y-102813955D01*
X83291756Y-102883357D01*
X83093607Y-102986507D01*
X83089474Y-102989610D01*
X83089471Y-102989612D01*
X82919100Y-103117530D01*
X82914965Y-103120635D01*
X82760629Y-103282138D01*
X82653204Y-103439618D01*
X82652898Y-103440066D01*
X82597987Y-103485069D01*
X82527462Y-103493240D01*
X82463715Y-103461986D01*
X82443018Y-103437502D01*
X82362426Y-103312926D01*
X82356136Y-103304757D01*
X82212806Y-103147240D01*
X82205273Y-103140215D01*
X82038139Y-103008222D01*
X82029552Y-103002517D01*
X81843117Y-102899599D01*
X81833705Y-102895369D01*
X81632959Y-102824280D01*
X81622988Y-102821646D01*
X81551837Y-102808972D01*
X81538540Y-102810432D01*
X81534000Y-102824989D01*
X81534000Y-105458517D01*
X81026000Y-105458517D01*
X81026000Y-102823102D01*
X81022082Y-102809758D01*
X81007806Y-102807771D01*
X80969324Y-102813660D01*
X80959288Y-102816051D01*
X80756868Y-102882212D01*
X80747359Y-102886209D01*
X80558463Y-102984542D01*
X80549738Y-102990036D01*
X80379433Y-103117905D01*
X80371726Y-103124748D01*
X80294478Y-103205584D01*
X80232954Y-103241014D01*
X80162042Y-103237557D01*
X80104255Y-103196311D01*
X80085402Y-103162763D01*
X80043767Y-103051703D01*
X80040615Y-103043295D01*
X79953261Y-102926739D01*
X79836705Y-102839385D01*
X79700316Y-102788255D01*
X79638134Y-102781500D01*
X77841866Y-102781500D01*
X77779684Y-102788255D01*
X77643295Y-102839385D01*
X77526739Y-102926739D01*
X77439385Y-103043295D01*
X77388255Y-103179684D01*
X77381500Y-103241866D01*
X77381500Y-105038134D01*
X72898500Y-105038134D01*
X72898500Y-100910634D01*
X77381500Y-100910634D01*
X77388255Y-100972816D01*
X77439385Y-101109205D01*
X77526739Y-101225761D01*
X77643295Y-101313115D01*
X77779684Y-101364245D01*
X77841866Y-101371000D01*
X79638134Y-101371000D01*
X79700316Y-101364245D01*
X79836705Y-101313115D01*
X79953261Y-101225761D01*
X80040615Y-101109205D01*
X80084798Y-100991348D01*
X80127440Y-100934584D01*
X80194001Y-100909884D01*
X80263350Y-100925092D01*
X80298017Y-100953080D01*
X80323218Y-100982173D01*
X80330580Y-100989383D01*
X80494434Y-101125416D01*
X80502881Y-101131331D01*
X80686756Y-101238779D01*
X80696042Y-101243229D01*
X80895001Y-101319203D01*
X80904899Y-101322079D01*
X81008250Y-101343106D01*
X81022299Y-101341910D01*
X81026000Y-101331565D01*
X81026000Y-98695602D01*
X81022082Y-98682258D01*
X81007806Y-98680271D01*
X80969324Y-98686160D01*
X80959288Y-98688551D01*
X80756868Y-98754712D01*
X80747359Y-98758709D01*
X80558463Y-98857042D01*
X80549738Y-98862536D01*
X80379433Y-98990405D01*
X80371726Y-98997248D01*
X80294478Y-99078084D01*
X80232954Y-99113514D01*
X80162042Y-99110057D01*
X80104255Y-99068811D01*
X80085402Y-99035263D01*
X80043767Y-98924203D01*
X80040615Y-98915795D01*
X79953261Y-98799239D01*
X79836705Y-98711885D01*
X79700316Y-98660755D01*
X79638134Y-98654000D01*
X77841866Y-98654000D01*
X77779684Y-98660755D01*
X77643295Y-98711885D01*
X77526739Y-98799239D01*
X77439385Y-98915795D01*
X77388255Y-99052184D01*
X77381500Y-99114366D01*
X77381500Y-100910634D01*
X72898500Y-100910634D01*
X72898500Y-95464500D01*
X72918502Y-95396379D01*
X72972158Y-95349886D01*
X73024500Y-95338500D01*
X74558134Y-95338500D01*
X74620316Y-95331745D01*
X74756705Y-95280615D01*
X74873261Y-95193261D01*
X74960615Y-95076705D01*
X75011745Y-94940316D01*
X75018500Y-94878134D01*
X75018500Y-93081866D01*
X75011745Y-93019684D01*
X74960615Y-92883295D01*
X74873261Y-92766739D01*
X74756705Y-92679385D01*
X74637687Y-92634767D01*
X74580923Y-92592125D01*
X74556223Y-92525564D01*
X74571430Y-92456215D01*
X74592977Y-92427535D01*
X74694052Y-92326812D01*
X74700730Y-92318965D01*
X74825003Y-92146020D01*
X74830313Y-92137183D01*
X74924670Y-91946267D01*
X74928469Y-91936672D01*
X74990377Y-91732910D01*
X74992555Y-91722837D01*
X74993986Y-91711962D01*
X74991775Y-91697778D01*
X74978617Y-91694000D01*
X73532000Y-91694000D01*
X73463879Y-91673998D01*
X73417386Y-91620342D01*
X73406000Y-91568000D01*
X73406000Y-91312000D01*
X73426002Y-91243879D01*
X73479658Y-91197386D01*
X73532000Y-91186000D01*
X74978344Y-91186000D01*
X74991875Y-91182027D01*
X74993180Y-91172947D01*
X74951214Y-91005875D01*
X74947894Y-90996124D01*
X74862972Y-90800814D01*
X74858105Y-90791739D01*
X74742426Y-90612926D01*
X74736136Y-90604757D01*
X74592806Y-90447240D01*
X74585273Y-90440215D01*
X74418139Y-90308222D01*
X74409556Y-90302520D01*
X74372602Y-90282120D01*
X74322631Y-90231687D01*
X74307859Y-90162245D01*
X74332975Y-90095839D01*
X74360327Y-90069232D01*
X74383797Y-90052491D01*
X74539860Y-89941173D01*
X74698096Y-89783489D01*
X74757594Y-89700689D01*
X74825435Y-89606277D01*
X74828453Y-89602077D01*
X74927430Y-89401811D01*
X74992370Y-89188069D01*
X75021529Y-88966590D01*
X75023156Y-88900000D01*
X75004852Y-88677361D01*
X74950431Y-88460702D01*
X74861354Y-88255840D01*
X74740014Y-88068277D01*
X74589670Y-87903051D01*
X74585619Y-87899852D01*
X74585615Y-87899848D01*
X74418414Y-87767800D01*
X74418410Y-87767798D01*
X74414359Y-87764598D01*
X74373053Y-87741796D01*
X74323084Y-87691364D01*
X74308312Y-87621921D01*
X74333428Y-87555516D01*
X74360780Y-87528909D01*
X74421500Y-87485598D01*
X74539860Y-87401173D01*
X74698096Y-87243489D01*
X74757594Y-87160689D01*
X74825435Y-87066277D01*
X74828453Y-87062077D01*
X74927430Y-86861811D01*
X74992370Y-86648069D01*
X75021529Y-86426590D01*
X75023156Y-86360000D01*
X75004852Y-86137361D01*
X74950431Y-85920702D01*
X74861354Y-85715840D01*
X74740014Y-85528277D01*
X74589670Y-85363051D01*
X74585619Y-85359852D01*
X74585615Y-85359848D01*
X74418414Y-85227800D01*
X74418410Y-85227798D01*
X74414359Y-85224598D01*
X74373053Y-85201796D01*
X74323084Y-85151364D01*
X74308312Y-85081921D01*
X74333428Y-85015516D01*
X74360780Y-84988909D01*
X74429637Y-84939794D01*
X74539860Y-84861173D01*
X74551451Y-84849623D01*
X74621209Y-84780107D01*
X74698096Y-84703489D01*
X74757594Y-84620689D01*
X74825435Y-84526277D01*
X74828453Y-84522077D01*
X74849650Y-84479189D01*
X74925136Y-84326453D01*
X74925137Y-84326451D01*
X74927430Y-84321811D01*
X74992370Y-84108069D01*
X75021529Y-83886590D01*
X75023156Y-83820000D01*
X78796884Y-83820000D01*
X78815314Y-84030655D01*
X78816738Y-84035968D01*
X78816738Y-84035970D01*
X78851307Y-84164981D01*
X78870044Y-84234910D01*
X78872366Y-84239891D01*
X78872367Y-84239892D01*
X78910567Y-84321811D01*
X78959411Y-84426558D01*
X79080699Y-84599776D01*
X79230224Y-84749301D01*
X79403442Y-84870589D01*
X79408420Y-84872910D01*
X79408423Y-84872912D01*
X79551852Y-84939794D01*
X79595090Y-84959956D01*
X79600398Y-84961378D01*
X79600400Y-84961379D01*
X79794030Y-85013262D01*
X79794032Y-85013262D01*
X79799345Y-85014686D01*
X80010000Y-85033116D01*
X80220655Y-85014686D01*
X80225968Y-85013262D01*
X80225970Y-85013262D01*
X80419600Y-84961379D01*
X80419602Y-84961378D01*
X80424910Y-84959956D01*
X80468148Y-84939794D01*
X80611577Y-84872912D01*
X80611580Y-84872910D01*
X80616558Y-84870589D01*
X80789776Y-84749301D01*
X80939301Y-84599776D01*
X81060589Y-84426558D01*
X81109434Y-84321811D01*
X81147633Y-84239892D01*
X81147634Y-84239891D01*
X81149956Y-84234910D01*
X81168694Y-84164981D01*
X81203262Y-84035970D01*
X81203262Y-84035968D01*
X81204686Y-84030655D01*
X81223116Y-83820000D01*
X81204686Y-83609345D01*
X81149956Y-83405090D01*
X81060589Y-83213442D01*
X80939301Y-83040224D01*
X80789776Y-82890699D01*
X80616558Y-82769411D01*
X80611580Y-82767090D01*
X80611577Y-82767088D01*
X80429892Y-82682367D01*
X80429891Y-82682366D01*
X80424910Y-82680044D01*
X80419602Y-82678622D01*
X80419600Y-82678621D01*
X80393796Y-82671707D01*
X80333173Y-82634755D01*
X80302152Y-82570894D01*
X80310580Y-82500400D01*
X80355783Y-82445653D01*
X80393796Y-82428293D01*
X80419600Y-82421379D01*
X80419602Y-82421378D01*
X80424910Y-82419956D01*
X80470213Y-82398831D01*
X80611577Y-82332912D01*
X80611580Y-82332910D01*
X80616558Y-82330589D01*
X80789776Y-82209301D01*
X80939301Y-82059776D01*
X81060589Y-81886558D01*
X81109434Y-81781811D01*
X81147633Y-81699892D01*
X81147634Y-81699891D01*
X81149956Y-81694910D01*
X81204686Y-81490655D01*
X81223116Y-81280000D01*
X81204686Y-81069345D01*
X81192163Y-81022607D01*
X81151379Y-80870400D01*
X81151378Y-80870398D01*
X81149956Y-80865090D01*
X81136370Y-80835954D01*
X81062912Y-80678423D01*
X81062910Y-80678420D01*
X81060589Y-80673442D01*
X80939301Y-80500224D01*
X80789776Y-80350699D01*
X80616558Y-80229411D01*
X80611580Y-80227090D01*
X80611577Y-80227088D01*
X80429892Y-80142367D01*
X80429891Y-80142366D01*
X80424910Y-80140044D01*
X80419602Y-80138622D01*
X80419600Y-80138621D01*
X80225970Y-80086738D01*
X80225968Y-80086738D01*
X80220655Y-80085314D01*
X80010000Y-80066884D01*
X79799345Y-80085314D01*
X79794032Y-80086738D01*
X79794030Y-80086738D01*
X79600400Y-80138621D01*
X79600398Y-80138622D01*
X79595090Y-80140044D01*
X79590109Y-80142366D01*
X79590108Y-80142367D01*
X79408423Y-80227088D01*
X79408420Y-80227090D01*
X79403442Y-80229411D01*
X79230224Y-80350699D01*
X79080699Y-80500224D01*
X78959411Y-80673442D01*
X78957090Y-80678420D01*
X78957088Y-80678423D01*
X78883630Y-80835954D01*
X78870044Y-80865090D01*
X78868622Y-80870398D01*
X78868621Y-80870400D01*
X78827837Y-81022607D01*
X78815314Y-81069345D01*
X78796884Y-81280000D01*
X78815314Y-81490655D01*
X78870044Y-81694910D01*
X78872366Y-81699891D01*
X78872367Y-81699892D01*
X78910567Y-81781811D01*
X78959411Y-81886558D01*
X79080699Y-82059776D01*
X79230224Y-82209301D01*
X79403442Y-82330589D01*
X79408420Y-82332910D01*
X79408423Y-82332912D01*
X79549787Y-82398831D01*
X79595090Y-82419956D01*
X79600398Y-82421378D01*
X79600400Y-82421379D01*
X79626204Y-82428293D01*
X79686827Y-82465245D01*
X79717848Y-82529106D01*
X79709420Y-82599600D01*
X79664217Y-82654347D01*
X79626204Y-82671707D01*
X79600400Y-82678621D01*
X79600398Y-82678622D01*
X79595090Y-82680044D01*
X79590109Y-82682366D01*
X79590108Y-82682367D01*
X79408423Y-82767088D01*
X79408420Y-82767090D01*
X79403442Y-82769411D01*
X79230224Y-82890699D01*
X79080699Y-83040224D01*
X78959411Y-83213442D01*
X78870044Y-83405090D01*
X78815314Y-83609345D01*
X78796884Y-83820000D01*
X75023156Y-83820000D01*
X75004852Y-83597361D01*
X74950431Y-83380702D01*
X74861354Y-83175840D01*
X74740014Y-82988277D01*
X74589670Y-82823051D01*
X74585619Y-82819852D01*
X74585615Y-82819848D01*
X74418414Y-82687800D01*
X74418410Y-82687798D01*
X74414359Y-82684598D01*
X74373053Y-82661796D01*
X74323084Y-82611364D01*
X74308312Y-82541921D01*
X74333428Y-82475516D01*
X74360780Y-82448909D01*
X74523402Y-82332912D01*
X74539860Y-82321173D01*
X74551451Y-82309623D01*
X74621209Y-82240107D01*
X74698096Y-82163489D01*
X74828453Y-81982077D01*
X74927430Y-81781811D01*
X74992370Y-81568069D01*
X75021529Y-81346590D01*
X75023156Y-81280000D01*
X75004852Y-81057361D01*
X74950431Y-80840702D01*
X74861354Y-80635840D01*
X74740014Y-80448277D01*
X74589670Y-80283051D01*
X74585619Y-80279852D01*
X74585615Y-80279848D01*
X74418414Y-80147800D01*
X74418410Y-80147798D01*
X74414359Y-80144598D01*
X74373053Y-80121796D01*
X74323084Y-80071364D01*
X74308312Y-80001921D01*
X74333428Y-79935516D01*
X74360780Y-79908909D01*
X74421500Y-79865598D01*
X74539860Y-79781173D01*
X74698096Y-79623489D01*
X74757594Y-79540689D01*
X74825435Y-79446277D01*
X74828453Y-79442077D01*
X74927430Y-79241811D01*
X74992370Y-79028069D01*
X75021529Y-78806590D01*
X75021688Y-78800091D01*
X75023074Y-78743365D01*
X75023074Y-78743361D01*
X75023156Y-78740000D01*
X75004852Y-78517361D01*
X74950431Y-78300702D01*
X74861354Y-78095840D01*
X74740014Y-77908277D01*
X74589670Y-77743051D01*
X74585619Y-77739852D01*
X74585615Y-77739848D01*
X74418414Y-77607800D01*
X74418410Y-77607798D01*
X74414359Y-77604598D01*
X74373053Y-77581796D01*
X74323084Y-77531364D01*
X74308312Y-77461921D01*
X74333428Y-77395516D01*
X74360780Y-77368909D01*
X74421500Y-77325598D01*
X74539860Y-77241173D01*
X74698096Y-77083489D01*
X74707670Y-77070166D01*
X74825435Y-76906277D01*
X74828453Y-76902077D01*
X74839649Y-76879425D01*
X74925136Y-76706453D01*
X74925137Y-76706451D01*
X74927430Y-76701811D01*
X74992370Y-76488069D01*
X75021529Y-76266590D01*
X75021611Y-76263240D01*
X75023074Y-76203365D01*
X75023074Y-76203361D01*
X75023156Y-76200000D01*
X75004852Y-75977361D01*
X74950431Y-75760702D01*
X74861354Y-75555840D01*
X74821906Y-75494862D01*
X74742822Y-75372617D01*
X74742820Y-75372614D01*
X74740014Y-75368277D01*
X74589670Y-75203051D01*
X74585619Y-75199852D01*
X74585615Y-75199848D01*
X74418414Y-75067800D01*
X74418410Y-75067798D01*
X74414359Y-75064598D01*
X74403967Y-75058861D01*
X74372569Y-75041529D01*
X74322598Y-74991097D01*
X74307826Y-74921654D01*
X74332942Y-74855248D01*
X74360294Y-74828641D01*
X74535328Y-74703792D01*
X74543200Y-74697139D01*
X74694052Y-74546812D01*
X74700730Y-74538965D01*
X74825003Y-74366020D01*
X74830313Y-74357183D01*
X74924670Y-74166267D01*
X74928469Y-74156672D01*
X74990377Y-73952910D01*
X74992555Y-73942837D01*
X74993986Y-73931962D01*
X74991775Y-73917778D01*
X74978617Y-73914000D01*
X73532000Y-73914000D01*
X73463879Y-73893998D01*
X73417386Y-73840342D01*
X73406000Y-73788000D01*
X73406000Y-73532000D01*
X73426002Y-73463879D01*
X73479658Y-73417386D01*
X73532000Y-73406000D01*
X74978344Y-73406000D01*
X74991875Y-73402027D01*
X74993180Y-73392947D01*
X74951214Y-73225875D01*
X74947894Y-73216124D01*
X74862972Y-73020814D01*
X74858105Y-73011739D01*
X74742426Y-72832926D01*
X74736136Y-72824757D01*
X74592806Y-72667240D01*
X74585273Y-72660215D01*
X74418139Y-72528222D01*
X74409556Y-72522520D01*
X74372602Y-72502120D01*
X74322631Y-72451687D01*
X74307859Y-72382245D01*
X74332975Y-72315839D01*
X74360327Y-72289232D01*
X74421500Y-72245598D01*
X74539860Y-72161173D01*
X74698096Y-72003489D01*
X74757594Y-71920689D01*
X74825435Y-71826277D01*
X74828453Y-71822077D01*
X74861310Y-71755597D01*
X74925136Y-71626453D01*
X74925137Y-71626451D01*
X74927430Y-71621811D01*
X74992370Y-71408069D01*
X75021529Y-71186590D01*
X75021611Y-71183240D01*
X75023074Y-71123365D01*
X75023074Y-71123361D01*
X75023156Y-71120000D01*
X75004852Y-70897361D01*
X74950431Y-70680702D01*
X74861354Y-70475840D01*
X74740014Y-70288277D01*
X74589670Y-70123051D01*
X74585619Y-70119852D01*
X74585615Y-70119848D01*
X74418414Y-69987800D01*
X74418410Y-69987798D01*
X74414359Y-69984598D01*
X74373053Y-69961796D01*
X74323084Y-69911364D01*
X74308312Y-69841921D01*
X74333428Y-69775516D01*
X74360780Y-69748909D01*
X74421500Y-69705598D01*
X74539860Y-69621173D01*
X74698096Y-69463489D01*
X74757594Y-69380689D01*
X74825435Y-69286277D01*
X74828453Y-69282077D01*
X74830746Y-69277438D01*
X74900256Y-69136795D01*
X74948370Y-69084588D01*
X75017071Y-69066681D01*
X75084547Y-69088760D01*
X75127408Y-69139371D01*
X75149411Y-69186558D01*
X75270699Y-69359776D01*
X75420224Y-69509301D01*
X75593442Y-69630589D01*
X75598420Y-69632910D01*
X75598423Y-69632912D01*
X75780108Y-69717633D01*
X75785090Y-69719956D01*
X75790398Y-69721378D01*
X75790400Y-69721379D01*
X75984030Y-69773262D01*
X75984032Y-69773262D01*
X75989345Y-69774686D01*
X76200000Y-69793116D01*
X76410655Y-69774686D01*
X76415968Y-69773262D01*
X76415970Y-69773262D01*
X76609600Y-69721379D01*
X76609602Y-69721378D01*
X76614910Y-69719956D01*
X76619892Y-69717633D01*
X76801577Y-69632912D01*
X76801580Y-69632910D01*
X76806558Y-69630589D01*
X76979776Y-69509301D01*
X77129301Y-69359776D01*
X77250589Y-69186558D01*
X77298139Y-69084588D01*
X77337633Y-68999892D01*
X77337634Y-68999891D01*
X77339956Y-68994910D01*
X77378384Y-68851497D01*
X77393262Y-68795970D01*
X77393262Y-68795968D01*
X77394686Y-68790655D01*
X77413116Y-68580000D01*
X77394686Y-68369345D01*
X77382210Y-68322784D01*
X77341379Y-68170400D01*
X77341378Y-68170398D01*
X77339956Y-68165090D01*
X77300935Y-68081409D01*
X77252912Y-67978423D01*
X77252910Y-67978420D01*
X77250589Y-67973442D01*
X77129301Y-67800224D01*
X76979776Y-67650699D01*
X76806558Y-67529411D01*
X76801580Y-67527090D01*
X76801577Y-67527088D01*
X76619892Y-67442367D01*
X76619891Y-67442366D01*
X76614910Y-67440044D01*
X76609602Y-67438622D01*
X76609600Y-67438621D01*
X76583796Y-67431707D01*
X76523173Y-67394755D01*
X76492152Y-67330894D01*
X76500580Y-67260400D01*
X76545783Y-67205653D01*
X76583796Y-67188293D01*
X76609600Y-67181379D01*
X76609602Y-67181378D01*
X76614910Y-67179956D01*
X76645701Y-67165598D01*
X76801577Y-67092912D01*
X76801580Y-67092910D01*
X76806558Y-67090589D01*
X76979776Y-66969301D01*
X77129301Y-66819776D01*
X77250589Y-66646558D01*
X77298139Y-66544588D01*
X77337633Y-66459892D01*
X77337634Y-66459891D01*
X77339956Y-66454910D01*
X77378384Y-66311497D01*
X77393262Y-66255970D01*
X77393262Y-66255968D01*
X77394686Y-66250655D01*
X77413116Y-66040000D01*
X77394686Y-65829345D01*
X77382301Y-65783124D01*
X77341379Y-65630400D01*
X77341378Y-65630398D01*
X77339956Y-65625090D01*
X77306903Y-65554207D01*
X77252912Y-65438423D01*
X77252910Y-65438420D01*
X77250589Y-65433442D01*
X77129301Y-65260224D01*
X76979776Y-65110699D01*
X76806558Y-64989411D01*
X76801580Y-64987090D01*
X76801577Y-64987088D01*
X76619892Y-64902367D01*
X76619891Y-64902366D01*
X76614910Y-64900044D01*
X76609602Y-64898622D01*
X76609600Y-64898621D01*
X76415970Y-64846738D01*
X76415968Y-64846738D01*
X76410655Y-64845314D01*
X76200000Y-64826884D01*
X75989345Y-64845314D01*
X75984032Y-64846738D01*
X75984030Y-64846738D01*
X75790400Y-64898621D01*
X75790398Y-64898622D01*
X75785090Y-64900044D01*
X75780109Y-64902366D01*
X75780108Y-64902367D01*
X75598423Y-64987088D01*
X75598420Y-64987090D01*
X75593442Y-64989411D01*
X75420224Y-65110699D01*
X75270699Y-65260224D01*
X75149411Y-65433442D01*
X75147088Y-65438423D01*
X75147086Y-65438427D01*
X75127020Y-65481460D01*
X75080104Y-65534745D01*
X75011827Y-65554207D01*
X74943867Y-65533666D01*
X74897276Y-65478454D01*
X74877704Y-65433442D01*
X74861354Y-65395840D01*
X74740014Y-65208277D01*
X74589670Y-65043051D01*
X74585619Y-65039852D01*
X74585615Y-65039848D01*
X74418414Y-64907800D01*
X74418410Y-64907798D01*
X74414359Y-64904598D01*
X74373053Y-64881796D01*
X74323084Y-64831364D01*
X74308312Y-64761921D01*
X74333428Y-64695516D01*
X74360780Y-64668909D01*
X74421500Y-64625598D01*
X74539860Y-64541173D01*
X74698096Y-64383489D01*
X74701583Y-64378637D01*
X74825435Y-64206277D01*
X74828453Y-64202077D01*
X74830746Y-64197437D01*
X74832446Y-64194608D01*
X74884674Y-64146518D01*
X74940451Y-64133500D01*
X77155406Y-64133500D01*
X77223527Y-64153502D01*
X77244501Y-64170405D01*
X78069595Y-64995499D01*
X78103621Y-65057811D01*
X78106500Y-65084594D01*
X78106500Y-71687476D01*
X78086498Y-71755597D01*
X78074142Y-71771779D01*
X78000960Y-71853056D01*
X77997659Y-71858774D01*
X77940726Y-71957385D01*
X77905473Y-72018444D01*
X77846458Y-72200072D01*
X77845768Y-72206633D01*
X77845768Y-72206635D01*
X77832685Y-72331114D01*
X77826496Y-72390000D01*
X77827186Y-72396565D01*
X77841024Y-72528222D01*
X77846458Y-72579928D01*
X77905473Y-72761556D01*
X77908776Y-72767278D01*
X77908777Y-72767279D01*
X77928903Y-72802138D01*
X78000960Y-72926944D01*
X78005378Y-72931851D01*
X78005379Y-72931852D01*
X78085481Y-73020814D01*
X78128747Y-73068866D01*
X78283248Y-73181118D01*
X78289276Y-73183802D01*
X78289278Y-73183803D01*
X78438670Y-73250316D01*
X78457712Y-73258794D01*
X78551113Y-73278647D01*
X78638056Y-73297128D01*
X78638061Y-73297128D01*
X78644513Y-73298500D01*
X78835487Y-73298500D01*
X78841939Y-73297128D01*
X78841944Y-73297128D01*
X78928887Y-73278647D01*
X79022288Y-73258794D01*
X79046656Y-73247945D01*
X79196752Y-73181118D01*
X79197677Y-73183196D01*
X79256488Y-73168924D01*
X79323581Y-73192141D01*
X79367472Y-73247945D01*
X79376500Y-73294782D01*
X79376500Y-74851233D01*
X79375973Y-74862416D01*
X79374298Y-74869909D01*
X79374547Y-74877835D01*
X79374547Y-74877836D01*
X79376438Y-74937986D01*
X79376500Y-74941945D01*
X79376500Y-74969856D01*
X79376997Y-74973790D01*
X79376997Y-74973791D01*
X79377005Y-74973856D01*
X79377938Y-74985693D01*
X79379327Y-75029889D01*
X79382709Y-75041529D01*
X79384978Y-75049339D01*
X79388987Y-75068700D01*
X79391526Y-75088797D01*
X79394445Y-75096168D01*
X79394445Y-75096170D01*
X79407804Y-75129912D01*
X79411649Y-75141142D01*
X79423982Y-75183593D01*
X79428015Y-75190412D01*
X79428017Y-75190417D01*
X79434293Y-75201028D01*
X79442988Y-75218776D01*
X79450448Y-75237617D01*
X79455110Y-75244033D01*
X79455110Y-75244034D01*
X79476436Y-75273387D01*
X79482952Y-75283307D01*
X79505458Y-75321362D01*
X79519779Y-75335683D01*
X79532619Y-75350716D01*
X79544528Y-75367107D01*
X79578605Y-75395298D01*
X79587384Y-75403288D01*
X83149595Y-78965499D01*
X83183621Y-79027811D01*
X83186500Y-79054594D01*
X83186500Y-98734192D01*
X83166498Y-98802313D01*
X83118683Y-98845953D01*
X83093607Y-98859007D01*
X83089474Y-98862110D01*
X83089471Y-98862112D01*
X82919100Y-98990030D01*
X82914965Y-98993135D01*
X82760629Y-99154638D01*
X82653204Y-99312118D01*
X82652898Y-99312566D01*
X82597987Y-99357569D01*
X82527462Y-99365740D01*
X82463715Y-99334486D01*
X82443018Y-99310002D01*
X82362426Y-99185426D01*
X82356136Y-99177257D01*
X82212806Y-99019740D01*
X82205273Y-99012715D01*
X82038139Y-98880722D01*
X82029552Y-98875017D01*
X81843117Y-98772099D01*
X81833705Y-98767869D01*
X81632959Y-98696780D01*
X81622988Y-98694146D01*
X81551837Y-98681472D01*
X81538540Y-98682932D01*
X81534000Y-98697489D01*
X81534000Y-101331017D01*
X81538064Y-101344859D01*
X81551478Y-101346893D01*
X81558184Y-101346034D01*
X81568262Y-101343892D01*
X81772255Y-101282691D01*
X81781842Y-101278933D01*
X81973095Y-101185239D01*
X81981945Y-101179964D01*
X82155328Y-101056292D01*
X82163200Y-101049639D01*
X82314052Y-100899312D01*
X82320730Y-100891465D01*
X82448022Y-100714319D01*
X82449279Y-100715222D01*
X82496373Y-100671862D01*
X82566311Y-100659645D01*
X82631751Y-100687178D01*
X82659579Y-100719011D01*
X82719987Y-100817588D01*
X82866250Y-100986438D01*
X83038126Y-101129132D01*
X83231000Y-101241838D01*
X83439692Y-101321530D01*
X83444760Y-101322561D01*
X83444763Y-101322562D01*
X83539862Y-101341910D01*
X83658597Y-101366067D01*
X83663772Y-101366257D01*
X83663774Y-101366257D01*
X83876673Y-101374064D01*
X83876677Y-101374064D01*
X83881837Y-101374253D01*
X83886957Y-101373597D01*
X83886959Y-101373597D01*
X84098288Y-101346525D01*
X84098289Y-101346525D01*
X84103416Y-101345868D01*
X84108366Y-101344383D01*
X84312429Y-101283161D01*
X84312434Y-101283159D01*
X84317384Y-101281674D01*
X84517994Y-101183396D01*
X84699860Y-101053673D01*
X84858096Y-100895989D01*
X84988453Y-100714577D01*
X84989776Y-100715528D01*
X85036645Y-100672357D01*
X85106580Y-100660125D01*
X85172026Y-100687644D01*
X85199875Y-100719494D01*
X85259987Y-100817588D01*
X85406250Y-100986438D01*
X85578126Y-101129132D01*
X85771000Y-101241838D01*
X85979692Y-101321530D01*
X85984760Y-101322561D01*
X85984763Y-101322562D01*
X86079862Y-101341910D01*
X86198597Y-101366067D01*
X86203772Y-101366257D01*
X86203774Y-101366257D01*
X86416673Y-101374064D01*
X86416677Y-101374064D01*
X86421837Y-101374253D01*
X86426957Y-101373597D01*
X86426959Y-101373597D01*
X86638288Y-101346525D01*
X86638289Y-101346525D01*
X86643416Y-101345868D01*
X86648366Y-101344383D01*
X86852429Y-101283161D01*
X86852434Y-101283159D01*
X86857384Y-101281674D01*
X87057994Y-101183396D01*
X87239860Y-101053673D01*
X87398096Y-100895989D01*
X87528453Y-100714577D01*
X87529776Y-100715528D01*
X87576645Y-100672357D01*
X87646580Y-100660125D01*
X87712026Y-100687644D01*
X87739875Y-100719494D01*
X87799987Y-100817588D01*
X87946250Y-100986438D01*
X88118126Y-101129132D01*
X88311000Y-101241838D01*
X88519692Y-101321530D01*
X88524760Y-101322561D01*
X88524763Y-101322562D01*
X88619862Y-101341910D01*
X88738597Y-101366067D01*
X88743772Y-101366257D01*
X88743774Y-101366257D01*
X88956673Y-101374064D01*
X88956677Y-101374064D01*
X88961837Y-101374253D01*
X88966957Y-101373597D01*
X88966959Y-101373597D01*
X89178288Y-101346525D01*
X89178289Y-101346525D01*
X89183416Y-101345868D01*
X89188366Y-101344383D01*
X89392429Y-101283161D01*
X89392434Y-101283159D01*
X89397384Y-101281674D01*
X89597994Y-101183396D01*
X89779860Y-101053673D01*
X89938096Y-100895989D01*
X90068453Y-100714577D01*
X90069776Y-100715528D01*
X90116645Y-100672357D01*
X90186580Y-100660125D01*
X90252026Y-100687644D01*
X90279875Y-100719494D01*
X90339987Y-100817588D01*
X90486250Y-100986438D01*
X90658126Y-101129132D01*
X90851000Y-101241838D01*
X91059692Y-101321530D01*
X91064760Y-101322561D01*
X91064763Y-101322562D01*
X91159862Y-101341910D01*
X91278597Y-101366067D01*
X91283772Y-101366257D01*
X91283774Y-101366257D01*
X91496673Y-101374064D01*
X91496677Y-101374064D01*
X91501837Y-101374253D01*
X91506957Y-101373597D01*
X91506959Y-101373597D01*
X91718288Y-101346525D01*
X91718289Y-101346525D01*
X91723416Y-101345868D01*
X91728366Y-101344383D01*
X91932429Y-101283161D01*
X91932434Y-101283159D01*
X91937384Y-101281674D01*
X92137994Y-101183396D01*
X92319860Y-101053673D01*
X92478096Y-100895989D01*
X92608453Y-100714577D01*
X92609776Y-100715528D01*
X92656645Y-100672357D01*
X92726580Y-100660125D01*
X92792026Y-100687644D01*
X92819875Y-100719494D01*
X92879987Y-100817588D01*
X93026250Y-100986438D01*
X93198126Y-101129132D01*
X93391000Y-101241838D01*
X93599692Y-101321530D01*
X93604760Y-101322561D01*
X93604763Y-101322562D01*
X93699862Y-101341910D01*
X93818597Y-101366067D01*
X93823772Y-101366257D01*
X93823774Y-101366257D01*
X94036673Y-101374064D01*
X94036677Y-101374064D01*
X94041837Y-101374253D01*
X94046957Y-101373597D01*
X94046959Y-101373597D01*
X94258288Y-101346525D01*
X94258289Y-101346525D01*
X94263416Y-101345868D01*
X94268366Y-101344383D01*
X94472429Y-101283161D01*
X94472434Y-101283159D01*
X94477384Y-101281674D01*
X94677994Y-101183396D01*
X94859860Y-101053673D01*
X95018096Y-100895989D01*
X95148453Y-100714577D01*
X95149776Y-100715528D01*
X95196645Y-100672357D01*
X95266580Y-100660125D01*
X95332026Y-100687644D01*
X95359875Y-100719494D01*
X95419987Y-100817588D01*
X95566250Y-100986438D01*
X95738126Y-101129132D01*
X95931000Y-101241838D01*
X96139692Y-101321530D01*
X96144760Y-101322561D01*
X96144763Y-101322562D01*
X96239862Y-101341910D01*
X96358597Y-101366067D01*
X96363772Y-101366257D01*
X96363774Y-101366257D01*
X96576673Y-101374064D01*
X96576677Y-101374064D01*
X96581837Y-101374253D01*
X96586957Y-101373597D01*
X96586959Y-101373597D01*
X96798288Y-101346525D01*
X96798289Y-101346525D01*
X96803416Y-101345868D01*
X96808366Y-101344383D01*
X97012429Y-101283161D01*
X97012434Y-101283159D01*
X97017384Y-101281674D01*
X97217994Y-101183396D01*
X97399860Y-101053673D01*
X97558096Y-100895989D01*
X97688453Y-100714577D01*
X97701995Y-100687178D01*
X97785136Y-100518953D01*
X97785137Y-100518951D01*
X97787430Y-100514311D01*
X97852370Y-100300569D01*
X97881529Y-100079090D01*
X97883156Y-100012500D01*
X97864852Y-99789861D01*
X97810431Y-99573202D01*
X97721354Y-99368340D01*
X97600014Y-99180777D01*
X97449670Y-99015551D01*
X97445619Y-99012352D01*
X97445615Y-99012348D01*
X97278414Y-98880300D01*
X97278410Y-98880298D01*
X97274359Y-98877098D01*
X97269831Y-98874598D01*
X97153988Y-98810650D01*
X97078789Y-98769138D01*
X97073920Y-98767414D01*
X97073916Y-98767412D01*
X96873087Y-98696295D01*
X96873083Y-98696294D01*
X96868212Y-98694569D01*
X96863119Y-98693662D01*
X96863116Y-98693661D01*
X96653373Y-98656300D01*
X96653367Y-98656299D01*
X96648284Y-98655394D01*
X96574452Y-98654492D01*
X96430081Y-98652728D01*
X96430079Y-98652728D01*
X96424911Y-98652665D01*
X96204091Y-98686455D01*
X95991756Y-98755857D01*
X95918757Y-98793858D01*
X95817975Y-98846322D01*
X95793607Y-98859007D01*
X95789474Y-98862110D01*
X95789471Y-98862112D01*
X95619100Y-98990030D01*
X95614965Y-98993135D01*
X95460629Y-99154638D01*
X95353201Y-99312121D01*
X95298293Y-99357121D01*
X95227768Y-99365292D01*
X95164021Y-99334038D01*
X95143324Y-99309554D01*
X95062822Y-99185117D01*
X95062820Y-99185114D01*
X95060014Y-99180777D01*
X94909670Y-99015551D01*
X94905619Y-99012352D01*
X94905615Y-99012348D01*
X94738414Y-98880300D01*
X94738410Y-98880298D01*
X94734359Y-98877098D01*
X94729831Y-98874598D01*
X94613988Y-98810650D01*
X94538789Y-98769138D01*
X94533920Y-98767414D01*
X94533916Y-98767412D01*
X94333087Y-98696295D01*
X94333083Y-98696294D01*
X94328212Y-98694569D01*
X94323119Y-98693662D01*
X94323116Y-98693661D01*
X94113373Y-98656300D01*
X94113367Y-98656299D01*
X94108284Y-98655394D01*
X94034452Y-98654492D01*
X93890081Y-98652728D01*
X93890079Y-98652728D01*
X93884911Y-98652665D01*
X93664091Y-98686455D01*
X93451756Y-98755857D01*
X93378757Y-98793858D01*
X93277975Y-98846322D01*
X93253607Y-98859007D01*
X93249474Y-98862110D01*
X93249471Y-98862112D01*
X93079100Y-98990030D01*
X93074965Y-98993135D01*
X92920629Y-99154638D01*
X92813201Y-99312121D01*
X92758293Y-99357121D01*
X92687768Y-99365292D01*
X92624021Y-99334038D01*
X92603324Y-99309554D01*
X92522822Y-99185117D01*
X92522820Y-99185114D01*
X92520014Y-99180777D01*
X92369670Y-99015551D01*
X92365619Y-99012352D01*
X92365615Y-99012348D01*
X92198414Y-98880300D01*
X92198410Y-98880298D01*
X92194359Y-98877098D01*
X92189831Y-98874598D01*
X92073988Y-98810650D01*
X91998789Y-98769138D01*
X91993920Y-98767414D01*
X91993916Y-98767412D01*
X91793087Y-98696295D01*
X91793083Y-98696294D01*
X91788212Y-98694569D01*
X91783119Y-98693662D01*
X91783116Y-98693661D01*
X91573373Y-98656300D01*
X91573367Y-98656299D01*
X91568284Y-98655394D01*
X91494452Y-98654492D01*
X91350081Y-98652728D01*
X91350079Y-98652728D01*
X91344911Y-98652665D01*
X91124091Y-98686455D01*
X90911756Y-98755857D01*
X90838757Y-98793858D01*
X90737975Y-98846322D01*
X90713607Y-98859007D01*
X90709474Y-98862110D01*
X90709471Y-98862112D01*
X90539100Y-98990030D01*
X90534965Y-98993135D01*
X90380629Y-99154638D01*
X90273201Y-99312121D01*
X90218293Y-99357121D01*
X90147768Y-99365292D01*
X90084021Y-99334038D01*
X90063324Y-99309554D01*
X89982822Y-99185117D01*
X89982820Y-99185114D01*
X89980014Y-99180777D01*
X89829670Y-99015551D01*
X89825619Y-99012352D01*
X89825615Y-99012348D01*
X89658414Y-98880300D01*
X89658410Y-98880298D01*
X89654359Y-98877098D01*
X89649831Y-98874598D01*
X89533988Y-98810650D01*
X89458789Y-98769138D01*
X89453920Y-98767414D01*
X89453916Y-98767412D01*
X89253087Y-98696295D01*
X89253083Y-98696294D01*
X89248212Y-98694569D01*
X89243119Y-98693662D01*
X89243116Y-98693661D01*
X89033373Y-98656300D01*
X89033367Y-98656299D01*
X89028284Y-98655394D01*
X88954452Y-98654492D01*
X88810081Y-98652728D01*
X88810079Y-98652728D01*
X88804911Y-98652665D01*
X88584091Y-98686455D01*
X88371756Y-98755857D01*
X88298757Y-98793858D01*
X88197975Y-98846322D01*
X88173607Y-98859007D01*
X88169474Y-98862110D01*
X88169471Y-98862112D01*
X87999100Y-98990030D01*
X87994965Y-98993135D01*
X87840629Y-99154638D01*
X87733201Y-99312121D01*
X87678293Y-99357121D01*
X87607768Y-99365292D01*
X87544021Y-99334038D01*
X87523324Y-99309554D01*
X87442822Y-99185117D01*
X87442820Y-99185114D01*
X87440014Y-99180777D01*
X87289670Y-99015551D01*
X87285619Y-99012352D01*
X87285615Y-99012348D01*
X87118414Y-98880300D01*
X87118410Y-98880298D01*
X87114359Y-98877098D01*
X87109835Y-98874601D01*
X87109831Y-98874598D01*
X87058608Y-98846322D01*
X87008636Y-98795890D01*
X86993500Y-98736013D01*
X86993500Y-96520000D01*
X90226884Y-96520000D01*
X90245314Y-96730655D01*
X90300044Y-96934910D01*
X90389411Y-97126558D01*
X90510699Y-97299776D01*
X90660224Y-97449301D01*
X90833442Y-97570589D01*
X90838420Y-97572910D01*
X90838423Y-97572912D01*
X91020108Y-97657633D01*
X91025090Y-97659956D01*
X91030398Y-97661378D01*
X91030400Y-97661379D01*
X91224030Y-97713262D01*
X91224032Y-97713262D01*
X91229345Y-97714686D01*
X91440000Y-97733116D01*
X91650655Y-97714686D01*
X91655968Y-97713262D01*
X91655970Y-97713262D01*
X91849600Y-97661379D01*
X91849602Y-97661378D01*
X91854910Y-97659956D01*
X91859892Y-97657633D01*
X92041577Y-97572912D01*
X92041580Y-97572910D01*
X92046558Y-97570589D01*
X92219776Y-97449301D01*
X92369301Y-97299776D01*
X92490589Y-97126558D01*
X92579956Y-96934910D01*
X92588293Y-96903796D01*
X92625245Y-96843173D01*
X92689106Y-96812152D01*
X92759600Y-96820580D01*
X92814347Y-96865783D01*
X92831707Y-96903796D01*
X92840044Y-96934910D01*
X92929411Y-97126558D01*
X93050699Y-97299776D01*
X93200224Y-97449301D01*
X93373442Y-97570589D01*
X93378420Y-97572910D01*
X93378423Y-97572912D01*
X93560108Y-97657633D01*
X93565090Y-97659956D01*
X93570398Y-97661378D01*
X93570400Y-97661379D01*
X93764030Y-97713262D01*
X93764032Y-97713262D01*
X93769345Y-97714686D01*
X93980000Y-97733116D01*
X94190655Y-97714686D01*
X94195968Y-97713262D01*
X94195970Y-97713262D01*
X94389600Y-97661379D01*
X94389602Y-97661378D01*
X94394910Y-97659956D01*
X94399892Y-97657633D01*
X94581577Y-97572912D01*
X94581580Y-97572910D01*
X94586558Y-97570589D01*
X94759776Y-97449301D01*
X94909301Y-97299776D01*
X95030589Y-97126558D01*
X95119956Y-96934910D01*
X95174686Y-96730655D01*
X95193116Y-96520000D01*
X95174686Y-96309345D01*
X95119956Y-96105090D01*
X95030589Y-95913442D01*
X94909301Y-95740224D01*
X94759776Y-95590699D01*
X94586558Y-95469411D01*
X94581580Y-95467090D01*
X94581577Y-95467088D01*
X94399892Y-95382367D01*
X94399891Y-95382366D01*
X94394910Y-95380044D01*
X94389602Y-95378622D01*
X94389600Y-95378621D01*
X94195970Y-95326738D01*
X94195968Y-95326738D01*
X94190655Y-95325314D01*
X93980000Y-95306884D01*
X93769345Y-95325314D01*
X93764032Y-95326738D01*
X93764030Y-95326738D01*
X93570400Y-95378621D01*
X93570398Y-95378622D01*
X93565090Y-95380044D01*
X93560109Y-95382366D01*
X93560108Y-95382367D01*
X93378423Y-95467088D01*
X93378420Y-95467090D01*
X93373442Y-95469411D01*
X93200224Y-95590699D01*
X93050699Y-95740224D01*
X92929411Y-95913442D01*
X92840044Y-96105090D01*
X92838622Y-96110398D01*
X92838621Y-96110400D01*
X92831707Y-96136204D01*
X92794755Y-96196827D01*
X92730894Y-96227848D01*
X92660400Y-96219420D01*
X92605653Y-96174217D01*
X92588293Y-96136204D01*
X92581379Y-96110400D01*
X92581378Y-96110398D01*
X92579956Y-96105090D01*
X92490589Y-95913442D01*
X92369301Y-95740224D01*
X92219776Y-95590699D01*
X92046558Y-95469411D01*
X92041580Y-95467090D01*
X92041577Y-95467088D01*
X91859892Y-95382367D01*
X91859891Y-95382366D01*
X91854910Y-95380044D01*
X91849602Y-95378622D01*
X91849600Y-95378621D01*
X91655970Y-95326738D01*
X91655968Y-95326738D01*
X91650655Y-95325314D01*
X91440000Y-95306884D01*
X91229345Y-95325314D01*
X91224032Y-95326738D01*
X91224030Y-95326738D01*
X91030400Y-95378621D01*
X91030398Y-95378622D01*
X91025090Y-95380044D01*
X91020109Y-95382366D01*
X91020108Y-95382367D01*
X90838423Y-95467088D01*
X90838420Y-95467090D01*
X90833442Y-95469411D01*
X90660224Y-95590699D01*
X90510699Y-95740224D01*
X90389411Y-95913442D01*
X90300044Y-96105090D01*
X90245314Y-96309345D01*
X90226884Y-96520000D01*
X86993500Y-96520000D01*
X86993500Y-88900000D01*
X90226884Y-88900000D01*
X90245314Y-89110655D01*
X90300044Y-89314910D01*
X90302366Y-89319891D01*
X90302367Y-89319892D01*
X90340567Y-89401811D01*
X90389411Y-89506558D01*
X90510699Y-89679776D01*
X90660224Y-89829301D01*
X90833442Y-89950589D01*
X90838420Y-89952910D01*
X90838423Y-89952912D01*
X90994299Y-90025598D01*
X91025090Y-90039956D01*
X91030398Y-90041378D01*
X91030400Y-90041379D01*
X91224030Y-90093262D01*
X91224032Y-90093262D01*
X91229345Y-90094686D01*
X91440000Y-90113116D01*
X91650655Y-90094686D01*
X91655968Y-90093262D01*
X91655970Y-90093262D01*
X91849600Y-90041379D01*
X91849602Y-90041378D01*
X91854910Y-90039956D01*
X91885701Y-90025598D01*
X92041577Y-89952912D01*
X92041580Y-89952910D01*
X92046558Y-89950589D01*
X92219776Y-89829301D01*
X92369301Y-89679776D01*
X92490589Y-89506558D01*
X92539434Y-89401811D01*
X92577633Y-89319892D01*
X92577634Y-89319891D01*
X92579956Y-89314910D01*
X92588293Y-89283796D01*
X92625245Y-89223173D01*
X92689106Y-89192152D01*
X92759600Y-89200580D01*
X92814347Y-89245783D01*
X92831707Y-89283796D01*
X92840044Y-89314910D01*
X92842366Y-89319891D01*
X92842367Y-89319892D01*
X92880567Y-89401811D01*
X92929411Y-89506558D01*
X93050699Y-89679776D01*
X93200224Y-89829301D01*
X93373442Y-89950589D01*
X93378420Y-89952910D01*
X93378423Y-89952912D01*
X93534299Y-90025598D01*
X93565090Y-90039956D01*
X93570398Y-90041378D01*
X93570400Y-90041379D01*
X93764030Y-90093262D01*
X93764032Y-90093262D01*
X93769345Y-90094686D01*
X93980000Y-90113116D01*
X94190655Y-90094686D01*
X94195968Y-90093262D01*
X94195970Y-90093262D01*
X94389600Y-90041379D01*
X94389602Y-90041378D01*
X94394910Y-90039956D01*
X94425701Y-90025598D01*
X94581577Y-89952912D01*
X94581580Y-89952910D01*
X94586558Y-89950589D01*
X94759776Y-89829301D01*
X94909301Y-89679776D01*
X95030589Y-89506558D01*
X95079434Y-89401811D01*
X95117633Y-89319892D01*
X95117634Y-89319891D01*
X95119956Y-89314910D01*
X95174686Y-89110655D01*
X95193116Y-88900000D01*
X95174686Y-88689345D01*
X95119956Y-88485090D01*
X95030589Y-88293442D01*
X94909301Y-88120224D01*
X94759776Y-87970699D01*
X94586558Y-87849411D01*
X94581580Y-87847090D01*
X94581577Y-87847088D01*
X94399892Y-87762367D01*
X94399891Y-87762366D01*
X94394910Y-87760044D01*
X94389602Y-87758622D01*
X94389600Y-87758621D01*
X94195970Y-87706738D01*
X94195968Y-87706738D01*
X94190655Y-87705314D01*
X93980000Y-87686884D01*
X93769345Y-87705314D01*
X93764032Y-87706738D01*
X93764030Y-87706738D01*
X93570400Y-87758621D01*
X93570398Y-87758622D01*
X93565090Y-87760044D01*
X93560109Y-87762366D01*
X93560108Y-87762367D01*
X93378423Y-87847088D01*
X93378420Y-87847090D01*
X93373442Y-87849411D01*
X93200224Y-87970699D01*
X93050699Y-88120224D01*
X92929411Y-88293442D01*
X92840044Y-88485090D01*
X92838622Y-88490398D01*
X92838621Y-88490400D01*
X92831707Y-88516204D01*
X92794755Y-88576827D01*
X92730894Y-88607848D01*
X92660400Y-88599420D01*
X92605653Y-88554217D01*
X92588293Y-88516204D01*
X92581379Y-88490400D01*
X92581378Y-88490398D01*
X92579956Y-88485090D01*
X92490589Y-88293442D01*
X92369301Y-88120224D01*
X92219776Y-87970699D01*
X92046558Y-87849411D01*
X92041580Y-87847090D01*
X92041577Y-87847088D01*
X91859892Y-87762367D01*
X91859891Y-87762366D01*
X91854910Y-87760044D01*
X91849602Y-87758622D01*
X91849600Y-87758621D01*
X91655970Y-87706738D01*
X91655968Y-87706738D01*
X91650655Y-87705314D01*
X91440000Y-87686884D01*
X91229345Y-87705314D01*
X91224032Y-87706738D01*
X91224030Y-87706738D01*
X91030400Y-87758621D01*
X91030398Y-87758622D01*
X91025090Y-87760044D01*
X91020109Y-87762366D01*
X91020108Y-87762367D01*
X90838423Y-87847088D01*
X90838420Y-87847090D01*
X90833442Y-87849411D01*
X90660224Y-87970699D01*
X90510699Y-88120224D01*
X90389411Y-88293442D01*
X90300044Y-88485090D01*
X90245314Y-88689345D01*
X90226884Y-88900000D01*
X86993500Y-88900000D01*
X86993500Y-85356522D01*
X91530801Y-85356522D01*
X91569092Y-85499423D01*
X91572842Y-85509727D01*
X91657521Y-85691323D01*
X91662998Y-85700811D01*
X91777925Y-85864942D01*
X91784981Y-85873350D01*
X91926650Y-86015019D01*
X91935058Y-86022075D01*
X92099189Y-86137002D01*
X92108677Y-86142479D01*
X92290273Y-86227158D01*
X92300577Y-86230908D01*
X92438503Y-86267866D01*
X92452599Y-86267530D01*
X92456000Y-86259588D01*
X92456000Y-86254439D01*
X92964000Y-86254439D01*
X92967973Y-86267970D01*
X92976522Y-86269199D01*
X93119423Y-86230908D01*
X93129727Y-86227158D01*
X93311323Y-86142479D01*
X93320811Y-86137002D01*
X93484942Y-86022075D01*
X93493350Y-86015019D01*
X93635019Y-85873350D01*
X93642075Y-85864942D01*
X93757002Y-85700811D01*
X93762479Y-85691323D01*
X93847158Y-85509727D01*
X93850908Y-85499423D01*
X93887866Y-85361497D01*
X93887747Y-85356522D01*
X96610801Y-85356522D01*
X96649092Y-85499423D01*
X96652842Y-85509727D01*
X96737521Y-85691323D01*
X96742998Y-85700811D01*
X96857925Y-85864942D01*
X96864981Y-85873350D01*
X97006650Y-86015019D01*
X97015058Y-86022075D01*
X97179189Y-86137002D01*
X97188677Y-86142479D01*
X97370273Y-86227158D01*
X97380577Y-86230908D01*
X97518503Y-86267866D01*
X97532599Y-86267530D01*
X97536000Y-86259588D01*
X97536000Y-86254439D01*
X98044000Y-86254439D01*
X98047973Y-86267970D01*
X98056522Y-86269199D01*
X98199423Y-86230908D01*
X98209727Y-86227158D01*
X98391323Y-86142479D01*
X98400811Y-86137002D01*
X98564942Y-86022075D01*
X98573350Y-86015019D01*
X98715019Y-85873350D01*
X98722075Y-85864942D01*
X98837002Y-85700811D01*
X98842479Y-85691323D01*
X98927158Y-85509727D01*
X98930908Y-85499423D01*
X98967866Y-85361497D01*
X98967530Y-85347401D01*
X98959588Y-85344000D01*
X98062115Y-85344000D01*
X98046876Y-85348475D01*
X98045671Y-85349865D01*
X98044000Y-85357548D01*
X98044000Y-86254439D01*
X97536000Y-86254439D01*
X97536000Y-85362115D01*
X97531525Y-85346876D01*
X97530135Y-85345671D01*
X97522452Y-85344000D01*
X96625561Y-85344000D01*
X96612030Y-85347973D01*
X96610801Y-85356522D01*
X93887747Y-85356522D01*
X93887530Y-85347401D01*
X93879588Y-85344000D01*
X92982115Y-85344000D01*
X92966876Y-85348475D01*
X92965671Y-85349865D01*
X92964000Y-85357548D01*
X92964000Y-86254439D01*
X92456000Y-86254439D01*
X92456000Y-85362115D01*
X92451525Y-85346876D01*
X92450135Y-85345671D01*
X92442452Y-85344000D01*
X91545561Y-85344000D01*
X91532030Y-85347973D01*
X91530801Y-85356522D01*
X86993500Y-85356522D01*
X86993500Y-85054408D01*
X87013502Y-84986287D01*
X87067158Y-84939794D01*
X87137432Y-84929690D01*
X87172749Y-84940213D01*
X87210103Y-84957631D01*
X87210108Y-84957633D01*
X87215090Y-84959956D01*
X87220398Y-84961378D01*
X87220400Y-84961379D01*
X87414030Y-85013262D01*
X87414032Y-85013262D01*
X87419345Y-85014686D01*
X87630000Y-85033116D01*
X87840655Y-85014686D01*
X87845968Y-85013262D01*
X87845970Y-85013262D01*
X88039600Y-84961379D01*
X88039602Y-84961378D01*
X88044910Y-84959956D01*
X88088148Y-84939794D01*
X88231577Y-84872912D01*
X88231580Y-84872910D01*
X88236558Y-84870589D01*
X88310945Y-84818503D01*
X91532134Y-84818503D01*
X91532470Y-84832599D01*
X91540412Y-84836000D01*
X92437885Y-84836000D01*
X92453124Y-84831525D01*
X92454329Y-84830135D01*
X92456000Y-84822452D01*
X92456000Y-84817885D01*
X92964000Y-84817885D01*
X92968475Y-84833124D01*
X92969865Y-84834329D01*
X92977548Y-84836000D01*
X93874439Y-84836000D01*
X93887970Y-84832027D01*
X93889199Y-84823478D01*
X93887866Y-84818503D01*
X96612134Y-84818503D01*
X96612470Y-84832599D01*
X96620412Y-84836000D01*
X97517885Y-84836000D01*
X97533124Y-84831525D01*
X97534329Y-84830135D01*
X97536000Y-84822452D01*
X97536000Y-84817885D01*
X98044000Y-84817885D01*
X98048475Y-84833124D01*
X98049865Y-84834329D01*
X98057548Y-84836000D01*
X98954439Y-84836000D01*
X98967970Y-84832027D01*
X98969199Y-84823478D01*
X98930908Y-84680577D01*
X98927158Y-84670273D01*
X98842479Y-84488677D01*
X98837002Y-84479189D01*
X98722075Y-84315058D01*
X98715019Y-84306650D01*
X98573350Y-84164981D01*
X98564942Y-84157925D01*
X98400811Y-84042998D01*
X98391323Y-84037521D01*
X98209727Y-83952842D01*
X98199423Y-83949092D01*
X98061497Y-83912134D01*
X98047401Y-83912470D01*
X98044000Y-83920412D01*
X98044000Y-84817885D01*
X97536000Y-84817885D01*
X97536000Y-83925561D01*
X97532027Y-83912030D01*
X97523478Y-83910801D01*
X97380577Y-83949092D01*
X97370273Y-83952842D01*
X97188677Y-84037521D01*
X97179189Y-84042998D01*
X97015058Y-84157925D01*
X97006650Y-84164981D01*
X96864981Y-84306650D01*
X96857925Y-84315058D01*
X96742998Y-84479189D01*
X96737521Y-84488677D01*
X96652842Y-84670273D01*
X96649092Y-84680577D01*
X96612134Y-84818503D01*
X93887866Y-84818503D01*
X93850908Y-84680577D01*
X93847158Y-84670273D01*
X93762479Y-84488677D01*
X93757002Y-84479189D01*
X93642075Y-84315058D01*
X93635019Y-84306650D01*
X93493350Y-84164981D01*
X93484942Y-84157925D01*
X93320811Y-84042998D01*
X93311323Y-84037521D01*
X93129727Y-83952842D01*
X93119423Y-83949092D01*
X92981497Y-83912134D01*
X92967401Y-83912470D01*
X92964000Y-83920412D01*
X92964000Y-84817885D01*
X92456000Y-84817885D01*
X92456000Y-83925561D01*
X92452027Y-83912030D01*
X92443478Y-83910801D01*
X92300577Y-83949092D01*
X92290273Y-83952842D01*
X92108677Y-84037521D01*
X92099189Y-84042998D01*
X91935058Y-84157925D01*
X91926650Y-84164981D01*
X91784981Y-84306650D01*
X91777925Y-84315058D01*
X91662998Y-84479189D01*
X91657521Y-84488677D01*
X91572842Y-84670273D01*
X91569092Y-84680577D01*
X91532134Y-84818503D01*
X88310945Y-84818503D01*
X88409776Y-84749301D01*
X88559301Y-84599776D01*
X88680589Y-84426558D01*
X88729434Y-84321811D01*
X88767633Y-84239892D01*
X88767634Y-84239891D01*
X88769956Y-84234910D01*
X88788694Y-84164981D01*
X88823262Y-84035970D01*
X88823262Y-84035968D01*
X88824686Y-84030655D01*
X88843116Y-83820000D01*
X88824686Y-83609345D01*
X88769956Y-83405090D01*
X88680589Y-83213442D01*
X88559301Y-83040224D01*
X88409776Y-82890699D01*
X88236558Y-82769411D01*
X88231580Y-82767090D01*
X88231577Y-82767088D01*
X88049892Y-82682367D01*
X88049891Y-82682366D01*
X88044910Y-82680044D01*
X88039602Y-82678622D01*
X88039600Y-82678621D01*
X88013796Y-82671707D01*
X87953173Y-82634755D01*
X87922152Y-82570894D01*
X87930580Y-82500400D01*
X87975783Y-82445653D01*
X88013796Y-82428293D01*
X88039600Y-82421379D01*
X88039602Y-82421378D01*
X88044910Y-82419956D01*
X88090213Y-82398831D01*
X88231577Y-82332912D01*
X88231580Y-82332910D01*
X88236558Y-82330589D01*
X88409776Y-82209301D01*
X88559301Y-82059776D01*
X88680589Y-81886558D01*
X88729434Y-81781811D01*
X88767633Y-81699892D01*
X88767634Y-81699891D01*
X88769956Y-81694910D01*
X88824686Y-81490655D01*
X88843116Y-81280000D01*
X88824686Y-81069345D01*
X88812163Y-81022607D01*
X88771379Y-80870400D01*
X88771378Y-80870398D01*
X88769956Y-80865090D01*
X88756370Y-80835954D01*
X88682912Y-80678423D01*
X88682910Y-80678420D01*
X88680589Y-80673442D01*
X88559301Y-80500224D01*
X88409776Y-80350699D01*
X88236558Y-80229411D01*
X88231580Y-80227090D01*
X88231577Y-80227088D01*
X88049892Y-80142367D01*
X88049891Y-80142366D01*
X88044910Y-80140044D01*
X88039602Y-80138622D01*
X88039600Y-80138621D01*
X87845970Y-80086738D01*
X87845968Y-80086738D01*
X87840655Y-80085314D01*
X87630000Y-80066884D01*
X87419345Y-80085314D01*
X87414032Y-80086738D01*
X87414030Y-80086738D01*
X87220400Y-80138621D01*
X87220398Y-80138622D01*
X87215090Y-80140044D01*
X87210108Y-80142367D01*
X87210103Y-80142369D01*
X87172749Y-80159787D01*
X87102557Y-80170448D01*
X87037745Y-80141467D01*
X86998889Y-80082047D01*
X86993500Y-80045592D01*
X86993500Y-78818763D01*
X86994027Y-78807579D01*
X86995701Y-78800091D01*
X86993562Y-78732032D01*
X86993500Y-78728075D01*
X86993500Y-78700144D01*
X86992994Y-78696138D01*
X86992061Y-78684292D01*
X86990922Y-78648037D01*
X86990922Y-78648036D01*
X86990673Y-78640110D01*
X86985022Y-78620658D01*
X86981014Y-78601306D01*
X86979468Y-78589068D01*
X86979467Y-78589066D01*
X86978474Y-78581203D01*
X86962194Y-78540086D01*
X86958359Y-78528885D01*
X86946018Y-78486406D01*
X86941985Y-78479587D01*
X86941983Y-78479582D01*
X86935707Y-78468971D01*
X86927010Y-78451221D01*
X86919552Y-78432383D01*
X86893563Y-78396612D01*
X86887053Y-78386701D01*
X86868578Y-78355460D01*
X86868574Y-78355455D01*
X86864542Y-78348637D01*
X86850218Y-78334313D01*
X86837376Y-78319278D01*
X86830131Y-78309306D01*
X86825472Y-78302893D01*
X86791406Y-78274711D01*
X86782627Y-78266722D01*
X85985905Y-77470000D01*
X91496884Y-77470000D01*
X91515314Y-77680655D01*
X91516738Y-77685968D01*
X91516738Y-77685970D01*
X91526027Y-77720635D01*
X91570044Y-77884910D01*
X91572366Y-77889891D01*
X91572367Y-77889892D01*
X91654805Y-78066680D01*
X91659411Y-78076558D01*
X91780699Y-78249776D01*
X91930224Y-78399301D01*
X92103442Y-78520589D01*
X92108420Y-78522910D01*
X92108423Y-78522912D01*
X92276512Y-78601293D01*
X92295090Y-78609956D01*
X92300398Y-78611378D01*
X92300400Y-78611379D01*
X92494030Y-78663262D01*
X92494032Y-78663262D01*
X92499345Y-78664686D01*
X92710000Y-78683116D01*
X92920655Y-78664686D01*
X92925968Y-78663262D01*
X92925970Y-78663262D01*
X93119600Y-78611379D01*
X93119602Y-78611378D01*
X93124910Y-78609956D01*
X93143488Y-78601293D01*
X93311577Y-78522912D01*
X93311580Y-78522910D01*
X93316558Y-78520589D01*
X93489776Y-78399301D01*
X93639301Y-78249776D01*
X93760589Y-78076558D01*
X93765196Y-78066680D01*
X93847633Y-77889892D01*
X93847634Y-77889891D01*
X93849956Y-77884910D01*
X93893974Y-77720635D01*
X93903262Y-77685970D01*
X93903262Y-77685968D01*
X93904686Y-77680655D01*
X93923116Y-77470000D01*
X96576884Y-77470000D01*
X96595314Y-77680655D01*
X96596738Y-77685968D01*
X96596738Y-77685970D01*
X96606027Y-77720635D01*
X96650044Y-77884910D01*
X96652366Y-77889891D01*
X96652367Y-77889892D01*
X96734805Y-78066680D01*
X96739411Y-78076558D01*
X96860699Y-78249776D01*
X97010224Y-78399301D01*
X97183442Y-78520589D01*
X97188420Y-78522910D01*
X97188423Y-78522912D01*
X97356512Y-78601293D01*
X97375090Y-78609956D01*
X97380398Y-78611378D01*
X97380400Y-78611379D01*
X97574030Y-78663262D01*
X97574032Y-78663262D01*
X97579345Y-78664686D01*
X97790000Y-78683116D01*
X98000655Y-78664686D01*
X98005968Y-78663262D01*
X98005970Y-78663262D01*
X98199600Y-78611379D01*
X98199602Y-78611378D01*
X98204910Y-78609956D01*
X98223488Y-78601293D01*
X98391577Y-78522912D01*
X98391580Y-78522910D01*
X98396558Y-78520589D01*
X98569776Y-78399301D01*
X98719301Y-78249776D01*
X98840589Y-78076558D01*
X98845196Y-78066680D01*
X98927633Y-77889892D01*
X98927634Y-77889891D01*
X98929956Y-77884910D01*
X98973974Y-77720635D01*
X98983262Y-77685970D01*
X98983262Y-77685968D01*
X98984686Y-77680655D01*
X99003116Y-77470000D01*
X98984686Y-77259345D01*
X98979817Y-77241173D01*
X98931379Y-77060400D01*
X98931378Y-77060398D01*
X98929956Y-77055090D01*
X98927633Y-77050108D01*
X98842912Y-76868423D01*
X98842910Y-76868420D01*
X98840589Y-76863442D01*
X98719301Y-76690224D01*
X98569776Y-76540699D01*
X98396558Y-76419411D01*
X98391580Y-76417090D01*
X98391577Y-76417088D01*
X98209892Y-76332367D01*
X98209891Y-76332366D01*
X98204910Y-76330044D01*
X98199602Y-76328622D01*
X98199600Y-76328621D01*
X98005970Y-76276738D01*
X98005968Y-76276738D01*
X98000655Y-76275314D01*
X97790000Y-76256884D01*
X97579345Y-76275314D01*
X97574032Y-76276738D01*
X97574030Y-76276738D01*
X97380400Y-76328621D01*
X97380398Y-76328622D01*
X97375090Y-76330044D01*
X97370109Y-76332366D01*
X97370108Y-76332367D01*
X97188423Y-76417088D01*
X97188420Y-76417090D01*
X97183442Y-76419411D01*
X97010224Y-76540699D01*
X96860699Y-76690224D01*
X96739411Y-76863442D01*
X96737090Y-76868420D01*
X96737088Y-76868423D01*
X96652367Y-77050108D01*
X96650044Y-77055090D01*
X96648622Y-77060398D01*
X96648621Y-77060400D01*
X96600183Y-77241173D01*
X96595314Y-77259345D01*
X96576884Y-77470000D01*
X93923116Y-77470000D01*
X93904686Y-77259345D01*
X93899817Y-77241173D01*
X93851379Y-77060400D01*
X93851378Y-77060398D01*
X93849956Y-77055090D01*
X93847633Y-77050108D01*
X93762912Y-76868423D01*
X93762910Y-76868420D01*
X93760589Y-76863442D01*
X93639301Y-76690224D01*
X93489776Y-76540699D01*
X93316558Y-76419411D01*
X93311580Y-76417090D01*
X93311577Y-76417088D01*
X93129892Y-76332367D01*
X93129891Y-76332366D01*
X93124910Y-76330044D01*
X93119602Y-76328622D01*
X93119600Y-76328621D01*
X92925970Y-76276738D01*
X92925968Y-76276738D01*
X92920655Y-76275314D01*
X92710000Y-76256884D01*
X92499345Y-76275314D01*
X92494032Y-76276738D01*
X92494030Y-76276738D01*
X92300400Y-76328621D01*
X92300398Y-76328622D01*
X92295090Y-76330044D01*
X92290109Y-76332366D01*
X92290108Y-76332367D01*
X92108423Y-76417088D01*
X92108420Y-76417090D01*
X92103442Y-76419411D01*
X91930224Y-76540699D01*
X91780699Y-76690224D01*
X91659411Y-76863442D01*
X91657090Y-76868420D01*
X91657088Y-76868423D01*
X91572367Y-77050108D01*
X91570044Y-77055090D01*
X91568622Y-77060398D01*
X91568621Y-77060400D01*
X91520183Y-77241173D01*
X91515314Y-77259345D01*
X91496884Y-77470000D01*
X85985905Y-77470000D01*
X84767122Y-76251217D01*
X84733096Y-76188905D01*
X84730907Y-76175292D01*
X84730004Y-76166695D01*
X84713542Y-76010072D01*
X84654527Y-75828444D01*
X84559040Y-75663056D01*
X84462503Y-75555840D01*
X84435675Y-75526045D01*
X84435674Y-75526044D01*
X84431253Y-75521134D01*
X84276752Y-75408882D01*
X84270724Y-75406198D01*
X84270722Y-75406197D01*
X84108319Y-75333891D01*
X84108318Y-75333891D01*
X84102288Y-75331206D01*
X84008887Y-75311353D01*
X83921944Y-75292872D01*
X83921939Y-75292872D01*
X83915487Y-75291500D01*
X83724513Y-75291500D01*
X83718061Y-75292872D01*
X83718056Y-75292872D01*
X83631113Y-75311353D01*
X83537712Y-75331206D01*
X83531682Y-75333891D01*
X83531681Y-75333891D01*
X83369278Y-75406197D01*
X83369276Y-75406198D01*
X83363248Y-75408882D01*
X83208747Y-75521134D01*
X83204326Y-75526044D01*
X83204325Y-75526045D01*
X83177498Y-75555840D01*
X83080960Y-75663056D01*
X82985473Y-75828444D01*
X82926458Y-76010072D01*
X82906496Y-76200000D01*
X82907186Y-76206565D01*
X82913844Y-76269908D01*
X82926458Y-76389928D01*
X82985473Y-76571556D01*
X82988776Y-76577278D01*
X82988777Y-76577279D01*
X83009069Y-76612425D01*
X83080960Y-76736944D01*
X83189228Y-76857188D01*
X83195736Y-76870750D01*
X83195840Y-76870773D01*
X83209516Y-76879425D01*
X83357906Y-76987237D01*
X83363248Y-76991118D01*
X83369276Y-76993802D01*
X83369278Y-76993803D01*
X83531681Y-77066109D01*
X83537712Y-77068794D01*
X83624009Y-77087137D01*
X83718056Y-77107128D01*
X83718061Y-77107128D01*
X83724513Y-77108500D01*
X83780406Y-77108500D01*
X83848527Y-77128502D01*
X83869501Y-77145405D01*
X85689595Y-78965499D01*
X85723621Y-79027811D01*
X85726500Y-79054594D01*
X85726500Y-98734192D01*
X85706498Y-98802313D01*
X85658683Y-98845953D01*
X85633607Y-98859007D01*
X85629474Y-98862110D01*
X85629471Y-98862112D01*
X85459100Y-98990030D01*
X85454965Y-98993135D01*
X85300629Y-99154638D01*
X85193201Y-99312121D01*
X85138293Y-99357121D01*
X85067768Y-99365292D01*
X85004021Y-99334038D01*
X84983324Y-99309554D01*
X84902822Y-99185117D01*
X84902820Y-99185114D01*
X84900014Y-99180777D01*
X84749670Y-99015551D01*
X84745619Y-99012352D01*
X84745615Y-99012348D01*
X84578414Y-98880300D01*
X84578410Y-98880298D01*
X84574359Y-98877098D01*
X84569835Y-98874601D01*
X84569831Y-98874598D01*
X84518608Y-98846322D01*
X84468636Y-98795890D01*
X84453500Y-98736013D01*
X84453500Y-78818768D01*
X84454027Y-78807585D01*
X84455702Y-78800092D01*
X84453562Y-78732001D01*
X84453500Y-78728044D01*
X84453500Y-78700144D01*
X84452996Y-78696153D01*
X84452063Y-78684311D01*
X84452063Y-78684292D01*
X84450674Y-78640111D01*
X84448461Y-78632493D01*
X84445021Y-78620652D01*
X84441012Y-78601293D01*
X84440846Y-78599983D01*
X84438474Y-78581203D01*
X84435558Y-78573837D01*
X84435556Y-78573831D01*
X84422200Y-78540098D01*
X84418355Y-78528868D01*
X84408230Y-78494017D01*
X84408228Y-78494012D01*
X84406019Y-78486407D01*
X84395705Y-78468966D01*
X84387008Y-78451213D01*
X84382472Y-78439758D01*
X84379552Y-78432383D01*
X84353563Y-78396612D01*
X84347047Y-78386692D01*
X84328578Y-78355463D01*
X84324542Y-78348638D01*
X84310221Y-78334317D01*
X84297380Y-78319283D01*
X84290131Y-78309306D01*
X84285472Y-78302893D01*
X84251395Y-78274702D01*
X84242616Y-78266712D01*
X83046360Y-77070456D01*
X83035398Y-77050381D01*
X83029500Y-77048771D01*
X83006495Y-77030590D01*
X80680405Y-74704500D01*
X80646379Y-74642188D01*
X80643500Y-74615405D01*
X80643500Y-73188134D01*
X89136500Y-73188134D01*
X89143255Y-73250316D01*
X89194385Y-73386705D01*
X89281739Y-73503261D01*
X89398295Y-73590615D01*
X89534684Y-73641745D01*
X89596866Y-73648500D01*
X90743134Y-73648500D01*
X90805316Y-73641745D01*
X90859154Y-73621562D01*
X90933296Y-73593768D01*
X90933299Y-73593766D01*
X90941705Y-73590615D01*
X90948894Y-73585227D01*
X90949137Y-73585094D01*
X91018494Y-73569924D01*
X91046907Y-73575248D01*
X91078715Y-73585094D01*
X91213106Y-73626695D01*
X91231180Y-73632290D01*
X91237305Y-73632934D01*
X91237306Y-73632934D01*
X91426622Y-73652832D01*
X91426623Y-73652832D01*
X91432750Y-73653476D01*
X91516014Y-73645898D01*
X91628457Y-73635665D01*
X91628460Y-73635664D01*
X91634596Y-73635106D01*
X91640502Y-73633368D01*
X91640506Y-73633367D01*
X91823120Y-73579620D01*
X91823119Y-73579620D01*
X91829029Y-73577881D01*
X91834486Y-73575028D01*
X91834489Y-73575027D01*
X91971765Y-73503261D01*
X92008460Y-73484077D01*
X92008462Y-73484077D01*
X92008645Y-73483981D01*
X92008663Y-73484016D01*
X92074441Y-73464111D01*
X92135409Y-73479271D01*
X92307565Y-73572356D01*
X92376733Y-73593767D01*
X92495293Y-73630468D01*
X92495296Y-73630469D01*
X92501180Y-73632290D01*
X92507305Y-73632934D01*
X92507306Y-73632934D01*
X92696622Y-73652832D01*
X92696623Y-73652832D01*
X92702750Y-73653476D01*
X92786014Y-73645898D01*
X92898457Y-73635665D01*
X92898460Y-73635664D01*
X92904596Y-73635106D01*
X92910502Y-73633368D01*
X92910506Y-73633367D01*
X93093120Y-73579620D01*
X93093119Y-73579620D01*
X93099029Y-73577881D01*
X93104486Y-73575028D01*
X93104489Y-73575027D01*
X93241765Y-73503261D01*
X93278645Y-73483981D01*
X93436601Y-73356981D01*
X93566881Y-73201719D01*
X93569845Y-73196327D01*
X93569848Y-73196323D01*
X93574350Y-73188134D01*
X94216500Y-73188134D01*
X94223255Y-73250316D01*
X94274385Y-73386705D01*
X94361739Y-73503261D01*
X94478295Y-73590615D01*
X94614684Y-73641745D01*
X94676866Y-73648500D01*
X95823134Y-73648500D01*
X95885316Y-73641745D01*
X95939154Y-73621562D01*
X96013296Y-73593768D01*
X96013299Y-73593766D01*
X96021705Y-73590615D01*
X96028894Y-73585227D01*
X96029137Y-73585094D01*
X96098494Y-73569924D01*
X96126907Y-73575248D01*
X96158715Y-73585094D01*
X96293106Y-73626695D01*
X96311180Y-73632290D01*
X96317305Y-73632934D01*
X96317306Y-73632934D01*
X96506622Y-73652832D01*
X96506623Y-73652832D01*
X96512750Y-73653476D01*
X96596014Y-73645898D01*
X96708457Y-73635665D01*
X96708460Y-73635664D01*
X96714596Y-73635106D01*
X96720502Y-73633368D01*
X96720506Y-73633367D01*
X96903120Y-73579620D01*
X96903119Y-73579620D01*
X96909029Y-73577881D01*
X96914486Y-73575028D01*
X96914489Y-73575027D01*
X97051765Y-73503261D01*
X97088460Y-73484077D01*
X97088462Y-73484077D01*
X97088645Y-73483981D01*
X97088663Y-73484016D01*
X97154441Y-73464111D01*
X97215409Y-73479271D01*
X97387565Y-73572356D01*
X97456733Y-73593767D01*
X97575293Y-73630468D01*
X97575296Y-73630469D01*
X97581180Y-73632290D01*
X97587305Y-73632934D01*
X97587306Y-73632934D01*
X97776622Y-73652832D01*
X97776623Y-73652832D01*
X97782750Y-73653476D01*
X97866014Y-73645898D01*
X97978457Y-73635665D01*
X97978460Y-73635664D01*
X97984596Y-73635106D01*
X97990502Y-73633368D01*
X97990506Y-73633367D01*
X98173120Y-73579620D01*
X98173119Y-73579620D01*
X98179029Y-73577881D01*
X98184486Y-73575028D01*
X98184489Y-73575027D01*
X98321765Y-73503261D01*
X98358645Y-73483981D01*
X98516601Y-73356981D01*
X98646881Y-73201719D01*
X98649845Y-73196327D01*
X98649848Y-73196323D01*
X98741556Y-73029506D01*
X98744523Y-73024109D01*
X98805807Y-72830916D01*
X98823500Y-72673183D01*
X98823500Y-72113996D01*
X98808723Y-71963287D01*
X98750142Y-71769258D01*
X98654990Y-71590302D01*
X98526890Y-71433237D01*
X98522141Y-71429308D01*
X98375472Y-71307973D01*
X98375469Y-71307971D01*
X98370722Y-71304044D01*
X98192435Y-71207644D01*
X98095627Y-71177677D01*
X98004707Y-71149532D01*
X98004704Y-71149531D01*
X97998820Y-71147710D01*
X97992695Y-71147066D01*
X97992694Y-71147066D01*
X97803378Y-71127168D01*
X97803377Y-71127168D01*
X97797250Y-71126524D01*
X97713986Y-71134102D01*
X97601543Y-71144335D01*
X97601540Y-71144336D01*
X97595404Y-71144894D01*
X97589498Y-71146632D01*
X97589494Y-71146633D01*
X97465116Y-71183240D01*
X97400971Y-71202119D01*
X97395514Y-71204972D01*
X97395511Y-71204973D01*
X97311163Y-71249069D01*
X97221540Y-71295923D01*
X97221538Y-71295923D01*
X97221355Y-71296019D01*
X97221337Y-71295984D01*
X97155559Y-71315889D01*
X97094591Y-71300729D01*
X97085815Y-71295984D01*
X96922435Y-71207644D01*
X96825627Y-71177677D01*
X96734707Y-71149532D01*
X96734704Y-71149531D01*
X96728820Y-71147710D01*
X96722695Y-71147066D01*
X96722694Y-71147066D01*
X96533378Y-71127168D01*
X96533377Y-71127168D01*
X96527250Y-71126524D01*
X96443986Y-71134102D01*
X96331543Y-71144335D01*
X96331540Y-71144336D01*
X96325404Y-71144894D01*
X96319498Y-71146632D01*
X96319494Y-71146633D01*
X96136879Y-71200380D01*
X96136877Y-71200381D01*
X96135493Y-71200788D01*
X96130971Y-71202119D01*
X96130718Y-71201260D01*
X96065338Y-71207714D01*
X96028594Y-71194548D01*
X96021705Y-71189385D01*
X96013304Y-71186236D01*
X96013301Y-71186234D01*
X95901534Y-71144335D01*
X95885316Y-71138255D01*
X95823134Y-71131500D01*
X94676866Y-71131500D01*
X94614684Y-71138255D01*
X94478295Y-71189385D01*
X94361739Y-71276739D01*
X94274385Y-71393295D01*
X94223255Y-71529684D01*
X94216500Y-71591866D01*
X94216500Y-73188134D01*
X93574350Y-73188134D01*
X93661556Y-73029506D01*
X93664523Y-73024109D01*
X93725807Y-72830916D01*
X93743500Y-72673183D01*
X93743500Y-72113996D01*
X93728723Y-71963287D01*
X93670142Y-71769258D01*
X93574990Y-71590302D01*
X93446890Y-71433237D01*
X93442141Y-71429308D01*
X93295472Y-71307973D01*
X93295469Y-71307971D01*
X93290722Y-71304044D01*
X93112435Y-71207644D01*
X93015627Y-71177677D01*
X92924707Y-71149532D01*
X92924704Y-71149531D01*
X92918820Y-71147710D01*
X92912695Y-71147066D01*
X92912694Y-71147066D01*
X92723378Y-71127168D01*
X92723377Y-71127168D01*
X92717250Y-71126524D01*
X92633986Y-71134102D01*
X92521543Y-71144335D01*
X92521540Y-71144336D01*
X92515404Y-71144894D01*
X92509498Y-71146632D01*
X92509494Y-71146633D01*
X92385116Y-71183240D01*
X92320971Y-71202119D01*
X92315514Y-71204972D01*
X92315511Y-71204973D01*
X92231163Y-71249069D01*
X92141540Y-71295923D01*
X92141538Y-71295923D01*
X92141355Y-71296019D01*
X92141337Y-71295984D01*
X92075559Y-71315889D01*
X92014591Y-71300729D01*
X92005815Y-71295984D01*
X91842435Y-71207644D01*
X91745627Y-71177677D01*
X91654707Y-71149532D01*
X91654704Y-71149531D01*
X91648820Y-71147710D01*
X91642695Y-71147066D01*
X91642694Y-71147066D01*
X91453378Y-71127168D01*
X91453377Y-71127168D01*
X91447250Y-71126524D01*
X91363986Y-71134102D01*
X91251543Y-71144335D01*
X91251540Y-71144336D01*
X91245404Y-71144894D01*
X91239498Y-71146632D01*
X91239494Y-71146633D01*
X91056879Y-71200380D01*
X91056877Y-71200381D01*
X91055493Y-71200788D01*
X91050971Y-71202119D01*
X91050718Y-71201260D01*
X90985338Y-71207714D01*
X90948594Y-71194548D01*
X90941705Y-71189385D01*
X90933304Y-71186236D01*
X90933301Y-71186234D01*
X90821534Y-71144335D01*
X90805316Y-71138255D01*
X90743134Y-71131500D01*
X89596866Y-71131500D01*
X89534684Y-71138255D01*
X89398295Y-71189385D01*
X89281739Y-71276739D01*
X89194385Y-71393295D01*
X89143255Y-71529684D01*
X89136500Y-71591866D01*
X89136500Y-73188134D01*
X80643500Y-73188134D01*
X80643500Y-68846522D01*
X82640801Y-68846522D01*
X82679092Y-68989423D01*
X82682842Y-68999727D01*
X82767521Y-69181323D01*
X82772998Y-69190811D01*
X82887925Y-69354942D01*
X82894981Y-69363350D01*
X83036650Y-69505019D01*
X83045058Y-69512075D01*
X83209189Y-69627002D01*
X83218677Y-69632479D01*
X83400273Y-69717158D01*
X83410577Y-69720908D01*
X83548503Y-69757866D01*
X83562599Y-69757530D01*
X83566000Y-69749588D01*
X83566000Y-69744439D01*
X84074000Y-69744439D01*
X84077973Y-69757970D01*
X84086522Y-69759199D01*
X84229423Y-69720908D01*
X84239727Y-69717158D01*
X84421323Y-69632479D01*
X84430811Y-69627002D01*
X84594942Y-69512075D01*
X84603350Y-69505019D01*
X84745019Y-69363350D01*
X84752075Y-69354942D01*
X84867002Y-69190811D01*
X84872479Y-69181323D01*
X84957158Y-68999727D01*
X84960908Y-68989423D01*
X84997866Y-68851497D01*
X84997530Y-68837401D01*
X84989588Y-68834000D01*
X84092115Y-68834000D01*
X84076876Y-68838475D01*
X84075671Y-68839865D01*
X84074000Y-68847548D01*
X84074000Y-69744439D01*
X83566000Y-69744439D01*
X83566000Y-68852115D01*
X83561525Y-68836876D01*
X83560135Y-68835671D01*
X83552452Y-68834000D01*
X82655561Y-68834000D01*
X82642030Y-68837973D01*
X82640801Y-68846522D01*
X80643500Y-68846522D01*
X80643500Y-68580000D01*
X91096526Y-68580000D01*
X91116391Y-68832403D01*
X91117545Y-68837210D01*
X91117546Y-68837216D01*
X91152449Y-68982596D01*
X91175495Y-69078591D01*
X91177388Y-69083162D01*
X91177389Y-69083164D01*
X91259782Y-69282077D01*
X91272384Y-69312502D01*
X91404672Y-69528376D01*
X91486489Y-69624171D01*
X91558546Y-69708538D01*
X91569102Y-69720898D01*
X91761624Y-69885328D01*
X91977498Y-70017616D01*
X91982068Y-70019509D01*
X91982072Y-70019511D01*
X92186948Y-70104373D01*
X92211409Y-70114505D01*
X92296032Y-70134821D01*
X92452784Y-70172454D01*
X92452790Y-70172455D01*
X92457597Y-70173609D01*
X92710000Y-70193474D01*
X92962403Y-70173609D01*
X92967210Y-70172455D01*
X92967216Y-70172454D01*
X93123968Y-70134821D01*
X93208591Y-70114505D01*
X93233052Y-70104373D01*
X93437928Y-70019511D01*
X93437932Y-70019509D01*
X93442502Y-70017616D01*
X93658376Y-69885328D01*
X93850898Y-69720898D01*
X93861455Y-69708538D01*
X93933511Y-69624171D01*
X94015328Y-69528376D01*
X94147616Y-69312502D01*
X94160219Y-69282077D01*
X94242611Y-69083164D01*
X94242612Y-69083162D01*
X94244505Y-69078591D01*
X94267551Y-68982596D01*
X94302454Y-68837216D01*
X94302455Y-68837210D01*
X94303609Y-68832403D01*
X94323474Y-68580000D01*
X96176526Y-68580000D01*
X96196391Y-68832403D01*
X96197545Y-68837210D01*
X96197546Y-68837216D01*
X96232449Y-68982596D01*
X96255495Y-69078591D01*
X96257388Y-69083162D01*
X96257389Y-69083164D01*
X96339782Y-69282077D01*
X96352384Y-69312502D01*
X96484672Y-69528376D01*
X96566489Y-69624171D01*
X96638546Y-69708538D01*
X96649102Y-69720898D01*
X96841624Y-69885328D01*
X97057498Y-70017616D01*
X97062068Y-70019509D01*
X97062072Y-70019511D01*
X97266948Y-70104373D01*
X97291409Y-70114505D01*
X97376032Y-70134821D01*
X97532784Y-70172454D01*
X97532790Y-70172455D01*
X97537597Y-70173609D01*
X97790000Y-70193474D01*
X98042403Y-70173609D01*
X98047210Y-70172455D01*
X98047216Y-70172454D01*
X98203968Y-70134821D01*
X98288591Y-70114505D01*
X98313052Y-70104373D01*
X98517928Y-70019511D01*
X98517932Y-70019509D01*
X98522502Y-70017616D01*
X98738376Y-69885328D01*
X98930898Y-69720898D01*
X98941455Y-69708538D01*
X99013511Y-69624171D01*
X99095328Y-69528376D01*
X99227616Y-69312502D01*
X99240219Y-69282077D01*
X99322611Y-69083164D01*
X99322612Y-69083162D01*
X99324505Y-69078591D01*
X99347551Y-68982596D01*
X99382454Y-68837216D01*
X99382455Y-68837210D01*
X99383609Y-68832403D01*
X99403474Y-68580000D01*
X99383609Y-68327597D01*
X99382410Y-68322599D01*
X99338740Y-68140702D01*
X99324505Y-68081409D01*
X99321298Y-68073666D01*
X99229511Y-67852072D01*
X99229509Y-67852068D01*
X99227616Y-67847498D01*
X99095328Y-67631624D01*
X98930898Y-67439102D01*
X98738376Y-67274672D01*
X98522502Y-67142384D01*
X98517932Y-67140491D01*
X98517928Y-67140489D01*
X98293164Y-67047389D01*
X98293162Y-67047388D01*
X98288591Y-67045495D01*
X98203968Y-67025179D01*
X98047216Y-66987546D01*
X98047210Y-66987545D01*
X98042403Y-66986391D01*
X97790000Y-66966526D01*
X97537597Y-66986391D01*
X97532790Y-66987545D01*
X97532784Y-66987546D01*
X97376032Y-67025179D01*
X97291409Y-67045495D01*
X97286838Y-67047388D01*
X97286836Y-67047389D01*
X97062072Y-67140489D01*
X97062068Y-67140491D01*
X97057498Y-67142384D01*
X96841624Y-67274672D01*
X96649102Y-67439102D01*
X96484672Y-67631624D01*
X96352384Y-67847498D01*
X96350491Y-67852068D01*
X96350489Y-67852072D01*
X96258702Y-68073666D01*
X96255495Y-68081409D01*
X96241260Y-68140702D01*
X96197591Y-68322599D01*
X96196391Y-68327597D01*
X96176526Y-68580000D01*
X94323474Y-68580000D01*
X94303609Y-68327597D01*
X94302410Y-68322599D01*
X94258740Y-68140702D01*
X94244505Y-68081409D01*
X94241298Y-68073666D01*
X94149511Y-67852072D01*
X94149509Y-67852068D01*
X94147616Y-67847498D01*
X94015328Y-67631624D01*
X93850898Y-67439102D01*
X93658376Y-67274672D01*
X93442502Y-67142384D01*
X93437932Y-67140491D01*
X93437928Y-67140489D01*
X93213164Y-67047389D01*
X93213162Y-67047388D01*
X93208591Y-67045495D01*
X93123968Y-67025179D01*
X92967216Y-66987546D01*
X92967210Y-66987545D01*
X92962403Y-66986391D01*
X92710000Y-66966526D01*
X92457597Y-66986391D01*
X92452790Y-66987545D01*
X92452784Y-66987546D01*
X92296032Y-67025179D01*
X92211409Y-67045495D01*
X92206838Y-67047388D01*
X92206836Y-67047389D01*
X91982072Y-67140489D01*
X91982068Y-67140491D01*
X91977498Y-67142384D01*
X91761624Y-67274672D01*
X91569102Y-67439102D01*
X91404672Y-67631624D01*
X91272384Y-67847498D01*
X91270491Y-67852068D01*
X91270489Y-67852072D01*
X91178702Y-68073666D01*
X91175495Y-68081409D01*
X91161260Y-68140702D01*
X91117591Y-68322599D01*
X91116391Y-68327597D01*
X91096526Y-68580000D01*
X80643500Y-68580000D01*
X80643500Y-66306522D01*
X82640801Y-66306522D01*
X82679092Y-66449423D01*
X82682842Y-66459727D01*
X82767521Y-66641323D01*
X82772998Y-66650811D01*
X82887925Y-66814942D01*
X82894981Y-66823350D01*
X83036650Y-66965019D01*
X83045058Y-66972075D01*
X83209189Y-67087002D01*
X83218677Y-67092479D01*
X83400277Y-67177159D01*
X83410582Y-67180910D01*
X83438137Y-67188294D01*
X83498759Y-67225245D01*
X83529781Y-67289106D01*
X83521352Y-67359600D01*
X83476148Y-67414347D01*
X83438137Y-67431706D01*
X83410582Y-67439090D01*
X83400277Y-67442841D01*
X83218677Y-67527521D01*
X83209189Y-67532998D01*
X83045058Y-67647925D01*
X83036650Y-67654981D01*
X82894981Y-67796650D01*
X82887925Y-67805058D01*
X82772998Y-67969189D01*
X82767521Y-67978677D01*
X82682842Y-68160273D01*
X82679092Y-68170577D01*
X82642134Y-68308503D01*
X82642470Y-68322599D01*
X82650412Y-68326000D01*
X84984439Y-68326000D01*
X84997970Y-68322027D01*
X84999199Y-68313478D01*
X84960908Y-68170577D01*
X84957158Y-68160273D01*
X84872479Y-67978677D01*
X84867002Y-67969189D01*
X84752075Y-67805058D01*
X84745019Y-67796650D01*
X84603350Y-67654981D01*
X84594942Y-67647925D01*
X84430811Y-67532998D01*
X84421323Y-67527521D01*
X84239723Y-67442841D01*
X84229418Y-67439090D01*
X84201863Y-67431706D01*
X84141241Y-67394755D01*
X84110219Y-67330894D01*
X84118648Y-67260400D01*
X84163852Y-67205653D01*
X84201863Y-67188294D01*
X84229418Y-67180910D01*
X84239723Y-67177159D01*
X84421323Y-67092479D01*
X84430811Y-67087002D01*
X84594942Y-66972075D01*
X84603350Y-66965019D01*
X84745019Y-66823350D01*
X84752075Y-66814942D01*
X84867002Y-66650811D01*
X84872479Y-66641323D01*
X84957158Y-66459727D01*
X84960908Y-66449423D01*
X84997866Y-66311497D01*
X84997530Y-66297401D01*
X84989588Y-66294000D01*
X82655561Y-66294000D01*
X82642030Y-66297973D01*
X82640801Y-66306522D01*
X80643500Y-66306522D01*
X80643500Y-65768503D01*
X82642134Y-65768503D01*
X82642470Y-65782599D01*
X82650412Y-65786000D01*
X83547885Y-65786000D01*
X83563124Y-65781525D01*
X83564329Y-65780135D01*
X83566000Y-65772452D01*
X83566000Y-65767885D01*
X84074000Y-65767885D01*
X84078475Y-65783124D01*
X84079865Y-65784329D01*
X84087548Y-65786000D01*
X84984439Y-65786000D01*
X84997970Y-65782027D01*
X84999199Y-65773478D01*
X84960908Y-65630577D01*
X84957158Y-65620273D01*
X84872479Y-65438677D01*
X84867002Y-65429189D01*
X84752075Y-65265058D01*
X84745019Y-65256650D01*
X84603350Y-65114981D01*
X84594942Y-65107925D01*
X84430811Y-64992998D01*
X84421323Y-64987521D01*
X84239727Y-64902842D01*
X84229423Y-64899092D01*
X84091497Y-64862134D01*
X84077401Y-64862470D01*
X84074000Y-64870412D01*
X84074000Y-65767885D01*
X83566000Y-65767885D01*
X83566000Y-64875561D01*
X83562027Y-64862030D01*
X83553478Y-64860801D01*
X83410577Y-64899092D01*
X83400273Y-64902842D01*
X83218677Y-64987521D01*
X83209189Y-64992998D01*
X83045058Y-65107925D01*
X83036650Y-65114981D01*
X82894981Y-65256650D01*
X82887925Y-65265058D01*
X82772998Y-65429189D01*
X82767521Y-65438677D01*
X82682842Y-65620273D01*
X82679092Y-65630577D01*
X82642134Y-65768503D01*
X80643500Y-65768503D01*
X80643500Y-63578763D01*
X80644027Y-63567579D01*
X80645701Y-63560091D01*
X80643562Y-63492032D01*
X80643500Y-63488075D01*
X80643500Y-63460144D01*
X80642994Y-63456138D01*
X80642061Y-63444292D01*
X80640922Y-63408037D01*
X80640673Y-63400110D01*
X80635022Y-63380658D01*
X80631014Y-63361306D01*
X80629468Y-63349068D01*
X80629467Y-63349066D01*
X80628474Y-63341203D01*
X80612194Y-63300086D01*
X80608359Y-63288885D01*
X80596018Y-63246406D01*
X80591985Y-63239587D01*
X80591983Y-63239582D01*
X80585707Y-63228971D01*
X80577010Y-63211221D01*
X80569552Y-63192383D01*
X80543571Y-63156623D01*
X80537053Y-63146701D01*
X80518578Y-63115460D01*
X80518574Y-63115455D01*
X80514542Y-63108637D01*
X80506363Y-63100458D01*
X80504991Y-63097945D01*
X80504080Y-63096771D01*
X80504269Y-63096624D01*
X80484302Y-63060058D01*
X80468850Y-63055839D01*
X80454633Y-63045653D01*
X80441396Y-63034703D01*
X80432627Y-63026722D01*
X77973652Y-60567747D01*
X77966112Y-60559461D01*
X77962000Y-60552982D01*
X77912348Y-60506356D01*
X77909507Y-60503602D01*
X77889770Y-60483865D01*
X77886573Y-60481385D01*
X77877551Y-60473680D01*
X77851100Y-60448841D01*
X77845321Y-60443414D01*
X77838375Y-60439595D01*
X77838372Y-60439593D01*
X77827566Y-60433652D01*
X77811047Y-60422801D01*
X77810583Y-60422441D01*
X77795041Y-60410386D01*
X77787772Y-60407241D01*
X77787768Y-60407238D01*
X77754463Y-60392826D01*
X77743813Y-60387609D01*
X77705060Y-60366305D01*
X77685437Y-60361267D01*
X77666734Y-60354863D01*
X77655420Y-60349967D01*
X77655419Y-60349967D01*
X77648145Y-60346819D01*
X77640322Y-60345580D01*
X77640312Y-60345577D01*
X77604476Y-60339901D01*
X77592856Y-60337495D01*
X77557711Y-60328472D01*
X77557710Y-60328472D01*
X77550030Y-60326500D01*
X77529776Y-60326500D01*
X77510065Y-60324949D01*
X77497886Y-60323020D01*
X77490057Y-60321780D01*
X77482165Y-60322526D01*
X77446039Y-60325941D01*
X77434181Y-60326500D01*
X74936805Y-60326500D01*
X74868684Y-60306498D01*
X74831013Y-60268940D01*
X74742822Y-60132617D01*
X74742820Y-60132614D01*
X74740014Y-60128277D01*
X74589670Y-59963051D01*
X74585619Y-59959852D01*
X74585615Y-59959848D01*
X74418414Y-59827800D01*
X74418410Y-59827798D01*
X74414359Y-59824598D01*
X74373053Y-59801796D01*
X74323084Y-59751364D01*
X74308312Y-59681921D01*
X74333428Y-59615516D01*
X74360780Y-59588909D01*
X74451932Y-59523891D01*
X74539860Y-59461173D01*
X74698096Y-59303489D01*
X74776095Y-59194942D01*
X74825435Y-59126277D01*
X74828453Y-59122077D01*
X74873435Y-59031063D01*
X74900256Y-58976795D01*
X74948370Y-58924588D01*
X75017071Y-58906681D01*
X75084547Y-58928760D01*
X75127408Y-58979371D01*
X75149411Y-59026558D01*
X75270699Y-59199776D01*
X75420224Y-59349301D01*
X75593442Y-59470589D01*
X75598420Y-59472910D01*
X75598423Y-59472912D01*
X75780108Y-59557633D01*
X75785090Y-59559956D01*
X75790398Y-59561378D01*
X75790400Y-59561379D01*
X75984030Y-59613262D01*
X75984032Y-59613262D01*
X75989345Y-59614686D01*
X76200000Y-59633116D01*
X76410655Y-59614686D01*
X76415968Y-59613262D01*
X76415970Y-59613262D01*
X76609600Y-59561379D01*
X76609602Y-59561378D01*
X76614910Y-59559956D01*
X76619892Y-59557633D01*
X76801577Y-59472912D01*
X76801580Y-59472910D01*
X76806558Y-59470589D01*
X76979776Y-59349301D01*
X77129301Y-59199776D01*
X77250589Y-59026558D01*
X77298139Y-58924588D01*
X77337633Y-58839892D01*
X77337634Y-58839891D01*
X77339956Y-58834910D01*
X77378384Y-58691497D01*
X77393262Y-58635970D01*
X77393262Y-58635968D01*
X77394686Y-58630655D01*
X77413116Y-58420000D01*
X77394686Y-58209345D01*
X77382301Y-58163124D01*
X77341379Y-58010400D01*
X77341378Y-58010398D01*
X77339956Y-58005090D01*
X77306903Y-57934207D01*
X77252912Y-57818423D01*
X77252910Y-57818420D01*
X77250589Y-57813442D01*
X77129301Y-57640224D01*
X76979776Y-57490699D01*
X76806558Y-57369411D01*
X76801580Y-57367090D01*
X76801577Y-57367088D01*
X76619892Y-57282367D01*
X76619891Y-57282366D01*
X76614910Y-57280044D01*
X76609602Y-57278622D01*
X76609600Y-57278621D01*
X76415970Y-57226738D01*
X76415968Y-57226738D01*
X76410655Y-57225314D01*
X76200000Y-57206884D01*
X75989345Y-57225314D01*
X75984032Y-57226738D01*
X75984030Y-57226738D01*
X75790400Y-57278621D01*
X75790398Y-57278622D01*
X75785090Y-57280044D01*
X75780109Y-57282366D01*
X75780108Y-57282367D01*
X75598423Y-57367088D01*
X75598420Y-57367090D01*
X75593442Y-57369411D01*
X75420224Y-57490699D01*
X75270699Y-57640224D01*
X75149411Y-57813442D01*
X75147088Y-57818423D01*
X75147086Y-57818427D01*
X75127020Y-57861460D01*
X75080104Y-57914745D01*
X75011827Y-57934207D01*
X74943867Y-57913666D01*
X74897276Y-57858454D01*
X74877704Y-57813442D01*
X74861354Y-57775840D01*
X74740014Y-57588277D01*
X74589670Y-57423051D01*
X74585619Y-57419852D01*
X74585615Y-57419848D01*
X74418414Y-57287800D01*
X74418410Y-57287798D01*
X74414359Y-57284598D01*
X74406110Y-57280044D01*
X74337247Y-57242030D01*
X74218789Y-57176638D01*
X74213920Y-57174914D01*
X74213916Y-57174912D01*
X74013087Y-57103795D01*
X74013083Y-57103794D01*
X74008212Y-57102069D01*
X74003119Y-57101162D01*
X74003116Y-57101161D01*
X73793373Y-57063800D01*
X73793367Y-57063799D01*
X73788284Y-57062894D01*
X73714452Y-57061992D01*
X73570081Y-57060228D01*
X73570079Y-57060228D01*
X73564911Y-57060165D01*
X73344091Y-57093955D01*
X73131756Y-57163357D01*
X73082678Y-57188905D01*
X73013020Y-57202617D01*
X72947005Y-57176491D01*
X72905594Y-57118823D01*
X72898500Y-57077141D01*
X72898500Y-50853250D01*
X72900246Y-50832345D01*
X72902770Y-50817344D01*
X72902770Y-50817341D01*
X72903576Y-50812552D01*
X72903729Y-50800000D01*
X72902003Y-50787947D01*
X72901001Y-50761845D01*
X72915340Y-50543078D01*
X72917340Y-50527885D01*
X79922000Y-50527885D01*
X79926475Y-50543124D01*
X79927865Y-50544329D01*
X79935548Y-50546000D01*
X81007885Y-50546000D01*
X81023124Y-50541525D01*
X81024329Y-50540135D01*
X81026000Y-50532452D01*
X81026000Y-49460116D01*
X81021525Y-49444877D01*
X81020135Y-49443672D01*
X81012452Y-49442001D01*
X80385331Y-49442001D01*
X80378510Y-49442371D01*
X80327648Y-49447895D01*
X80312396Y-49451521D01*
X80191946Y-49496676D01*
X80176351Y-49505214D01*
X80074276Y-49581715D01*
X80061715Y-49594276D01*
X79985214Y-49696351D01*
X79976676Y-49711946D01*
X79931522Y-49832394D01*
X79927895Y-49847649D01*
X79922369Y-49898514D01*
X79922000Y-49905328D01*
X79922000Y-50527885D01*
X72917340Y-50527885D01*
X72917491Y-50526738D01*
X72963506Y-50295405D01*
X72966112Y-50282304D01*
X72970375Y-50266394D01*
X73050485Y-50030398D01*
X73056791Y-50015174D01*
X73167016Y-49791658D01*
X73175257Y-49777384D01*
X73313713Y-49570171D01*
X73323746Y-49557095D01*
X73488068Y-49369722D01*
X73499722Y-49358068D01*
X73687095Y-49193746D01*
X73700171Y-49183713D01*
X73907384Y-49045257D01*
X73921658Y-49037016D01*
X74145174Y-48926791D01*
X74160400Y-48920484D01*
X74396394Y-48840375D01*
X74412304Y-48836112D01*
X74534523Y-48811801D01*
X74656738Y-48787491D01*
X74673078Y-48785340D01*
X74821866Y-48775587D01*
X74888237Y-48771237D01*
X74911350Y-48772267D01*
X74914854Y-48772310D01*
X74923724Y-48773691D01*
X74932626Y-48772527D01*
X74932628Y-48772527D01*
X74949449Y-48770327D01*
X74955286Y-48769564D01*
X74971621Y-48768500D01*
X84776873Y-48768500D01*
X84844994Y-48788502D01*
G37*
%TD.AperFunction*%
%TD*%
M02*
